<svg width="11" height="11" viewBox="0 0 11 11" fill="none" xmlns="http://www.w3.org/2000/svg">
<g clip-path="url(#clip0_65_809)">
<path d="M8.69328 6.81411C8.46808 6.57962 8.19645 6.45425 7.90857 6.45425C7.62301 6.45425 7.34906 6.5773 7.11457 6.81178L6.38094 7.5431C6.32058 7.51059 6.26022 7.48041 6.20218 7.45023C6.1186 7.40844 6.03966 7.36897 5.97234 7.32718C5.28513 6.89072 4.66062 6.32192 4.06164 5.58597C3.77143 5.21915 3.57642 4.91037 3.4348 4.59695C3.62517 4.42283 3.80162 4.24174 3.97342 4.06762C4.03842 4.00262 4.10343 3.93529 4.16843 3.87028C4.65597 3.38274 4.65597 2.75126 4.16843 2.26372L3.53463 1.62992C3.46266 1.55795 3.38837 1.48365 3.31872 1.40936C3.17942 1.26542 3.03316 1.11684 2.88225 0.97754C2.65705 0.754664 2.38775 0.636261 2.10451 0.636261C1.82127 0.636261 1.54732 0.754664 1.31515 0.97754C1.31283 0.979862 1.31283 0.979862 1.31051 0.982183L0.521158 1.7785C0.22399 2.07567 0.0545117 2.43784 0.0173656 2.85806C-0.0383534 3.53597 0.161306 4.16745 0.314534 4.5807C0.690637 5.59525 1.25247 6.53551 2.09058 7.5431C3.10745 8.75731 4.33095 9.71614 5.72856 10.3917C6.26254 10.6448 6.97528 10.9443 7.7716 10.9954C7.82035 10.9977 7.87142 11 7.91786 11C8.45415 11 8.90455 10.8073 9.25744 10.4242C9.25976 10.4196 9.2644 10.4173 9.26672 10.4126C9.38745 10.2664 9.52674 10.134 9.67301 9.99241C9.77284 9.89722 9.87499 9.79739 9.97482 9.69292C10.2047 9.45379 10.3254 9.1752 10.3254 8.88964C10.3254 8.60176 10.2023 8.32548 9.96785 8.09332L8.69328 6.81411ZM9.52442 9.25878C9.5221 9.25878 9.5221 9.2611 9.52442 9.25878C9.43388 9.35629 9.34101 9.44451 9.24118 9.54202C9.09028 9.68596 8.93705 9.83686 8.79311 10.0063C8.55863 10.2571 8.28235 10.3755 7.92018 10.3755C7.88535 10.3755 7.84821 10.3755 7.81338 10.3732C7.12386 10.329 6.48309 10.0597 6.00252 9.8299C4.68848 9.19377 3.53463 8.29066 2.5758 7.1461C1.78412 6.19191 1.25479 5.30969 0.904227 4.36247C0.688315 3.78438 0.60938 3.33399 0.644205 2.90913C0.667421 2.6375 0.771894 2.4123 0.964589 2.21961L1.75626 1.42794C1.87002 1.32114 1.99075 1.2631 2.10915 1.2631C2.25541 1.2631 2.37382 1.35132 2.44811 1.42561C2.45043 1.42794 2.45275 1.43026 2.45507 1.43258C2.59669 1.56491 2.73135 1.70189 2.87296 1.84815C2.94494 1.92244 3.01923 1.99673 3.09352 2.07335L3.72732 2.70715C3.97342 2.95324 3.97342 3.18076 3.72732 3.42685C3.66 3.49418 3.59499 3.56151 3.52766 3.62651C3.33265 3.82617 3.14692 4.0119 2.94494 4.19299C2.94029 4.19763 2.93565 4.19996 2.93333 4.2046C2.73367 4.40426 2.77081 4.59928 2.8126 4.73161C2.81492 4.73857 2.81725 4.74554 2.81957 4.7525C2.9844 5.15182 3.21657 5.52793 3.56945 5.976L3.57177 5.97832C4.21254 6.76767 4.88814 7.3829 5.63338 7.85419C5.72856 7.91456 5.82607 7.96331 5.91894 8.00974C6.00252 8.05153 6.08145 8.091 6.14878 8.13279C6.15806 8.13743 6.16735 8.1444 6.17664 8.14904C6.25557 8.18851 6.32987 8.20708 6.40648 8.20708C6.59917 8.20708 6.7199 8.08636 6.75937 8.04689L7.55336 7.25289C7.6323 7.17396 7.75766 7.07877 7.90393 7.07877C8.04787 7.07877 8.16627 7.16931 8.23824 7.24825C8.24056 7.25057 8.24056 7.25057 8.24288 7.25289L9.5221 8.53211C9.76123 8.76891 9.76123 9.01268 9.52442 9.25878Z" fill="white"/>
<path d="M5.94451 2.61661C6.55277 2.71876 7.10532 3.00664 7.54643 3.44775C7.98754 3.88886 8.2731 4.4414 8.37757 5.04967C8.40311 5.2029 8.53544 5.30969 8.68635 5.30969C8.70492 5.30969 8.72117 5.30737 8.73974 5.30505C8.91155 5.27719 9.0253 5.11468 8.99745 4.94288C8.87208 4.20692 8.52383 3.53597 7.99218 3.00432C7.46053 2.47267 6.78958 2.12442 6.05362 1.99905C5.88182 1.97119 5.72163 2.08495 5.69145 2.25443C5.66127 2.42391 5.77271 2.58875 5.94451 2.61661Z" fill="white"/>
<path d="M10.987 4.85233C10.7804 3.64044 10.2092 2.53767 9.33167 1.6601C8.4541 0.782523 7.35132 0.211403 6.13944 0.00477825C5.96996 -0.0254029 5.80977 0.0906784 5.77958 0.260157C5.75172 0.431957 5.86548 0.59215 6.03728 0.622331C7.11916 0.805739 8.10585 1.31882 8.89056 2.10121C9.67527 2.88592 10.186 3.87261 10.3694 4.95448C10.395 5.10771 10.5273 5.21451 10.6782 5.21451C10.6968 5.21451 10.713 5.21218 10.7316 5.20986C10.9011 5.18432 11.0172 5.02181 10.987 4.85233Z" fill="white"/>
</g>
<defs>
<clipPath id="clip0_65_809">
<rect width="11" height="11" fill="white"/>
</clipPath>
</defs>
</svg>
