<svg width="12" height="12" viewBox="0 0 12 12" fill="none" xmlns="http://www.w3.org/2000/svg">
<g clip-path="url(#clip0_65_831)">
<path d="M8.75357 7.15351L8.74907 7.19101C7.64957 6.64301 7.53457 6.57001 7.39257 6.78301C7.29407 6.93051 7.00707 7.26501 6.92057 7.36401C6.83307 7.46151 6.74607 7.46901 6.59757 7.40151C6.44757 7.32651 5.96607 7.16901 5.39607 6.65901C4.95207 6.26151 4.65407 5.77401 4.56607 5.62401C4.41957 5.37101 4.72607 5.33501 5.00507 4.80701C5.05507 4.70201 5.02957 4.61951 4.99257 4.54501C4.95507 4.47001 4.65657 3.73501 4.53157 3.44201C4.41157 3.15001 4.28807 3.18701 4.19557 3.18701C3.90757 3.16201 3.69707 3.16601 3.51157 3.35901C2.70457 4.24601 2.90807 5.16101 3.59857 6.13401C4.95557 7.91001 5.67857 8.23701 7.00057 8.69101C7.35757 8.80451 7.68307 8.78851 7.94057 8.75151C8.22757 8.70601 8.82407 8.39101 8.94857 8.03851C9.07607 7.68601 9.07607 7.39351 9.03857 7.32601C9.00157 7.25851 8.90357 7.22101 8.75357 7.15351Z" fill="white"/>
<path d="M10.26 1.72418C6.4155 -1.99232 0.053 0.703182 0.0505 5.94618C0.0505 6.99418 0.325 8.01618 0.848 8.91868L0 11.9997L3.1675 11.1737C7.12 13.3087 11.998 10.4737 12 5.94918C12 4.36118 11.38 2.86668 10.2525 1.74368L10.26 1.72418ZM11.001 5.93268C10.998 9.74918 6.8085 12.1327 3.495 10.1847L3.315 10.0777L1.44 10.5652L1.9425 8.74268L1.823 8.55518C-0.239 5.27268 2.13 0.982682 6.036 0.982682C7.363 0.982682 8.6085 1.50018 9.5465 2.43768C10.484 3.36718 11.001 4.61268 11.001 5.93268Z" fill="white"/>
</g>
<defs>
<clipPath id="clip0_65_831">
<rect width="12" height="12" fill="white"/>
</clipPath>
</defs>
</svg>
