<svg width="17" height="17" viewBox="0 0 17 17" fill="none" xmlns="http://www.w3.org/2000/svg">
<g clip-path="url(#clip0_11_98)">
<path d="M15.3382 13.2184C15.6741 12.7566 15.856 12.2009 15.8585 11.63C15.8621 11.5549 15.8357 11.4815 15.7852 11.4258C15.7346 11.3702 15.6641 11.3369 15.589 11.3333C15.4336 11.3284 15.3024 11.4477 15.2923 11.6028C15.2945 12.0553 15.1551 12.4971 14.8937 12.8665C14.3409 13.5646 13.292 13.6 13.0872 13.6C12.9307 13.6 12.8038 13.7269 12.8038 13.8833C12.8038 14.0398 12.9307 14.1667 13.0872 14.1667C13.3376 14.1667 14.6231 14.1211 15.3382 13.2184Z" fill="black"/>
<path d="M10.2 11.05H10.7667C11.5487 11.0491 12.1824 10.4153 12.1833 9.63333C12.1833 9.47685 12.0565 9.35 11.9 9.35C11.7435 9.35 11.6167 9.47685 11.6167 9.63333C11.6167 10.1028 11.2361 10.4833 10.7667 10.4833H10.2C9.73057 10.4833 9.35001 10.1028 9.35001 9.63333H10.2C10.3565 9.63333 10.4833 9.50648 10.4833 9.35C10.4833 9.19352 10.3565 9.06666 10.2 9.06666H9.35001V8.5H10.2C10.3565 8.5 10.4833 8.37314 10.4833 8.21666C10.4833 8.06018 10.3565 7.93333 10.2 7.93333H9.35001C9.35001 7.46389 9.73057 7.08333 10.2 7.08333H10.7667C11.2361 7.08333 11.6167 7.46389 11.6167 7.93333C11.6167 8.08981 11.7435 8.21666 11.9 8.21666C12.0565 8.21666 12.1833 8.08981 12.1833 7.93333C12.1824 7.15131 11.5487 6.5176 10.7667 6.51666H10.2C9.41799 6.5176 8.78428 7.15131 8.78334 7.93333H8.50001C8.34353 7.93333 8.21667 8.06018 8.21667 8.21666C8.21667 8.37314 8.34353 8.5 8.50001 8.5H8.78334V9.06666H8.50001C8.34353 9.06666 8.21667 9.19352 8.21667 9.35C8.21667 9.50648 8.34353 9.63333 8.50001 9.63333H8.78334C8.78428 10.4153 9.41799 11.0491 10.2 11.05Z" fill="black"/>
<path d="M16.7631 9.56843C16.065 6.60165 14.5129 4.88267 13.392 3.98478C14.7977 4.09075 15.2501 4.67555 15.2635 4.69312C15.3522 4.81983 15.5262 4.85191 15.6543 4.76519C15.7825 4.67846 15.8173 4.50499 15.7327 4.3755C15.7123 4.3449 15.3187 3.78277 14.1743 3.5255C14.4669 3.28495 14.64 2.9287 14.6483 2.54998C14.6104 1.9221 14.1733 1.38967 13.5649 1.23022C13.5898 1.02555 13.6025 0.819578 13.6028 0.613399C13.6025 0.423452 13.5071 0.246292 13.3486 0.14156C13.1901 0.0368288 12.9897 0.0184579 12.8149 0.0926324C12.6718 0.157395 12.539 0.242627 12.4205 0.345649C12.2814 0.48854 12.09 0.568381 11.8907 0.566649C11.6916 0.56805 11.5006 0.488243 11.3617 0.345649C10.8623 -0.115522 10.0924 -0.115522 9.5931 0.345649C9.45403 0.488851 9.26231 0.568736 9.0627 0.566649C8.86368 0.568303 8.67264 0.48845 8.534 0.345649C8.41581 0.242848 8.28334 0.157719 8.14073 0.0929158C7.96599 0.0192384 7.76597 0.0378602 7.60782 0.14253C7.44968 0.247199 7.35438 0.424039 7.35392 0.613682C7.35392 1.31862 7.49332 2.57605 8.3759 3.42038C7.91206 3.70243 7.47887 4.03202 7.08333 4.40383V2.26665C7.08333 1.62065 6.16958 1.13332 4.95833 1.13332C3.74708 1.13332 2.83333 1.62065 2.83333 2.26665V5.12123C1.83968 5.2204 1.13333 5.66665 1.13333 6.23332V13.4399C0.4488 13.6238 0 13.9966 0 14.45V15.8666C0 16.5126 0.91375 17 2.125 17C3.20818 17 4.05167 16.6098 4.21798 16.065C4.70706 16.3239 5.25521 16.4509 5.80833 16.4333C7.01958 16.4333 7.93333 15.946 7.93333 15.3V11.6166C7.93333 10.9706 7.01958 10.4833 5.80833 10.4833C5.6664 10.4832 5.52455 10.4903 5.38333 10.5046V6.23332C5.38333 5.61282 4.53985 5.14022 3.4 5.10367V3.0512C3.88202 3.29619 4.41787 3.41613 4.95833 3.39998C5.4988 3.41613 6.03465 3.29619 6.51667 3.0512V4.98353C6.32995 5.19235 6.14238 5.41987 5.95737 5.67203C5.87264 5.7982 5.90254 5.96873 6.02514 6.05855C6.14773 6.14836 6.31935 6.12546 6.4141 6.00665C6.59608 5.76029 6.7911 5.52384 6.99833 5.29832C7.0006 5.29577 7.00258 5.29322 7.00485 5.29095C7.54572 4.68985 8.18086 4.18084 8.88533 3.7839C9.02423 3.8509 9.17116 3.89975 9.32252 3.92925L8.59208 4.61095C8.4777 4.71783 8.47161 4.89719 8.57848 5.01158C8.68536 5.12597 8.86473 5.13206 8.97912 5.02518L10.1125 3.96807H10.2028V4.81807C10.2028 4.97455 10.3297 5.1014 10.4862 5.1014C10.6426 5.1014 10.7695 4.97455 10.7695 4.81807V3.96665H10.8599L11.9932 5.02377C12.0672 5.0929 12.1725 5.11731 12.2693 5.0878C12.3662 5.05828 12.44 4.97933 12.4629 4.88068C12.4857 4.78203 12.4542 4.67867 12.3803 4.60953L11.645 3.925C11.7955 3.89522 11.9414 3.84618 12.0794 3.77908C12.8282 4.18425 15.2898 5.78508 16.2118 9.6982C16.6127 11.4016 16.4682 12.7046 15.7825 13.5702C14.9053 14.6767 13.3833 14.7333 13.0872 14.7333H9.06667C8.91019 14.7333 8.78333 14.8602 8.78333 15.0166C8.78333 15.1731 8.91019 15.3 9.06667 15.3H13.0872C13.5688 15.3 15.2136 15.2005 16.2265 13.9221C17.0249 12.9137 17.2057 11.4489 16.7631 9.56843ZM2.125 13.8833C3.06198 13.8833 3.68333 14.2233 3.68333 14.45C3.68333 14.6766 3.06198 15.0166 2.125 15.0166C1.18802 15.0166 0.566667 14.6766 0.566667 14.45C0.566667 14.2233 1.18802 13.8833 2.125 13.8833ZM2.125 16.4333C1.18802 16.4333 0.566667 16.0933 0.566667 15.8666V15.2345C1.04868 15.4795 1.58454 15.5995 2.125 15.5833C2.66546 15.5995 3.20132 15.4795 3.68333 15.2345V15.8666C3.68333 16.0933 3.06198 16.4333 2.125 16.4333ZM5.80833 15.8666C4.87135 15.8666 4.25 15.5266 4.25 15.3V12.4012C4.73202 12.6462 5.26787 12.7661 5.80833 12.75C6.3488 12.7661 6.88465 12.6462 7.36667 12.4012V15.3C7.36667 15.5266 6.74532 15.8666 5.80833 15.8666ZM7.36667 11.6166C7.36667 11.8433 6.74532 12.1833 5.80833 12.1833C4.87135 12.1833 4.25 11.8433 4.25 11.6166C4.25 11.39 4.87135 11.05 5.80833 11.05C6.74532 11.05 7.36667 11.39 7.36667 11.6166ZM3.68333 11.6166V13.6654C3.20132 13.4204 2.66546 13.3005 2.125 13.3166C1.98307 13.3166 1.84122 13.3236 1.7 13.3379V7.01787C2.18202 7.26286 2.71787 7.38279 3.25833 7.36665C3.7988 7.38279 4.33465 7.26286 4.81667 7.01787V10.6066C4.13213 10.7905 3.68333 11.1633 3.68333 11.6166ZM4.81667 6.23332C4.81667 6.45998 4.19532 6.79998 3.25833 6.79998C2.32135 6.79998 1.7 6.45998 1.7 6.23332C1.7 6.00665 2.32135 5.66665 3.25833 5.66665C4.19532 5.66665 4.81667 6.00665 4.81667 6.23332ZM4.95833 2.83332C4.02135 2.83332 3.4 2.49332 3.4 2.26665C3.4 2.03998 4.02135 1.69998 4.95833 1.69998C5.89532 1.69998 6.51667 2.03998 6.51667 2.26665C6.51667 2.49332 5.89532 2.83332 4.95833 2.83332ZM14.0817 2.54998C14.0817 3.01437 13.5788 3.39545 12.9483 3.39998C12.8429 3.39932 12.7378 3.38725 12.635 3.364C13.0462 2.92527 13.332 2.38414 13.4626 1.79717C13.8036 1.89765 14.0489 2.19595 14.0817 2.54998ZM8.17927 0.787649C8.41854 1.01186 8.7348 1.1356 9.0627 1.13332C9.3908 1.13578 9.7073 1.01202 9.9467 0.787649C10.0868 0.646249 10.2775 0.566697 10.4765 0.566697C10.6756 0.566697 10.8663 0.646249 11.0064 0.787649C11.2458 1.01219 11.5624 1.13597 11.8907 1.13332C12.2189 1.13585 12.5355 1.01209 12.7749 0.787649C12.8535 0.718254 12.9408 0.659566 13.0348 0.613116C13.0348 1.13927 12.937 2.44005 12.0241 3.1532C11.8187 3.30744 11.5698 3.39265 11.3129 3.39658C11.5582 2.9753 11.7523 2.52625 11.8912 2.05897C11.9183 1.96138 11.8914 1.85674 11.8204 1.78446C11.7495 1.71217 11.6454 1.68323 11.5473 1.70853C11.4492 1.73382 11.3721 1.80952 11.345 1.9071C11.188 2.4397 10.9468 2.94371 10.6304 3.39998H10.3391C10.0233 2.94331 9.78206 2.43941 9.62427 1.9071C9.58225 1.75633 9.42597 1.66817 9.2752 1.71018C9.12443 1.7522 9.03627 1.90848 9.07828 2.05925C9.21729 2.52694 9.41161 2.97637 9.65713 3.398C9.39517 3.39665 9.14062 3.31091 8.93123 3.15348C8.01833 2.44062 7.92058 1.13983 7.92058 0.615382C8.01448 0.660367 8.10156 0.71836 8.17927 0.787649Z" fill="black"/>
<path d="M15.3382 13.2184C15.6741 12.7566 15.856 12.2009 15.8585 11.63C15.8621 11.5549 15.8357 11.4815 15.7852 11.4259C15.7346 11.3702 15.6641 11.3369 15.589 11.3333C15.4334 11.3278 15.3018 11.4474 15.2923 11.6028C15.2945 12.0553 15.1551 12.4971 14.8937 12.8665C14.3409 13.5646 13.292 13.6 13.0872 13.6C12.9307 13.6 12.8038 13.7269 12.8038 13.8833C12.8038 14.0398 12.9307 14.1667 13.0872 14.1667C13.3376 14.1667 14.6231 14.1211 15.3382 13.2184Z" fill="black"/>
</g>
<defs>
<clipPath id="clip0_11_98">
<rect width="17" height="17" fill="white"/>
</clipPath>
</defs>
</svg>
