<svg width="18" height="18" viewBox="0 0 18 18" fill="none" xmlns="http://www.w3.org/2000/svg">
<g clip-path="url(#clip0_11_84)">
<path d="M8.625 15.1972H2.2125C2.17275 15.1972 2.1345 15.1807 2.10675 15.153C2.07825 15.1245 2.0625 15.087 2.0625 15.0472C2.0625 15.0465 2.0625 13.959 2.0625 13.959C2.0625 13.3365 2.50725 12.7875 3.19275 12.321C4.41675 11.4855 6.3975 10.959 8.625 10.959C8.9355 10.959 9.1875 10.707 9.1875 10.3965C9.1875 10.0867 8.9355 9.834 8.625 9.834C6.1335 9.834 3.92775 10.4572 2.55825 11.391C1.5135 12.1035 0.9375 13.0087 0.9375 13.959V15.0472C0.9375 15.3847 1.07175 15.7095 1.311 15.9487C1.55025 16.1872 1.87425 16.3222 2.2125 16.3222H8.625C8.9355 16.3215 9.1875 16.0695 9.1875 15.759C9.1875 15.4492 8.9355 15.1965 8.625 15.1972Z" fill="black"/>
<path d="M8.625 0.9375C6.348 0.9375 4.5 2.7855 4.5 5.0625C4.5 7.3395 6.348 9.1875 8.625 9.1875C10.902 9.1875 12.75 7.3395 12.75 5.0625C12.75 2.7855 10.902 0.9375 8.625 0.9375ZM8.625 2.0625C10.281 2.0625 11.625 3.4065 11.625 5.0625C11.625 6.7185 10.281 8.0625 8.625 8.0625C6.969 8.0625 5.625 6.7185 5.625 5.0625C5.625 3.4065 6.969 2.0625 8.625 2.0625Z" fill="black"/>
<path d="M13.125 10.4535C11.6505 10.4535 10.4535 11.6505 10.4535 13.125C10.4535 14.5995 11.6505 15.7973 13.125 15.7973C14.5995 15.7973 15.7972 14.5995 15.7972 13.125C15.7972 11.6505 14.5995 10.4535 13.125 10.4535ZM13.125 11.5785C13.9785 11.5785 14.6722 12.2715 14.6722 13.125C14.6722 13.9785 13.9785 14.6723 13.125 14.6723C12.2715 14.6723 11.5777 13.9785 11.5777 13.125C11.5777 12.2715 12.2715 11.5785 13.125 11.5785Z" fill="black"/>
<path d="M13.6875 11.0152V9.75C13.6875 9.4395 13.4355 9.1875 13.125 9.1875C12.8145 9.1875 12.5625 9.4395 12.5625 9.75V11.016C12.5625 11.3257 12.8145 11.5785 13.125 11.5785C13.4355 11.5777 13.6875 11.3257 13.6875 11.0152Z" fill="black"/>
<path d="M15.0143 12.0315L15.9091 11.136C16.1288 10.917 16.1288 10.56 15.9091 10.341C15.6901 10.1213 15.3331 10.1213 15.1141 10.341L14.2186 11.2358C13.9996 11.4555 13.9996 11.8118 14.2186 12.0315C14.4383 12.2505 14.7946 12.2505 15.0143 12.0315Z" fill="black"/>
<path d="M15.234 13.6875H16.5C16.8105 13.6875 17.0625 13.4355 17.0625 13.125C17.0625 12.8145 16.8105 12.5625 16.5 12.5625H15.234C14.9242 12.5625 14.6722 12.8145 14.6722 13.125C14.6715 13.4355 14.9242 13.6875 15.234 13.6875Z" fill="black"/>
<path d="M14.2186 15.0143L15.1141 15.909C15.3331 16.1288 15.6901 16.1288 15.9091 15.909C16.1288 15.69 16.1288 15.333 15.9091 15.114L15.0143 14.2185C14.7946 13.9995 14.4383 13.9995 14.2186 14.2185C13.9996 14.4383 13.9996 14.7945 14.2186 15.0143Z" fill="black"/>
<path d="M12.5625 15.234V16.5C12.5625 16.8105 12.8145 17.0625 13.125 17.0625C13.4355 17.0625 13.6875 16.8105 13.6875 16.5V15.234C13.6875 14.9242 13.4355 14.6722 13.125 14.6715C12.8145 14.6715 12.5625 14.9242 12.5625 15.234Z" fill="black"/>
<path d="M11.2357 14.2185L10.341 15.114C10.1212 15.333 10.1212 15.69 10.341 15.909C10.56 16.1288 10.917 16.1288 11.136 15.909L12.0315 15.0143C12.2505 14.7945 12.2505 14.4383 12.0315 14.2185C11.8117 13.9995 11.4555 13.9995 11.2357 14.2185Z" fill="black"/>
<path d="M11.0153 12.5625H9.75C9.4395 12.5625 9.1875 12.8145 9.1875 13.125C9.1875 13.4355 9.4395 13.6875 9.75 13.6875H11.0153C11.3258 13.6875 11.5785 13.4355 11.5778 13.125C11.5778 12.8145 11.3258 12.5625 11.0153 12.5625Z" fill="black"/>
<path d="M12.0315 11.2358L11.136 10.341C10.917 10.1213 10.56 10.1213 10.341 10.341C10.1212 10.56 10.1212 10.917 10.341 11.136L11.2357 12.0315C11.4555 12.2505 11.8117 12.2505 12.0315 12.0315C12.2505 11.8118 12.2505 11.4555 12.0315 11.2358Z" fill="black"/>
</g>
<defs>
<clipPath id="clip0_11_84">
<rect width="18" height="18" fill="white"/>
</clipPath>
</defs>
</svg>
