<svg width="17" height="17" viewBox="0 0 17 17" fill="none" xmlns="http://www.w3.org/2000/svg">
<g clip-path="url(#clip0_11_120)">
<path d="M16.502 12.8031H15.9331V10.6339C15.9331 10.3588 15.7101 10.1358 15.435 10.1358H13.7992V8.99805H15.435C15.7101 8.99805 15.9331 8.77505 15.9331 8.5V6.36613C15.9331 6.09108 15.7101 5.86809 15.435 5.86809H11.1673C10.8923 5.86809 10.6693 6.09108 10.6693 6.36613V8.5C10.6693 8.77505 10.8923 8.99805 11.1673 8.99805H12.8031V10.1358H9.53152V9.56695C9.53152 7.88694 8.54751 6.43247 7.12542 5.74942C7.93512 5.17554 8.46461 4.23114 8.46461 3.16539C8.46457 1.42 7.04461 0 5.29922 0C3.55383 0 2.13387 1.42 2.13387 3.16535C2.13387 4.23101 2.66326 5.1753 3.47281 5.74922C2.05096 6.43211 1.06695 7.88647 1.06695 9.56639V12.8031H0.498047C0.222992 12.8031 0 13.0261 0 13.3012V16.502C0 16.777 0.222992 17 0.498047 17H16.502C16.777 17 17 16.777 17 16.502V13.3012C17 13.0261 16.777 12.8031 16.502 12.8031ZM11.6654 6.86418H14.937V8.00195H11.6654V6.86418ZM14.937 12.8031H8.46457V11.1319H14.937V12.8031ZM5.29922 0.996094C6.49536 0.996094 7.46848 1.96924 7.46848 3.16535C7.46848 4.36146 6.49536 5.33461 5.29922 5.33461C4.10308 5.33461 3.12996 4.3615 3.12996 3.16535C3.12996 1.96921 4.10308 0.996094 5.29922 0.996094ZM2.06301 9.56639C2.06301 7.78225 3.51452 6.33071 5.29922 6.33071C7.08365 6.33071 8.53543 7.78248 8.53543 9.56692V10.1358H7.96653C7.69147 10.1358 7.46848 10.3588 7.46848 10.6338V12.8031H2.06301V9.56639ZM16.0039 16.0039H0.996094V13.7992H16.0039V16.0039Z" fill="black"/>
</g>
<defs>
<clipPath id="clip0_11_120">
<rect width="17" height="17" fill="white"/>
</clipPath>
</defs>
</svg>
