<svg width="17" height="17" viewBox="0 0 17 17" fill="none" xmlns="http://www.w3.org/2000/svg">
<path d="M2.302 7.4375V15.2292C2.302 15.5224 2.54 15.7604 2.83325 15.7604H14.1666C14.4598 15.7604 14.6978 15.5224 14.6978 15.2292V7.4375C14.6978 7.14425 14.4598 6.90625 14.1666 6.90625C13.8733 6.90625 13.6353 7.14425 13.6353 7.4375V14.6979H3.3645V7.4375C3.3645 7.14425 3.1265 6.90625 2.83325 6.90625C2.54 6.90625 2.302 7.14425 2.302 7.4375Z" fill="black"/>
<path d="M7.08333 10.0938C6.75467 10.0938 6.43946 10.2241 6.20712 10.4571C5.97408 10.6895 5.84375 11.0047 5.84375 11.3333V15.2292C5.84375 15.5224 6.08175 15.7604 6.375 15.7604H10.625C10.9183 15.7604 11.1562 15.5224 11.1562 15.2292V11.3333C11.1562 11.0047 11.0259 10.6895 10.7929 10.4571C10.5605 10.2241 10.2453 10.0938 9.91667 10.0938H7.08333ZM7.08333 11.1562H9.91667C9.96342 11.1562 10.0087 11.1747 10.042 11.208C10.0753 11.2412 10.0938 11.2866 10.0938 11.3333V14.6979H6.90625V11.3333C6.90625 11.2866 6.92467 11.2412 6.95796 11.208C6.99125 11.1747 7.03658 11.1562 7.08333 11.1562Z" fill="black"/>
<path d="M15.5833 14.6979H1.41663C1.12338 14.6979 0.885376 14.9359 0.885376 15.2292C0.885376 15.5224 1.12338 15.7604 1.41663 15.7604H15.5833C15.8765 15.7604 16.1145 15.5224 16.1145 15.2292C16.1145 14.9359 15.8765 14.6979 15.5833 14.6979Z" fill="black"/>
<path d="M12.8789 1.23958C11.2738 1.23958 5.72615 1.23958 4.12106 1.23958C3.65215 1.23958 3.2229 1.5045 3.01252 1.92454C2.58469 2.78092 1.57815 4.794 1.24523 5.54908C1.0724 5.90325 1.06602 6.31833 1.22752 6.681C1.23106 6.68879 1.23461 6.69658 1.23886 6.70437C1.61852 7.4545 2.39627 7.96875 3.29373 7.96875C3.98577 7.96875 4.60698 7.66275 5.02915 7.17825C5.45131 7.66275 6.07252 7.96875 6.76456 7.96875C7.45661 7.96875 8.07781 7.66275 8.49998 7.17825C8.92215 7.66275 9.54336 7.96875 10.2354 7.96875C10.9274 7.96875 11.5486 7.66275 11.9708 7.17825C12.393 7.66275 13.0142 7.96875 13.7062 7.96875C14.5902 7.96875 15.3609 7.46796 15.7824 6.749C15.7923 6.73271 15.8008 6.715 15.8093 6.69729C15.9779 6.31904 15.9679 5.88554 15.7824 5.51508L13.9874 1.92454C13.7771 1.5045 13.3478 1.23958 12.8789 1.23958ZM4.12106 2.30208H12.8789C12.9455 2.30208 13.0071 2.33962 13.0369 2.39983L14.8325 5.99108C14.8714 6.06829 14.8771 6.15754 14.8488 6.23829C14.6079 6.63 14.19 6.90625 13.7062 6.90625C13.107 6.90625 12.6062 6.48054 12.4914 5.91529C12.4411 5.66737 12.223 5.48958 11.9708 5.48958C11.7179 5.48958 11.5005 5.66737 11.4502 5.91529C11.3354 6.48054 10.8346 6.90625 10.2354 6.90625C9.63615 6.90625 9.13536 6.48054 9.02061 5.91529C8.97031 5.66737 8.75286 5.48958 8.49998 5.48958C8.24711 5.48958 8.02965 5.66737 7.97936 5.91529C7.86461 6.48054 7.36382 6.90625 6.76456 6.90625C6.16532 6.90625 5.66452 6.48054 5.54977 5.91529C5.49948 5.66737 5.28202 5.48958 5.02915 5.48958C4.77698 5.48958 4.55881 5.66737 4.50852 5.91529C4.39377 6.48054 3.89298 6.90625 3.29373 6.90625C2.81773 6.90625 2.40336 6.63637 2.19581 6.24183C2.16394 6.16321 2.16748 6.07962 2.2029 6.00879C2.20644 6.001 2.21069 5.99321 2.21423 5.98541C2.53936 5.24591 3.53882 3.24842 3.96311 2.39983C3.99286 2.33962 4.05448 2.30208 4.12106 2.30208Z" fill="black"/>
</svg>
