<svg width="17" height="17" viewBox="0 0 17 17" fill="none" xmlns="http://www.w3.org/2000/svg">
<path d="M2.302 7.4375V15.2292C2.302 15.5224 2.54 15.7604 2.83325 15.7604H14.1666C14.4598 15.7604 14.6978 15.5224 14.6978 15.2292V7.4375C14.6978 7.14425 14.4598 6.90625 14.1666 6.90625C13.8733 6.90625 13.6353 7.14425 13.6353 7.4375V14.6979H3.3645V7.4375C3.3645 7.14425 3.1265 6.90625 2.83325 6.90625C2.54 6.90625 2.302 7.14425 2.302 7.4375Z" fill="black"/>
<path d="M7.08333 10.0938C6.75467 10.0938 6.43946 10.2241 6.20712 10.4571C5.97408 10.6895 5.84375 11.0047 5.84375 11.3333V15.2292C5.84375 15.5224 6.08175 15.7604 6.375 15.7604H10.625C10.9183 15.7604 11.1562 15.5224 11.1562 15.2292V11.3333C11.1562 11.0047 11.0259 10.6895 10.7929 10.4571C10.5605 10.2241 10.2453 10.0938 9.91667 10.0938H7.08333ZM7.08333 11.1563H9.91667C9.96342 11.1563 10.0087 11.1747 10.042 11.208C10.0753 11.2413 10.0938 11.2866 10.0938 11.3333V14.6979H6.90625V11.3333C6.90625 11.2866 6.92467 11.2413 6.95796 11.208C6.99125 11.1747 7.03658 11.1563 7.08333 11.1563Z" fill="black"/>
<path d="M15.5833 14.6979H1.41663C1.12338 14.6979 0.885376 14.9359 0.885376 15.2292C0.885376 15.5224 1.12338 15.7604 1.41663 15.7604H15.5833C15.8765 15.7604 16.1145 15.5224 16.1145 15.2292C16.1145 14.9359 15.8765 14.6979 15.5833 14.6979Z" fill="black"/>
<path d="M12.8789 1.23959C11.2738 1.23959 5.72615 1.23959 4.12106 1.23959C3.65215 1.23959 3.2229 1.50451 3.01252 1.92455C2.58469 2.78093 1.57815 4.79401 1.24523 5.54909C1.0724 5.90326 1.06602 6.31834 1.22752 6.68101C1.23106 6.6888 1.23461 6.69659 1.23886 6.70439C1.61852 7.45451 2.39627 7.96876 3.29373 7.96876C3.98577 7.96876 4.60698 7.66276 5.02915 7.17826C5.45131 7.66276 6.07252 7.96876 6.76456 7.96876C7.45661 7.96876 8.07781 7.66276 8.49998 7.17826C8.92215 7.66276 9.54336 7.96876 10.2354 7.96876C10.9274 7.96876 11.5486 7.66276 11.9708 7.17826C12.393 7.66276 13.0142 7.96876 13.7062 7.96876C14.5902 7.96876 15.3609 7.46797 15.7824 6.74901C15.7923 6.73272 15.8008 6.71501 15.8093 6.6973C15.9779 6.31905 15.9679 5.88555 15.7824 5.51509L13.9874 1.92455C13.7771 1.50451 13.3478 1.23959 12.8789 1.23959ZM4.12106 2.30209H12.8789C12.9455 2.30209 13.0071 2.33964 13.0369 2.39984L14.8325 5.99109C14.8714 6.0683 14.8771 6.15755 14.8488 6.2383C14.6079 6.63001 14.19 6.90626 13.7062 6.90626C13.107 6.90626 12.6062 6.48055 12.4914 5.9153C12.4411 5.66739 12.223 5.48959 11.9708 5.48959C11.7179 5.48959 11.5005 5.66739 11.4502 5.9153C11.3354 6.48055 10.8346 6.90626 10.2354 6.90626C9.63615 6.90626 9.13536 6.48055 9.02061 5.9153C8.97031 5.66739 8.75286 5.48959 8.49998 5.48959C8.24711 5.48959 8.02965 5.66739 7.97936 5.9153C7.86461 6.48055 7.36382 6.90626 6.76456 6.90626C6.16532 6.90626 5.66452 6.48055 5.54977 5.9153C5.49948 5.66739 5.28202 5.48959 5.02915 5.48959C4.77698 5.48959 4.55881 5.66739 4.50852 5.9153C4.39377 6.48055 3.89298 6.90626 3.29373 6.90626C2.81773 6.90626 2.40336 6.63639 2.19581 6.24184C2.16394 6.16322 2.16748 6.07964 2.2029 6.0088C2.20644 6.00101 2.21069 5.99322 2.21423 5.98543C2.53936 5.24593 3.53882 3.24843 3.96311 2.39984C3.99286 2.33964 4.05448 2.30209 4.12106 2.30209Z" fill="black"/>
</svg>
