<svg width="18" height="18" viewBox="0 0 18 18" fill="none" xmlns="http://www.w3.org/2000/svg">
<g clip-path="url(#clip0_11_106)">
<path d="M17.0198 9.63021V6.40939L15.0728 5.94585C14.985 5.68886 14.8805 5.43703 14.7604 5.19266L15.8096 3.48769L13.5321 1.21021L11.8271 2.25945C11.5828 2.13929 11.331 2.03482 11.074 1.94699L10.6104 0H7.38965L6.92607 1.94699C6.66908 2.03482 6.41726 2.13929 6.17292 2.25945L4.46795 1.21021L2.19043 3.48769L3.23963 5.19266C3.11948 5.43703 3.01501 5.68886 2.92718 5.94585L0.980225 6.40935V9.63018L2.92722 10.0938C3.01504 10.3507 3.11952 10.6026 3.23967 10.8469L2.18551 12.5599L3.76466 14.0725C3.59735 14.5739 3.51092 15.1013 3.51092 15.6366V18H14.5604V15.6366C14.5604 15.1195 14.4794 14.61 14.3231 14.124L15.8019 12.5393L14.7604 10.847C14.8806 10.6026 14.985 10.3508 15.0729 10.0938L17.0198 9.63021ZM13.4911 16.9307H4.58022V15.6366C4.58022 14.895 4.79152 14.1728 5.1913 13.5482C5.90695 12.4299 7.12681 11.7624 8.45443 11.7624H9.61691C10.9445 11.7624 12.1644 12.4299 12.88 13.5482C13.2798 14.1728 13.4911 14.895 13.4911 15.6366V16.9307ZM9.03567 10.6485C7.6722 10.6485 6.5629 9.53922 6.5629 8.17574C6.5629 6.81227 7.6722 5.70297 9.03567 5.70297C10.3991 5.70297 11.5084 6.81227 11.5084 8.17574C11.5084 9.53922 10.3991 10.6485 9.03567 10.6485ZM14.464 12.4056L13.8423 13.0719C13.822 13.0384 13.8019 13.0048 13.7807 12.9718C13.1674 12.0136 12.2638 11.3153 11.2235 10.9595C12.0476 10.3104 12.5777 9.30383 12.5777 8.17574C12.5777 6.22265 10.9887 4.63366 9.03563 4.63366C7.08254 4.63366 5.49355 6.22265 5.49355 8.17574C5.49355 9.30383 6.02365 10.3104 6.8478 10.9595C5.80747 11.3152 4.90383 12.0136 4.29058 12.9718C4.27412 12.9975 4.25861 13.0237 4.24264 13.0497L3.54866 12.385L4.47322 10.8826L3.7739 9.19622L2.04953 8.7856V7.25396L3.77393 6.84339L4.47326 5.15702L3.54375 3.64659L4.62677 2.56356L6.13724 3.49307L7.82361 2.79374L8.23422 1.06931H9.76586L10.1764 2.79371L11.8628 3.49307L13.3732 2.56356L14.4563 3.64659L13.5268 5.15702L14.2261 6.84339L15.9505 7.25396V8.7856L14.2261 9.19618L13.5268 10.8826L14.464 12.4056Z" fill="black"/>
</g>
<defs>
<clipPath id="clip0_11_106">
<rect width="18" height="18" fill="white"/>
</clipPath>
</defs>
</svg>
