<svg width="18" height="18" viewBox="0 0 18 18" fill="none" xmlns="http://www.w3.org/2000/svg">
<path d="M15.75 6.42375C15.7521 6.40757 15.7521 6.39118 15.75 6.375C15.75 3.27375 13.08 0.75 9.79875 0.75H8.205C4.92 0.75 2.25 3.27375 2.25 6.375C2.24788 6.39118 2.24788 6.40757 2.25 6.42375C1.9282 6.50684 1.64311 6.69445 1.43949 6.95712C1.23587 7.21979 1.12525 7.54265 1.125 7.875V9.75C1.125 10.1478 1.28304 10.5294 1.56434 10.8107C1.84564 11.092 2.22718 11.25 2.625 11.25H3.375C3.375 12.6424 3.92812 13.9777 4.91269 14.9623C5.89726 15.9469 7.23261 16.5 8.625 16.5H9.375C11.8538 16.5 13.8112 14.82 14.2275 13.2525C14.6767 13.0594 15.071 12.7579 15.375 12.375C15.6401 12.0324 15.7851 11.612 15.7875 11.1788C16.0986 11.0898 16.3726 10.9026 16.5686 10.6451C16.7646 10.3876 16.8721 10.0736 16.875 9.75V7.875C16.8748 7.54265 16.7641 7.21979 16.5605 6.95712C16.3569 6.69445 16.0718 6.50684 15.75 6.42375ZM8.205 1.5H9.79875C12.6675 1.5 15 3.68625 15 6.375H14.5575C14.3804 5.3272 13.8382 4.37589 13.0269 3.68954C12.2156 3.00318 11.1877 2.62608 10.125 2.625H7.875C6.81234 2.62608 5.78435 3.00318 4.97308 3.68954C4.16181 4.37589 3.61961 5.3272 3.4425 6.375H3C3 3.68625 5.3325 1.5 8.205 1.5ZM13.875 7.125H9.0375C8.58617 7.12262 8.14947 6.96464 7.80106 6.67773C7.45266 6.39081 7.21388 5.9925 7.125 5.55C7.12008 5.50075 7.1055 5.45296 7.0821 5.40935C7.05871 5.36574 7.02695 5.32716 6.98865 5.29582C6.95034 5.26448 6.90624 5.24099 6.85886 5.22669C6.81148 5.2124 6.76175 5.20758 6.7125 5.2125C6.66325 5.21742 6.61546 5.232 6.57185 5.2554C6.52824 5.27879 6.48966 5.31055 6.45832 5.34885C6.42698 5.38716 6.40349 5.43126 6.38919 5.47864C6.3749 5.52602 6.37008 5.57575 6.375 5.625C6.375 5.82391 6.29598 6.01468 6.15533 6.15533C6.01468 6.29598 5.82391 6.375 5.625 6.375H4.2C4.3729 5.52798 4.83314 4.7667 5.50282 4.22002C6.17251 3.67334 7.01051 3.37482 7.875 3.375H10.125C11.1196 3.375 12.0734 3.77009 12.7767 4.47335C13.4799 5.17661 13.875 6.13044 13.875 7.125ZM2.625 10.5C2.42609 10.5 2.23532 10.421 2.09467 10.2803C1.95402 10.1397 1.875 9.94891 1.875 9.75V7.875C1.875 7.67609 1.95402 7.48532 2.09467 7.34467C2.23532 7.20402 2.42609 7.125 2.625 7.125H3.375V10.5H2.625ZM10.8038 13.125C10.7266 12.9068 10.584 12.7176 10.3954 12.5834C10.2069 12.4492 9.98146 12.3764 9.75 12.375H8.25C7.95163 12.375 7.66548 12.4935 7.4545 12.7045C7.24353 12.9155 7.125 13.2016 7.125 13.5C7.125 13.7984 7.24353 14.0845 7.4545 14.2955C7.66548 14.5065 7.95163 14.625 8.25 14.625H9.75C9.9821 14.6243 10.2083 14.5519 10.3976 14.4176C10.587 14.2834 10.7301 14.0938 10.8075 13.875C11.6474 13.8729 12.4842 13.7735 13.3013 13.5787C12.7163 14.7 11.22 15.75 9.375 15.75H8.625C7.43153 15.75 6.28693 15.2759 5.44302 14.432C4.59911 13.5881 4.125 12.4435 4.125 11.25V7.125H5.625C5.83798 7.12473 6.04846 7.07911 6.24243 6.99117C6.43641 6.90324 6.60944 6.775 6.75 6.615C6.99488 7.00015 7.33278 7.31744 7.73255 7.53765C8.13232 7.75785 8.5811 7.87386 9.0375 7.875H13.875V10.875C13.875 10.9745 13.9145 11.0698 13.9848 11.1402C14.0552 11.2105 14.1505 11.25 14.25 11.25H15.03C15.0132 11.4981 14.9231 11.7356 14.7712 11.9325C14.3737 12.4575 13.3612 13.0725 10.8038 13.125ZM10.125 13.5C10.125 13.5995 10.0855 13.6948 10.0152 13.7652C9.94484 13.8355 9.84946 13.875 9.75 13.875H8.25C8.15054 13.875 8.05516 13.8355 7.98483 13.7652C7.91451 13.6948 7.875 13.5995 7.875 13.5C7.875 13.4005 7.91451 13.3052 7.98483 13.2348C8.05516 13.1645 8.15054 13.125 8.25 13.125H9.75C9.84946 13.125 9.94484 13.1645 10.0152 13.2348C10.0855 13.3052 10.125 13.4005 10.125 13.5ZM16.125 9.75C16.125 9.94891 16.046 10.1397 15.9053 10.2803C15.7647 10.421 15.5739 10.5 15.375 10.5H14.625V7.125H15.375C15.5739 7.125 15.7647 7.20402 15.9053 7.34467C16.046 7.48532 16.125 7.67609 16.125 7.875V9.75Z" fill="black"/>
</svg>
