<svg width="19" height="19" viewBox="0 0 19 19" fill="none" xmlns="http://www.w3.org/2000/svg">
<path d="M12.6666 16.625V15.0417C12.6666 14.2018 12.333 13.3964 11.7391 12.8025C11.1453 12.2086 10.3398 11.875 9.49996 11.875H3.95829C3.11844 11.875 2.31299 12.2086 1.71912 12.8025C1.12526 13.3964 0.791626 14.2018 0.791626 15.0417V16.625" stroke="black" stroke-linecap="round" stroke-linejoin="round"/>
<path d="M6.72917 8.70833C8.47807 8.70833 9.89583 7.29057 9.89583 5.54167C9.89583 3.79276 8.47807 2.375 6.72917 2.375C4.98026 2.375 3.5625 3.79276 3.5625 5.54167C3.5625 7.29057 4.98026 8.70833 6.72917 8.70833Z" stroke="black" stroke-linecap="round" stroke-linejoin="round"/>
<path d="M13.4584 8.70833L15.0417 10.2917L18.2084 7.125" stroke="black" stroke-linecap="round" stroke-linejoin="round"/>
</svg>
