<svg width="16" height="16" viewBox="0 0 16 16" fill="none" xmlns="http://www.w3.org/2000/svg">
<path d="M15.5238 11.0055C15.7703 10.9921 15.9663 10.7882 15.9663 10.5381C15.9663 9.18919 14.8836 8.13256 13.5013 8.13256H13.0446L12.4862 5.4825C13.025 5.24844 13.4029 4.71087 13.4029 4.08641C13.4029 3.24759 12.7213 2.56516 11.8835 2.56516H9.72362C9.46506 2.56516 9.25544 2.77503 9.25544 3.03391V3.61766H8.10456C7.846 3.61766 7.63637 3.82753 7.63637 4.08641C7.63637 4.34528 7.846 4.55516 8.10456 4.55516H9.25544V5.13891C9.25544 5.39778 9.46506 5.60766 9.72362 5.60766H9.9315C9.54387 6.06606 9.30941 6.65822 9.30941 7.3045V9.97197C9.30941 9.98566 9.29831 9.99675 9.28466 9.99675H7.39341C7.3825 9.99675 7.37275 9.98947 7.36966 9.979L6.85981 8.25394C7.27072 8.14403 7.57434 7.76825 7.57434 7.32265C7.57434 6.26462 6.71462 5.40387 5.65791 5.40387H1.43956C0.645813 5.40384 0 6.05044 0 6.84519C0 7.57175 0.539781 8.17412 1.23887 8.27225C0.49725 8.93644 0.0295937 9.90131 0.0295937 10.9736V12.433C0.0295937 12.6918 0.239219 12.9017 0.497781 12.9017H0.902875C1.12094 13.9905 2.08306 14.8133 3.23372 14.8133C4.38437 14.8133 5.3465 13.9905 5.56456 12.9017H11.2917C11.5098 13.9905 12.4719 14.8133 13.6226 14.8133C14.9335 14.8133 16 13.7455 16 12.433C16 11.8978 15.8226 11.4035 15.5238 11.0055ZM14.9533 10.0693H13.8993C13.8085 10.0587 13.7162 10.0527 13.6226 10.0527C13.4548 10.0527 13.2911 10.0704 13.1331 10.1037V9.07006H13.5014C14.1871 9.07006 14.754 9.48278 14.9533 10.0693ZM10.1918 3.50262H11.8835C12.205 3.50262 12.4665 3.7645 12.4665 4.08637C12.4665 4.40825 12.205 4.67012 11.8835 4.67012H10.1918V3.50262ZM7.39344 10.9342H9.28469C9.81466 10.9342 10.2458 10.5026 10.2458 9.97194V7.30447C10.2458 6.49878 10.811 5.82272 11.5652 5.65294L12.1967 8.65012V10.5296C11.7385 10.8746 11.4086 11.3812 11.2918 11.9642H6.63709C6.41844 10.2824 5.02962 9.02409 3.29619 9.02409C2.52322 9.02409 1.82928 9.27659 1.28178 9.71066C1.73403 8.86403 2.62566 8.28656 3.64978 8.28656H5.89309L6.47191 10.245C6.59178 10.6508 6.97075 10.9342 7.39344 10.9342ZM1.004 11.9642C1.08581 11.4655 1.29884 11.0157 1.62462 10.6671C2.04984 10.2121 2.64347 9.96156 3.29612 9.96156C4.50369 9.96156 5.47922 10.8102 5.68866 11.9642H1.004V11.9642ZM1.43956 7.34906C1.16209 7.34906 0.936344 7.12303 0.936344 6.84519C0.936344 6.56734 1.16209 6.34131 1.43956 6.34131H5.65791C6.19834 6.34131 6.638 6.7815 6.638 7.32259C6.634 7.34187 6.60312 7.35462 6.54566 7.349C6.15616 7.349 6.2675 7.349 6.18637 7.349C5.62697 7.34906 1.44228 7.34906 1.43956 7.34906ZM3.23372 13.8757C2.603 13.8757 2.066 13.4678 1.87119 12.9017H4.59625C4.40144 13.4678 3.86444 13.8757 3.23372 13.8757ZM13.6226 13.8757C12.828 13.8757 12.1816 13.2285 12.1816 12.4329C12.1816 11.6374 12.8281 10.9902 13.6226 10.9902C14.4172 10.9902 15.0637 11.6374 15.0637 12.4329C15.0637 13.2285 14.4172 13.8757 13.6226 13.8757Z" fill="black"/>
<path d="M13.6226 12.9048C13.8829 12.9048 14.0939 12.6936 14.0939 12.433C14.0939 12.1724 13.8829 11.9611 13.6226 11.9611C13.3624 11.9611 13.1514 12.1724 13.1514 12.433C13.1514 12.6936 13.3624 12.9048 13.6226 12.9048Z" fill="black"/>
<path d="M0.487841 4.04509H4.68684C4.9454 4.04509 5.15503 3.83521 5.15503 3.57634C5.15503 3.31746 4.9454 3.10759 4.68684 3.10759H0.487841C0.229278 3.10759 0.0196533 3.31746 0.0196533 3.57634C0.0196533 3.83521 0.229278 4.04509 0.487841 4.04509Z" fill="black"/>
<path d="M2.04314 2.12425H6.27833C6.53689 2.12425 6.74651 1.91438 6.74651 1.6555C6.74651 1.39663 6.53689 1.18675 6.27833 1.18675H2.04314C1.78458 1.18675 1.57495 1.39663 1.57495 1.6555C1.57495 1.91438 1.78458 2.12425 2.04314 2.12425Z" fill="black"/>
</svg>
