<svg width="23" height="23" viewBox="0 0 23 23" fill="none" xmlns="http://www.w3.org/2000/svg">
<path d="M11.7027 17.047C11.5187 17.047 11.335 16.9769 11.1945 16.8364C10.9138 16.5557 10.9138 16.1007 11.1945 15.82L16.0231 10.9918C16.3037 10.7112 16.7587 10.7112 17.0394 10.9918C17.3201 11.2725 17.3201 11.7275 17.0394 12.0082L12.2112 16.8364C12.0707 16.9765 11.8867 17.047 11.7027 17.047Z" fill="#35498E"/>
<path d="M16.5312 12.2187C16.3472 12.2187 16.1636 12.1487 16.0231 12.0081L11.1945 7.17994C10.9138 6.89927 10.9138 6.4443 11.1945 6.16363C11.4752 5.88296 11.9302 5.88296 12.2108 6.16363L17.0394 10.9918C17.3201 11.2725 17.3201 11.7275 17.0394 12.0081C16.8989 12.1483 16.7152 12.2187 16.5312 12.2187Z" fill="#35498E"/>
<path d="M16.5312 12.2188H2.875C2.47825 12.2188 2.15625 11.8967 2.15625 11.5C2.15625 11.1032 2.47825 10.7812 2.875 10.7812H16.5312C16.928 10.7812 17.25 11.1032 17.25 11.5C17.25 11.8967 16.928 12.2188 16.5312 12.2188Z" fill="#35498E"/>
<path d="M20.125 4.3125C19.7283 4.3125 19.4062 3.9905 19.4062 3.59375V3.59267C19.0095 3.59267 18.6875 3.27139 18.6875 2.87428C18.6875 2.47717 19.0095 2.15625 19.4062 2.15625C20.199 2.15625 20.8438 2.80097 20.8438 3.59375C20.8438 3.9905 20.5217 4.3125 20.125 4.3125Z" fill="#35498E"/>
<path d="M19.4062 3.59375H14.375C13.9782 3.59375 13.6562 3.27175 13.6562 2.875C13.6562 2.47825 13.9782 2.15625 14.375 2.15625H19.4062C19.803 2.15625 20.125 2.47825 20.125 2.875C20.125 3.27175 19.803 3.59375 19.4062 3.59375Z" fill="#35498E"/>
<path d="M20.125 20.125C19.7282 20.125 19.4062 19.803 19.4062 19.4062V3.59375C19.4062 3.197 19.7282 2.875 20.125 2.875C20.5217 2.875 20.8438 3.197 20.8438 3.59375V19.4062C20.8438 19.803 20.5217 20.125 20.125 20.125Z" fill="#35498E"/>
<path d="M19.4062 20.8438C19.0095 20.8438 18.6875 20.5217 18.6875 20.125C18.6875 19.7283 19.0095 19.4062 19.4062 19.4062H19.407C19.407 19.0095 19.7286 18.6875 20.1254 18.6875C20.5221 18.6875 20.8438 19.0091 20.8438 19.4062C20.8438 20.1987 20.199 20.8438 19.4062 20.8438Z" fill="#35498E"/>
<path d="M19.4062 20.8438H14.375C13.9782 20.8438 13.6562 20.5217 13.6562 20.125C13.6562 19.7282 13.9782 19.4062 14.375 19.4062H19.4062C19.803 19.4062 20.125 19.7282 20.125 20.125C20.125 20.5217 19.803 20.8438 19.4062 20.8438Z" fill="#35498E"/>
</svg>
