<svg width="24" height="24" viewBox="0 0 24 24" fill="none" xmlns="http://www.w3.org/2000/svg">
<g clip-path="url(#clip0_11_126)" filter="url(#filter0_d_11_126)">
<path d="M7.82471 5.18063H15.4769C15.8047 5.18063 16.0706 4.91469 16.0706 4.58688C16.0706 4.25906 15.8047 3.99313 15.4769 3.99313H7.82471C7.49689 3.99313 7.23096 4.25906 7.23096 4.58688C7.23096 4.91469 7.49689 5.18063 7.82471 5.18063Z" fill="black"/>
<path d="M12.96 8.28812C12.96 7.96031 12.6941 7.69437 12.3663 7.69437H7.82471C7.49689 7.69437 7.23096 7.96031 7.23096 8.28812C7.23096 8.61594 7.49689 8.88187 7.82471 8.88187H12.3663C12.6941 8.88187 12.96 8.61594 12.96 8.28812Z" fill="black"/>
<path d="M19.2072 10.1159C19.2709 9.41813 19.3138 8.605 19.3147 7.65719C19.3128 5.87375 19.1631 4.56781 19.0034 3.60812C18.7241 2.02688 17.2878 0.590625 15.7066 0.31125C14.7469 0.151562 13.4409 0.001875 11.6572 0C9.87375 0.001875 8.5675 0.151562 7.60781 0.31125C6.02688 0.590625 4.59062 2.02688 4.31125 3.60812C4.15156 4.56781 4.00219 5.87375 4 7.65719C4.00219 9.44063 4.15156 10.7469 4.31125 11.7066C4.59062 13.2878 6.02688 14.7241 7.60812 15.0034C8.56781 15.1631 9.87375 15.3125 11.6575 15.3147C12.605 15.3138 13.4181 15.2709 14.1156 15.2072C14.7356 15.7031 15.5219 16 16.3775 16C18.3781 16 20.0003 14.3781 20.0003 12.3775C20.0003 11.5219 19.7034 10.7356 19.2075 10.1159H19.2072ZM11.6575 14.1272C10.2506 14.1256 8.99188 14.0294 7.80969 13.8331C7.28438 13.7391 6.75219 13.4444 6.31125 13.0034C5.87031 12.5625 5.57594 12.0306 5.48156 11.505C5.28531 10.3241 5.18938 9.06531 5.1875 7.65719C5.18906 6.24969 5.28531 4.99094 5.48156 3.80938C5.57562 3.28406 5.87031 2.75219 6.31125 2.31125C6.75219 1.87031 7.28406 1.57594 7.80969 1.48156C8.99125 1.28531 10.25 1.18938 11.6575 1.1875C13.0644 1.18906 14.3231 1.28531 15.5053 1.48156C16.0306 1.57562 16.5625 1.87031 17.0037 2.31125C17.4447 2.75219 17.7391 3.28406 17.8334 3.80969C18.0297 4.99188 18.1256 6.25031 18.1275 7.6575C18.1269 8.18563 18.1125 8.69219 18.085 9.18219C17.5763 8.90969 16.995 8.75531 16.3775 8.75531C14.3769 8.75531 12.7547 10.3772 12.7547 12.3778C12.7547 12.9953 12.9094 13.5763 13.1816 14.085C12.6916 14.1125 12.185 14.1269 11.6572 14.1272H11.6575ZM16.3775 14.8125C15.0347 14.8125 13.9422 13.7203 13.9422 12.3775C13.9422 11.0347 15.0347 9.9425 16.3775 9.9425C17.7203 9.9425 18.8128 11.0347 18.8128 12.3775C18.8128 13.7203 17.7203 14.8125 16.3775 14.8125Z" fill="black"/>
<path d="M16.6962 13.07C16.6206 13.0575 16.5178 13.0456 16.3775 13.0456C16.2372 13.0456 16.1343 13.0575 16.0587 13.07C15.9343 13.0919 15.8212 13.205 15.799 13.3297C15.7865 13.4053 15.7747 13.5081 15.7747 13.6484C15.7747 13.7887 15.7865 13.8916 15.799 13.9672C15.8209 14.0916 15.934 14.2047 16.0587 14.2269C16.1343 14.2394 16.2372 14.2512 16.3775 14.2512C16.5178 14.2512 16.6206 14.2394 16.6962 14.2269C16.8206 14.205 16.9337 14.0919 16.9559 13.9672C16.9684 13.8916 16.9803 13.7887 16.9803 13.6484C16.9803 13.5081 16.9684 13.4053 16.9559 13.3297C16.934 13.2053 16.8209 13.0922 16.6962 13.07Z" fill="black"/>
<path d="M16.3772 12.6759C16.705 12.6759 16.9709 12.41 16.9709 12.0822V11.0916C16.9709 10.7637 16.705 10.4978 16.3772 10.4978C16.0494 10.4978 15.7834 10.7637 15.7834 11.0916V12.0822C15.7834 12.41 16.0494 12.6759 16.3772 12.6759Z" fill="black"/>
</g>
<defs>
<filter id="filter0_d_11_126" x="0" y="0" width="24" height="24" filterUnits="userSpaceOnUse" color-interpolation-filters="sRGB">
<feFlood flood-opacity="0" result="BackgroundImageFix"/>
<feColorMatrix in="SourceAlpha" type="matrix" values="0 0 0 0 0 0 0 0 0 0 0 0 0 0 0 0 0 0 127 0" result="hardAlpha"/>
<feOffset dy="4"/>
<feGaussianBlur stdDeviation="2"/>
<feComposite in2="hardAlpha" operator="out"/>
<feColorMatrix type="matrix" values="0 0 0 0 0 0 0 0 0 0 0 0 0 0 0 0 0 0 0.25 0"/>
<feBlend mode="normal" in2="BackgroundImageFix" result="effect1_dropShadow_11_126"/>
<feBlend mode="normal" in="SourceGraphic" in2="effect1_dropShadow_11_126" result="shape"/>
</filter>
<clipPath id="clip0_11_126">
<rect width="16" height="16" fill="white" transform="translate(4)"/>
</clipPath>
</defs>
</svg>
