<svg width="323" height="240" viewBox="0 0 323 240" fill="none" xmlns="http://www.w3.org/2000/svg">
<g clip-path="url(#clip0_18_614)">
<path d="M290.635 221.603H269.24V221.764H290.635V221.603Z" fill="#EBEBEB"/>
<path d="M213.968 223.358H208.354V223.519H213.968V223.358Z" fill="#EBEBEB"/>
<path d="M268.594 215.617H256.197V215.778H268.594V215.617Z" fill="#EBEBEB"/>
<path d="M61.7899 216.701H33.8892V216.862H61.7899V216.701Z" fill="#EBEBEB"/>
<path d="M71.6349 216.701H67.5457V216.862H71.6349V216.701Z" fill="#EBEBEB"/>
<path d="M145.447 219.423H84.9296V219.584H145.447V219.423Z" fill="#EBEBEB"/>
<path d="M154.006 182.454H29.2638C28.2855 182.454 27.3473 182.066 26.6555 181.376C25.9638 180.685 25.5751 179.748 25.5751 178.771V3.68328C25.5837 2.71202 25.976 1.78342 26.6669 1.09964C27.3577 0.415848 28.2911 0.0322198 29.2638 0.0322571H154.006C154.491 0.0322571 154.97 0.127527 155.418 0.312629C155.866 0.497731 156.272 0.76904 156.615 1.11106C156.957 1.45309 157.229 1.85913 157.414 2.30601C157.6 2.75288 157.695 3.23184 157.695 3.71553V178.771C157.695 179.255 157.6 179.734 157.414 180.181C157.229 180.628 156.957 181.034 156.615 181.376C156.272 181.718 155.866 181.989 155.418 182.174C154.97 182.359 154.491 182.454 154.006 182.454ZM29.2638 0.161269C28.3289 0.162974 27.4327 0.534589 26.7716 1.19473C26.1105 1.85486 25.7383 2.74971 25.7366 3.68328V178.771C25.7383 179.705 26.1105 180.6 26.7716 181.26C27.4327 181.92 28.3289 182.291 29.2638 182.293H154.006C154.941 182.291 155.837 181.92 156.499 181.26C157.16 180.6 157.532 179.705 157.534 178.771V3.68328C157.532 2.74971 157.16 1.85486 156.499 1.19473C155.837 0.534589 154.941 0.162974 154.006 0.161269H29.2638Z" fill="#EBEBEB"/>
<path d="M293.736 182.454H168.994C168.015 182.454 167.077 182.066 166.385 181.376C165.694 180.685 165.305 179.748 165.305 178.771V3.68328C165.313 2.71202 165.706 1.78342 166.397 1.09964C167.088 0.415848 168.021 0.0322198 168.994 0.0322571H293.736C294.714 0.0322571 295.653 0.420316 296.344 1.11106C297.036 1.80181 297.425 2.73867 297.425 3.71553V178.771C297.425 179.748 297.036 180.685 296.344 181.376C295.653 182.066 294.714 182.454 293.736 182.454ZM168.994 0.161269C168.059 0.162974 167.163 0.534589 166.501 1.19473C165.84 1.85486 165.468 2.74971 165.466 3.68328V178.771C165.468 179.705 165.84 180.6 166.501 181.26C167.163 181.92 168.059 182.291 168.994 182.293H293.736C294.671 182.291 295.567 181.92 296.228 181.26C296.889 180.6 297.262 179.705 297.263 178.771V3.68328C297.262 2.74971 296.889 1.85486 296.228 1.19473C295.567 0.534589 294.671 0.162974 293.736 0.161269H168.994Z" fill="#EBEBEB"/>
<path d="M323 211.224H0V211.385H323V211.224Z" fill="#EBEBEB"/>
<path d="M77.0872 167.586C76.5445 161.355 70.175 159.026 62.6232 159.684C55.0715 160.342 49.2123 163.741 49.742 169.973L77.0872 167.586Z" fill="#F0F0F0"/>
<path d="M62.3778 156.839C65.8791 156.53 66.9967 153.575 66.693 150.079C66.3894 146.583 64.755 143.867 61.2666 144.17C57.7782 144.473 56.6478 147.434 56.9514 150.931C57.255 154.427 58.8764 157.142 62.3778 156.839Z" fill="#F0F0F0"/>
<path d="M219.705 34.8654C219.766 35.5569 219.62 36.2511 219.286 36.8601C218.953 37.469 218.445 37.9654 217.829 38.2863C217.212 38.6073 216.514 38.7384 215.823 38.6631C215.132 38.5878 214.478 38.3095 213.946 37.8633C213.413 37.4172 213.025 36.8233 212.83 36.1568C212.636 35.4902 212.643 34.7811 212.853 34.119C213.062 33.4569 213.463 32.8716 214.005 32.4372C214.548 32.0029 215.207 31.7389 215.9 31.6788C216.827 31.5982 217.749 31.8886 218.462 32.486C219.176 33.0835 219.623 33.9392 219.705 34.8654Z" fill="#F5F5F5"/>
<path d="M239.13 33.1495C239.19 33.8396 239.044 34.5321 238.709 35.1392C238.375 35.7463 237.868 36.2409 237.253 36.5603C236.637 36.8798 235.941 37.0099 235.251 36.934C234.562 36.8582 233.91 36.5798 233.379 36.1342C232.848 35.6886 232.461 35.0957 232.267 34.4306C232.073 33.7654 232.081 33.0578 232.29 32.3972C232.499 31.7367 232.9 31.1528 233.441 30.7195C233.982 30.2862 234.64 30.0229 235.331 29.9629C236.258 29.8842 237.178 30.1754 237.89 30.7726C238.602 31.3699 239.048 32.2246 239.13 33.1495Z" fill="#F5F5F5"/>
<path d="M258.561 31.453C258.623 32.1446 258.477 32.8387 258.143 33.4477C257.809 34.0566 257.302 34.553 256.686 34.874C256.069 35.1949 255.371 35.3261 254.68 35.2508C253.989 35.1755 253.335 34.8971 252.803 34.451C252.27 34.0048 251.882 33.4109 251.687 32.7444C251.493 32.0779 251.5 31.3687 251.71 30.7066C251.919 30.0445 252.32 29.4592 252.862 29.0249C253.405 28.5905 254.064 28.3265 254.757 28.2664C255.684 28.1859 256.606 28.4762 257.319 29.0737C258.033 29.6712 258.479 30.5269 258.561 31.453Z" fill="#F5F5F5"/>
<path d="M221.436 54.617C221.497 55.3086 221.352 56.0027 221.018 56.6117C220.684 57.2206 220.176 57.717 219.56 58.038C218.943 58.3589 218.245 58.49 217.554 58.4147C216.863 58.3395 216.21 58.0611 215.677 57.615C215.144 57.1688 214.756 56.5749 214.562 55.9084C214.367 55.2419 214.375 54.5327 214.584 53.8706C214.793 53.2085 215.194 52.6232 215.737 52.1889C216.279 51.7545 216.938 51.4905 217.631 51.4304C218.559 51.3499 219.48 51.6402 220.194 52.2377C220.907 52.8351 221.354 53.6909 221.436 54.617Z" fill="#F5F5F5"/>
<path d="M240.861 52.927C240.921 53.6171 240.775 54.3095 240.441 54.9166C240.107 55.5238 239.6 56.0183 238.984 56.3378C238.369 56.6573 237.672 56.7873 236.982 56.7115C236.293 56.6356 235.641 56.3573 235.11 55.9117C234.579 55.4661 234.192 54.8732 233.998 54.208C233.804 53.5428 233.813 52.8352 234.022 52.1747C234.231 51.5141 234.631 50.9303 235.172 50.497C235.714 50.0637 236.371 49.8004 237.063 49.7404C237.522 49.7005 237.984 49.7513 238.423 49.8899C238.862 50.0285 239.27 50.2521 239.623 50.548C239.976 50.8439 240.266 51.2063 240.479 51.6145C240.691 52.0227 240.821 52.4687 240.861 52.927Z" fill="#F5F5F5"/>
<path d="M260.293 51.224C260.354 51.9156 260.209 52.6097 259.875 53.2187C259.541 53.8276 259.033 54.324 258.417 54.645C257.8 54.9659 257.102 55.097 256.411 55.0217C255.72 54.9465 255.067 54.6681 254.534 54.222C254.001 53.7758 253.613 53.1819 253.418 52.5154C253.224 51.8489 253.232 51.1397 253.441 50.4776C253.65 49.8155 254.051 49.2302 254.594 48.7959C255.136 48.3615 255.795 48.0975 256.488 48.0374C257.415 47.9569 258.337 48.2472 259.05 48.8447C259.764 49.4421 260.211 50.2979 260.293 51.224Z" fill="#F5F5F5"/>
<path d="M223.167 74.3944C223.227 75.0846 223.081 75.777 222.747 76.3841C222.413 76.9912 221.906 77.4858 221.29 77.8053C220.675 78.1248 219.978 78.2548 219.288 78.179C218.599 78.1031 217.947 77.8248 217.416 77.3792C216.885 76.9336 216.498 76.3407 216.304 75.6755C216.111 75.0103 216.119 74.3027 216.328 73.6422C216.537 72.9816 216.937 72.3978 217.478 71.9645C218.02 71.5312 218.678 71.2679 219.369 71.2079C219.828 71.1671 220.29 71.2174 220.73 71.3556C221.17 71.4938 221.578 71.7174 221.931 72.0135C222.284 72.3095 222.574 72.6723 222.787 73.0809C222.999 73.4894 223.128 73.9358 223.167 74.3944Z" fill="#F5F5F5"/>
<path d="M242.599 72.6915C242.66 73.3831 242.515 74.0773 242.181 74.6862C241.847 75.2952 241.339 75.7915 240.723 76.1125C240.106 76.4334 239.408 76.5646 238.717 76.4893C238.026 76.414 237.373 76.1357 236.84 75.6895C236.307 75.2434 235.919 74.6494 235.724 73.9829C235.53 73.3164 235.538 72.6072 235.747 71.9451C235.956 71.283 236.357 70.6978 236.9 70.2634C237.442 69.829 238.101 69.5651 238.794 69.5049C239.721 69.4244 240.643 69.7147 241.357 70.3122C242.07 70.9097 242.517 71.7654 242.599 72.6915Z" fill="#F5F5F5"/>
<path d="M262.024 70.9886C262.085 71.6801 261.94 72.3743 261.606 72.9833C261.272 73.5922 260.765 74.0886 260.148 74.4095C259.532 74.7305 258.834 74.8616 258.142 74.7863C257.451 74.711 256.798 74.4327 256.265 73.9866C255.733 73.5404 255.344 72.9465 255.15 72.28C254.955 71.6134 254.963 70.9043 255.172 70.2422C255.381 69.5801 255.782 68.9948 256.325 68.5604C256.867 68.1261 257.526 67.8621 258.219 67.802C259.147 67.7214 260.068 68.0118 260.782 68.6092C261.495 69.2067 261.942 70.0624 262.024 70.9886Z" fill="#F5F5F5"/>
<path d="M257.825 72.1368L217.915 75.6201L253.303 32.6851L217.056 35.8523C216.955 35.862 216.853 35.8514 216.756 35.8212C216.659 35.7909 216.569 35.7415 216.491 35.676C216.413 35.6105 216.35 35.5301 216.304 35.4397C216.257 35.3492 216.23 35.2504 216.223 35.1492C216.205 34.9465 216.268 34.7449 216.399 34.5889C216.53 34.4328 216.717 34.3351 216.92 34.3171L256.837 30.8337L221.442 73.7687L257.702 70.6015C257.907 70.5853 258.109 70.65 258.266 70.7815C258.423 70.913 258.522 71.1009 258.542 71.3046C258.55 71.4063 258.538 71.5086 258.506 71.6056C258.474 71.7025 258.423 71.7922 258.357 71.8696C258.29 71.9469 258.209 72.0103 258.118 72.0562C258.026 72.102 257.927 72.1294 257.825 72.1368Z" fill="#E6E6E6"/>
<path d="M258.439 148.789C258.377 148.601 258.262 148.435 258.107 148.313C257.952 148.19 257.764 148.116 257.567 148.099C255.831 148.019 254.188 147.294 252.961 146.067C251.365 144.461 250.428 142.029 250.273 139.139C250.259 138.878 250.145 138.633 249.955 138.453C249.765 138.273 249.514 138.172 249.253 138.171C249.111 138.172 248.972 138.201 248.842 138.257C248.712 138.313 248.595 138.395 248.498 138.498C248.401 138.6 248.325 138.721 248.276 138.854C248.227 138.986 248.206 139.127 248.213 139.268C248.393 142.661 249.543 145.564 251.501 147.518C253.034 149.051 255.067 149.983 257.231 150.144H257.379C257.549 150.156 257.72 150.127 257.875 150.059C258.031 149.99 258.168 149.884 258.273 149.75C258.377 149.616 258.447 149.458 258.476 149.29C258.505 149.123 258.492 148.95 258.439 148.789Z" fill="#F0F0F0"/>
<path d="M256.372 161.168C247.812 160.419 241.636 154.594 239.685 145.499C239.654 145.363 239.651 145.221 239.676 145.083C239.701 144.946 239.754 144.814 239.832 144.697C239.909 144.58 240.009 144.48 240.126 144.403C240.243 144.326 240.374 144.273 240.512 144.248C240.774 144.201 241.043 144.257 241.264 144.404C241.486 144.55 241.642 144.776 241.701 145.035C243.452 153.208 248.943 158.445 256.559 159.11C264.905 159.839 273.865 154.356 275.474 140.539C275.502 140.269 275.634 140.021 275.843 139.849C276.052 139.676 276.321 139.593 276.591 139.616C276.728 139.627 276.861 139.666 276.983 139.73C277.105 139.793 277.213 139.88 277.3 139.986C277.387 140.092 277.452 140.214 277.492 140.346C277.531 140.477 277.543 140.615 277.528 140.751C275.984 153.782 267.405 162.129 256.372 161.168Z" fill="#F0F0F0"/>
<path d="M240.222 136.436C240.085 136.425 239.951 136.386 239.83 136.323C239.708 136.259 239.6 136.172 239.513 136.066C239.426 135.96 239.36 135.838 239.321 135.706C239.282 135.575 239.27 135.437 239.285 135.301C240.822 122.271 249.401 113.917 260.428 114.885C270.118 115.73 276.611 122.954 277.625 133.836C277.636 133.973 277.619 134.11 277.576 134.241C277.532 134.371 277.464 134.491 277.373 134.594C277.283 134.697 277.173 134.782 277.05 134.842C276.927 134.902 276.793 134.938 276.656 134.946C276.386 134.959 276.122 134.866 275.92 134.688C275.717 134.51 275.592 134.26 275.571 133.991C274.634 124.186 268.839 117.691 260.254 116.942C251.94 116.214 242.941 121.69 241.339 135.494C241.328 135.629 241.29 135.761 241.227 135.881C241.165 136.002 241.08 136.109 240.976 136.196C240.872 136.284 240.752 136.35 240.623 136.391C240.493 136.432 240.357 136.448 240.222 136.436Z" fill="#F0F0F0"/>
<path d="M256.791 155.639C255.257 155.516 253.753 155.142 252.341 154.53C252.209 154.472 252.091 154.388 251.993 154.282C251.896 154.177 251.821 154.052 251.775 153.916C251.728 153.781 251.71 153.637 251.722 153.493C251.733 153.35 251.775 153.211 251.843 153.085C251.964 152.863 252.163 152.694 252.402 152.611C252.641 152.527 252.902 152.536 253.135 152.633C254.482 153.211 255.922 153.543 257.386 153.614C263.71 153.975 270.39 149.498 271.049 138.687C271.449 132.024 269.162 126.644 264.899 124.07C264.678 123.937 264.515 123.726 264.442 123.479C264.369 123.232 264.392 122.967 264.505 122.735C264.569 122.607 264.659 122.494 264.769 122.402C264.879 122.31 265.006 122.242 265.144 122.201C265.281 122.161 265.426 122.149 265.568 122.166C265.71 122.184 265.848 122.23 265.971 122.303C270.913 125.283 273.562 131.334 273.109 138.81C272.463 149.234 265.965 156.175 257.263 155.678L256.791 155.639Z" fill="#F0F0F0"/>
<path d="M247.592 149.208C247.473 149.289 247.339 149.344 247.198 149.37C247.057 149.396 246.912 149.393 246.772 149.361C246.632 149.329 246.5 149.269 246.384 149.184C246.269 149.098 246.172 148.99 246.1 148.866C244.185 145.311 243.344 141.278 243.678 137.255C244.285 127.276 250.273 120.484 258.406 120.368C258.55 120.365 258.692 120.391 258.824 120.446C258.957 120.501 259.077 120.582 259.176 120.685C259.275 120.788 259.353 120.91 259.402 121.044C259.452 121.178 259.474 121.321 259.466 121.464C259.45 121.722 259.337 121.965 259.151 122.144C258.964 122.323 258.717 122.426 258.458 122.432C252.425 122.548 246.365 127.102 245.745 137.378C245.431 141.009 246.181 144.653 247.903 147.866C248.032 148.09 248.072 148.353 248.015 148.605C247.957 148.856 247.806 149.076 247.592 149.221V149.208Z" fill="#F0F0F0"/>
<path d="M261.714 148.395C261.616 148.166 261.605 147.909 261.682 147.672C261.759 147.435 261.92 147.233 262.134 147.105C264.854 145.473 266.52 142.048 266.546 137.913C266.546 134.604 265.609 131.805 263.839 130.031C263.152 129.351 262.333 128.818 261.432 128.465C260.531 128.112 259.567 127.947 258.6 127.979C255.415 127.979 252.831 129.727 251.404 132.798C251.294 133.031 251.1 133.215 250.86 133.312C250.621 133.408 250.353 133.412 250.112 133.32C249.977 133.271 249.854 133.193 249.751 133.094C249.647 132.994 249.566 132.874 249.511 132.741C249.456 132.609 249.43 132.466 249.433 132.323C249.437 132.179 249.47 132.038 249.53 131.908C251.3 128.147 254.614 125.922 258.574 125.915C259.815 125.883 261.049 126.102 262.202 126.559C263.356 127.016 264.405 127.701 265.286 128.573C267.45 130.74 268.626 134.062 268.6 137.933C268.562 142.803 266.507 146.892 263.161 148.899C263.034 148.968 262.895 149.009 262.751 149.021C262.607 149.033 262.462 149.015 262.326 148.967C262.189 148.92 262.065 148.845 261.959 148.746C261.854 148.648 261.77 148.528 261.714 148.395Z" fill="#F0F0F0"/>
<path d="M254.272 140.777C254.134 140.833 253.986 140.859 253.837 140.853C253.688 140.846 253.542 140.807 253.41 140.739C253.277 140.671 253.161 140.576 253.069 140.459C252.977 140.342 252.911 140.206 252.877 140.061C252.806 139.784 252.754 139.494 252.709 139.197C252.121 135.327 254.201 131.979 257.541 131.379C258.318 131.21 259.125 131.225 259.896 131.424C260.666 131.622 261.38 131.998 261.979 132.521C262.091 132.62 262.18 132.744 262.238 132.883C262.295 133.021 262.321 133.171 262.313 133.321C262.305 133.471 262.263 133.617 262.191 133.749C262.118 133.881 262.017 133.994 261.895 134.082L261.83 134.127C261.637 134.261 261.402 134.325 261.167 134.307C260.932 134.29 260.71 134.192 260.538 134.03C260.176 133.725 259.748 133.507 259.287 133.395C258.826 133.283 258.346 133.28 257.883 133.385C255.338 133.843 254.369 136.488 254.731 138.861C254.769 139.094 254.808 139.319 254.866 139.507C254.929 139.749 254.901 140.007 254.788 140.231C254.675 140.455 254.485 140.631 254.253 140.726L254.272 140.777Z" fill="#F0F0F0"/>
<path d="M257.689 144.751C257.526 144.735 257.37 144.678 257.236 144.585C257.101 144.492 256.992 144.366 256.92 144.22C256.848 144.073 256.814 143.91 256.822 143.747C256.83 143.584 256.879 143.425 256.966 143.287L257.056 143.145C257.149 142.997 257.281 142.877 257.437 142.799C257.593 142.72 257.767 142.686 257.941 142.7C258.265 142.718 258.591 142.699 258.91 142.642C261.133 142.242 262.14 140.177 262.14 138.075C262.134 137.822 262.219 137.576 262.381 137.381C262.542 137.187 262.769 137.057 263.019 137.017C263.162 136.995 263.309 137.003 263.448 137.042C263.588 137.08 263.719 137.147 263.831 137.239C263.943 137.331 264.034 137.445 264.099 137.575C264.164 137.704 264.201 137.846 264.208 137.991C264.266 141.358 262.27 144.138 259.279 144.673C258.755 144.77 258.22 144.796 257.689 144.751Z" fill="#F0F0F0"/>
<path d="M258.148 140.939C257.626 140.895 257.131 140.689 256.733 140.35C256.334 140.011 256.052 139.556 255.926 139.049C255.889 138.905 255.888 138.756 255.921 138.612C255.954 138.468 256.021 138.334 256.116 138.221C256.212 138.108 256.333 138.019 256.469 137.963C256.606 137.906 256.754 137.882 256.901 137.894H257.14C257.321 137.913 257.493 137.984 257.634 138.098C257.775 138.213 257.879 138.366 257.935 138.539C257.957 138.629 258.007 138.71 258.078 138.77C258.149 138.83 258.236 138.866 258.329 138.874C258.826 138.92 258.91 138.229 258.923 138.062C258.953 137.811 258.906 137.556 258.788 137.333C258.609 137.118 258.517 136.844 258.529 136.565C258.546 136.36 258.623 136.165 258.751 136.004C258.879 135.843 259.053 135.724 259.249 135.663C259.446 135.601 259.656 135.599 259.854 135.658C260.051 135.716 260.226 135.832 260.357 135.991C260.861 136.627 261.094 137.436 261.003 138.242C260.835 139.939 259.64 141.068 258.148 140.939Z" fill="#F0F0F0"/>
<path d="M238.716 117.852C238.581 117.841 238.45 117.803 238.329 117.74C238.209 117.678 238.102 117.593 238.015 117.489C237.928 117.385 237.863 117.265 237.822 117.136C237.782 117.007 237.767 116.871 237.78 116.736L238.561 107.789L247.521 108.576C247.656 108.587 247.788 108.625 247.908 108.688C248.029 108.75 248.135 108.836 248.222 108.939C248.31 109.043 248.375 109.163 248.416 109.292C248.456 109.421 248.47 109.557 248.458 109.692C248.447 109.827 248.409 109.959 248.346 110.079C248.284 110.2 248.199 110.307 248.095 110.394C247.991 110.482 247.871 110.548 247.741 110.589C247.612 110.63 247.476 110.645 247.34 110.634L240.441 110.027L239.84 116.917C239.828 117.052 239.79 117.183 239.726 117.303C239.663 117.424 239.577 117.53 239.473 117.617C239.368 117.704 239.248 117.769 239.118 117.81C238.988 117.85 238.852 117.864 238.716 117.852Z" fill="#F0F0F0"/>
<path d="M281.307 121.574C281.172 121.563 281.041 121.525 280.92 121.462C280.8 121.4 280.693 121.314 280.606 121.211C280.519 121.107 280.453 120.987 280.413 120.858C280.372 120.729 280.358 120.593 280.37 120.458L280.971 113.569L274.072 112.969C273.937 112.957 273.805 112.918 273.685 112.855C273.564 112.792 273.457 112.706 273.37 112.602C273.283 112.497 273.218 112.377 273.178 112.247C273.137 112.118 273.123 111.982 273.135 111.846C273.147 111.712 273.185 111.58 273.247 111.46C273.309 111.34 273.395 111.233 273.499 111.146C273.603 111.059 273.723 110.994 273.852 110.954C273.982 110.913 274.118 110.899 274.253 110.911L283.213 111.692L282.431 120.658C282.402 120.927 282.267 121.175 282.057 121.346C281.847 121.517 281.577 121.599 281.307 121.574Z" fill="#F0F0F0"/>
<path d="M278.135 169.682L269.175 168.902C269.04 168.89 268.908 168.851 268.788 168.788C268.668 168.725 268.561 168.639 268.474 168.535C268.387 168.43 268.321 168.31 268.281 168.18C268.241 168.051 268.226 167.915 268.239 167.779C268.25 167.645 268.288 167.513 268.35 167.393C268.413 167.273 268.498 167.166 268.602 167.079C268.706 166.992 268.826 166.927 268.956 166.886C269.085 166.846 269.221 166.832 269.356 166.844L276.255 167.444L276.856 160.561C276.868 160.425 276.906 160.293 276.969 160.172C277.031 160.051 277.117 159.944 277.222 159.857C277.326 159.769 277.447 159.703 277.577 159.662C277.707 159.622 277.844 159.607 277.98 159.619C278.115 159.631 278.247 159.669 278.367 159.731C278.487 159.793 278.594 159.879 278.681 159.983C278.768 160.086 278.834 160.206 278.875 160.335C278.915 160.465 278.929 160.601 278.917 160.735L278.135 169.682Z" fill="#F0F0F0"/>
<path d="M242.444 166.547L233.484 165.76L234.265 156.82C234.292 156.547 234.424 156.295 234.634 156.119C234.845 155.943 235.116 155.857 235.389 155.878C235.525 155.89 235.656 155.929 235.777 155.992C235.897 156.055 236.004 156.141 236.091 156.245C236.178 156.35 236.244 156.47 236.284 156.6C236.324 156.729 236.339 156.865 236.326 157L235.725 163.877L242.618 164.483C242.754 164.495 242.885 164.532 243.006 164.595C243.127 164.657 243.234 164.742 243.321 164.846C243.409 164.95 243.475 165.069 243.516 165.199C243.558 165.328 243.573 165.464 243.561 165.599C243.538 165.873 243.408 166.126 243.198 166.303C242.989 166.481 242.718 166.569 242.444 166.547Z" fill="#F0F0F0"/>
<path d="M48.2756 147.189C48.1073 147.202 47.9407 147.148 47.8115 147.04C47.6823 146.931 47.6008 146.776 47.5844 146.609L47.1063 141.113L52.6102 140.629C52.7786 140.616 52.9452 140.67 53.0744 140.779C53.2035 140.887 53.2851 141.042 53.3015 141.209C53.3123 141.376 53.2578 141.541 53.1493 141.669C53.0408 141.796 52.8869 141.877 52.7201 141.893L48.4823 142.267L48.8505 146.499C48.8632 146.666 48.8103 146.831 48.703 146.96C48.5957 147.089 48.4424 147.171 48.2756 147.189Z" fill="#E0E0E0"/>
<path d="M74.4644 144.899C74.2971 144.912 74.1314 144.859 74.0024 144.752C73.8734 144.645 73.7912 144.492 73.7732 144.325L73.405 140.087L69.1607 140.461C68.9924 140.474 68.8258 140.42 68.6966 140.312C68.5674 140.203 68.4859 140.048 68.4695 139.881C68.4569 139.713 68.5107 139.546 68.6193 139.417C68.728 139.288 68.8829 139.207 69.0509 139.19L74.5548 138.713L75.0393 144.209C75.0521 144.376 74.9992 144.542 74.8919 144.67C74.7845 144.799 74.6312 144.881 74.4644 144.899Z" fill="#E0E0E0"/>
<path d="M77.1776 168.579L71.6672 169.063C71.4989 169.076 71.3323 169.022 71.2031 168.913C71.0739 168.805 70.9924 168.65 70.976 168.483C70.9634 168.314 71.0172 168.148 71.1258 168.019C71.2345 167.89 71.3894 167.809 71.5574 167.792L75.7952 167.425L75.427 163.193C75.4142 163.026 75.4671 162.86 75.5745 162.732C75.6818 162.603 75.8351 162.521 76.0019 162.503C76.1692 162.49 76.3349 162.543 76.4639 162.65C76.593 162.757 76.6751 162.91 76.6931 163.077L77.1776 168.579Z" fill="#E0E0E0"/>
<path d="M55.2265 170.495L49.742 170.972L49.2575 165.47C49.2466 165.303 49.3012 165.138 49.4097 165.011C49.5182 164.883 49.6721 164.803 49.8389 164.786C50.0051 164.775 50.1692 164.829 50.2968 164.936C50.4244 165.043 50.5057 165.195 50.5237 165.36L50.8983 169.598L55.1361 169.224C55.3044 169.212 55.471 169.265 55.6002 169.374C55.7294 169.482 55.8109 169.637 55.8273 169.805C55.8335 169.89 55.8228 169.975 55.7959 170.055C55.769 170.136 55.7264 170.211 55.6706 170.275C55.6148 170.339 55.5468 170.391 55.4706 170.429C55.3944 170.467 55.3114 170.489 55.2265 170.495Z" fill="#E0E0E0"/>
<path d="M74.0187 55.5072L52.972 57.3134L52.5392 52.3916C52.5076 50.0426 53.3666 47.7685 54.9439 46.0256C56.5213 44.2826 58.7003 43.1997 61.0439 42.994C63.3875 42.7883 65.7223 43.4751 67.58 44.9165C69.4377 46.358 70.6808 48.4475 71.06 50.766L71.3055 53.6301L74.3481 53.3656L74.0962 50.5016C73.9545 48.8861 73.4956 47.3144 72.7456 45.8761C71.9956 44.4377 70.9693 43.161 69.7252 42.1188C68.481 41.0765 67.0435 40.2892 65.4947 39.8017C63.9458 39.3142 62.316 39.1361 60.6982 39.2775C57.4309 39.5633 54.4111 41.1333 52.3031 43.6422C51.2594 44.8845 50.4709 46.32 49.9827 47.8666C49.4945 49.4131 49.3161 51.0406 49.4578 52.656L49.8906 57.6101C48.6922 57.8443 47.6228 58.5127 46.8882 59.4868C46.1535 60.4609 45.8056 61.6718 45.9112 62.8866L47.4164 80.071C47.4701 80.7195 47.6516 81.3511 47.9504 81.9295C48.2492 82.5078 48.6595 83.0215 49.1577 83.4411C49.6559 83.8607 50.2322 84.1778 50.8536 84.3744C51.4749 84.5709 52.1289 84.643 52.7782 84.5864L76.3766 82.5286C77.0261 82.475 77.6586 82.2938 78.2378 81.9954C78.817 81.697 79.3315 81.2873 79.7517 80.7899C80.1718 80.2924 80.4895 79.7169 80.6863 79.0965C80.8831 78.4761 80.9553 77.823 80.8986 77.1747L79.3934 59.9903C79.3358 59.3434 79.151 58.7142 78.8496 58.1386C78.5481 57.563 78.1361 57.0525 77.6369 56.6361C77.1377 56.2197 76.5612 55.9057 75.9403 55.712C75.3195 55.5183 74.6665 55.4487 74.0187 55.5072ZM65.0651 68.7502L65.5819 74.6654C65.6167 74.9035 65.6024 75.1461 65.54 75.3785C65.4776 75.6109 65.3683 75.828 65.2189 76.0168C65.0694 76.2055 64.883 76.3618 64.6709 76.476C64.4589 76.5902 64.2257 76.6601 63.9857 76.6812C63.7457 76.7023 63.5039 76.6742 63.2751 76.5988C63.0464 76.5233 62.8354 76.402 62.6553 76.2422C62.4751 76.0825 62.3295 75.8877 62.2273 75.6698C62.1252 75.4519 62.0687 75.2155 62.0612 74.975L61.5444 69.0534C61.0115 68.7266 60.5954 68.2402 60.3554 67.6636C60.1154 67.0869 60.0637 66.4493 60.2077 65.8416C60.3518 65.2339 60.6841 64.687 61.1575 64.2789C61.6308 63.8708 62.2211 63.6222 62.8442 63.5686C63.4673 63.5149 64.0914 63.6589 64.6278 63.9801C65.1641 64.3013 65.5853 64.7832 65.8314 65.3573C66.0775 65.9314 66.1359 66.5684 65.9983 67.1776C65.8607 67.7868 65.5342 68.3371 65.0651 68.7502Z" fill="#EBEBEB"/>
<path d="M110.104 65.4346L107.979 61.9577C106.908 62.1101 105.82 62.1101 104.749 61.9577L102.617 65.4217L102.21 65.312C100.829 64.9486 99.503 64.3996 98.2695 63.68L97.9078 63.4736L98.8057 59.7065C98.8231 59.6334 98.8549 59.5645 98.8992 59.5038C98.9434 59.443 98.9993 59.3917 99.0636 59.3527C99.1279 59.3137 99.1993 59.2878 99.2737 59.2766C99.3481 59.2653 99.424 59.269 99.4969 59.2872C99.6434 59.3224 99.7698 59.4142 99.8485 59.5424C99.9273 59.6706 99.9518 59.8247 99.9168 59.971L99.2062 62.906C100.124 63.4054 101.092 63.8075 102.094 64.1058L104.174 60.7128L104.555 60.7773C105.762 60.9709 106.992 60.9709 108.199 60.7773L108.573 60.7128L110.653 64.1058C111.656 63.8098 112.624 63.4076 113.541 62.906L112.617 59.0356L112.927 58.8099C113.769 58.2039 114.523 57.4855 115.169 56.6747C115.259 56.5579 115.39 56.4805 115.536 56.4589C115.682 56.4372 115.831 56.473 115.951 56.5586C116.013 56.6021 116.067 56.658 116.107 56.7228C116.148 56.7876 116.174 56.8599 116.186 56.9354C116.197 57.0109 116.193 57.0879 116.174 57.1617C116.155 57.2356 116.12 57.3048 116.073 57.3649C115.439 58.1654 114.707 58.8847 113.896 59.5065L114.846 63.4607L114.478 63.6671C113.246 64.3856 111.923 64.9345 110.544 65.2991L110.104 65.4346ZM97.0421 57.8616C96.8677 57.6617 96.6933 57.4488 96.5253 57.2166L92.5654 58.1648L92.3522 57.8036C91.6369 56.5692 91.0874 55.2463 90.7178 53.8687L90.6144 53.4623L94.0835 51.3337C93.9309 50.264 93.9309 49.1781 94.0835 48.1084L90.6144 45.9861L90.7178 45.5733C91.0874 44.1978 91.6369 42.877 92.3522 41.6449L92.5654 41.2772L96.5253 42.2254C97.1865 41.3615 97.9599 40.5893 98.8251 39.929L98.108 36.936C98.073 36.7897 98.0976 36.6356 98.1763 36.5074C98.2551 36.3792 98.3815 36.2874 98.5279 36.2522C98.6001 36.235 98.6749 36.2322 98.7481 36.244C98.8213 36.2557 98.8915 36.2819 98.9545 36.3209C99.0176 36.3598 99.0723 36.4109 99.1155 36.4711C99.1587 36.5312 99.1895 36.5994 99.2062 36.6715L100.104 40.3999L99.7941 40.6193C98.7988 41.3343 97.9262 42.2057 97.2101 43.1995L96.984 43.5091L93.108 42.5867C92.6056 43.5023 92.2028 44.4689 91.9064 45.4701L95.2979 47.5472L95.2398 47.9213C95.0241 49.1244 95.0241 50.3563 95.2398 51.5594L95.2979 51.94L91.9064 54.0171C92.204 55.0158 92.6068 55.9802 93.108 56.894L96.984 55.9716L97.2101 56.2812C97.4109 56.5737 97.6265 56.8558 97.8561 57.1263C97.9556 57.2306 98.0111 57.3692 98.0111 57.5133C98.0111 57.6574 97.9556 57.796 97.8561 57.9003C97.801 57.953 97.7358 57.9938 97.6644 58.0205C97.593 58.0472 97.5169 58.0591 97.4408 58.0554C97.3647 58.0518 97.2901 58.0328 97.2215 57.9994C97.153 57.9661 97.092 57.9192 97.0421 57.8616ZM120.13 58.1777L118.67 57.8294C118.524 57.7942 118.397 57.7024 118.319 57.5742C118.24 57.446 118.215 57.2919 118.25 57.1456C118.286 56.9994 118.377 56.8732 118.506 56.7945C118.634 56.7159 118.789 56.6914 118.935 56.7263L119.581 56.8747C120.08 55.9606 120.481 54.9962 120.776 53.9977L117.385 51.9207L117.449 51.5401C117.665 50.3369 117.665 49.1051 117.449 47.902L117.385 47.5278L120.776 45.4507C120.482 44.4498 120.081 43.4831 119.581 42.5673L115.705 43.4898L115.485 43.1801C114.768 42.1878 113.895 41.3167 112.901 40.5999L112.591 40.3806L113.515 36.5102C112.598 36.0107 111.63 35.6106 110.628 35.3169L108.528 38.7357L108.153 38.6712C106.947 38.4776 105.717 38.4776 104.51 38.6712L104.129 38.7357L102.068 35.3298L101.68 35.4459C101.542 35.4913 101.392 35.4809 101.262 35.417C101.131 35.3531 101.031 35.2408 100.983 35.104C100.956 35.0333 100.944 34.9581 100.947 34.8826C100.949 34.8071 100.967 34.733 100.999 34.6645C101.031 34.596 101.076 34.5346 101.132 34.4838C101.188 34.433 101.254 34.3938 101.325 34.3687C101.609 34.2783 101.9 34.1945 102.184 34.1171L102.591 34.0074L104.723 37.4778C105.794 37.3189 106.882 37.3189 107.953 37.4778L110.078 34.0074L110.492 34.1171C111.87 34.4845 113.193 35.0333 114.426 35.7491L114.794 35.9619L113.845 39.9161C114.711 40.5749 115.485 41.3473 116.144 42.2125L120.104 41.2643L120.318 41.632C121.035 42.8628 121.585 44.184 121.952 45.5604L122.062 45.9732L118.586 48.0955C118.747 49.1645 118.747 50.2517 118.586 51.3208L122.062 53.4494L121.952 53.8558C121.585 55.2343 121.035 56.5576 120.318 57.7907L120.13 58.1777ZM106.19 55.2492C104.782 55.1935 103.447 54.6102 102.451 53.6155C101.455 52.6208 100.871 51.2878 100.815 49.8823C100.776 48.4998 101.258 47.153 102.164 46.1072C103.07 45.0614 104.336 44.3922 105.711 44.2316C105.792 44.2215 105.874 44.2287 105.952 44.2526C106.03 44.2765 106.101 44.3166 106.162 44.3703C106.223 44.4239 106.272 44.4899 106.306 44.5639C106.34 44.6378 106.357 44.718 106.357 44.7992C106.357 44.9364 106.306 45.0686 106.214 45.1708C106.123 45.2731 105.997 45.3382 105.86 45.354C104.903 45.463 104.008 45.8828 103.313 46.5489C102.617 47.215 102.16 48.0906 102.012 49.0412C101.863 49.9917 102.031 50.9647 102.49 51.8107C102.949 52.6566 103.673 53.3288 104.552 53.7239C105.43 54.1189 106.414 54.2151 107.353 53.9976C108.292 53.7802 109.133 53.261 109.747 52.52C110.362 51.7789 110.715 50.8569 110.754 49.8957C110.793 48.9344 110.515 47.9869 109.962 47.1988C109.882 47.0872 109.847 46.9497 109.864 46.8136C109.881 46.6775 109.948 46.5525 110.053 46.4635C110.113 46.41 110.184 46.3699 110.261 46.346C110.338 46.322 110.419 46.3146 110.499 46.3244C110.579 46.3342 110.656 46.3608 110.725 46.4026C110.794 46.4444 110.853 46.5003 110.899 46.5667C111.486 47.4062 111.829 48.3923 111.887 49.4148C111.946 50.4374 111.718 51.4561 111.23 52.357C110.742 53.2578 110.013 54.0055 109.124 54.5162C108.235 55.027 107.221 55.2808 106.196 55.2492H106.19Z" fill="#F0F0F0"/>
<path d="M69.9683 112.653L68.5923 110.414C67.8963 110.518 67.1888 110.518 66.4928 110.414L65.1168 112.653L64.8519 112.582C63.9601 112.347 63.1041 111.993 62.3067 111.53L62.0741 111.395L62.6555 108.957C62.6785 108.863 62.7375 108.782 62.8197 108.731C62.9018 108.681 63.0006 108.664 63.0948 108.686C63.1419 108.697 63.1864 108.718 63.2255 108.746C63.2647 108.775 63.2979 108.811 63.3231 108.852C63.3483 108.893 63.3651 108.939 63.3724 108.987C63.3798 109.035 63.3777 109.084 63.3661 109.131L62.9139 111.027C63.5066 111.351 64.1325 111.611 64.7809 111.801L66.1246 109.615L66.3636 109.653C67.1442 109.782 67.9408 109.782 68.7215 109.653L68.9605 109.615L70.3106 111.801C70.9555 111.607 71.5788 111.348 72.1711 111.027L71.5768 108.537L71.7771 108.389C72.3202 107.999 72.8071 107.537 73.2241 107.015C73.2808 106.938 73.3657 106.887 73.4601 106.873C73.5545 106.858 73.6508 106.881 73.728 106.938C73.7676 106.966 73.8013 107.002 73.827 107.043C73.8528 107.084 73.87 107.13 73.8778 107.178C73.8856 107.226 73.8838 107.275 73.8725 107.322C73.8612 107.37 73.8406 107.414 73.812 107.454C73.4004 107.971 72.9275 108.437 72.4037 108.841L73.0497 111.421L72.8107 111.556C72.0138 112.02 71.1576 112.374 70.2654 112.608L69.9683 112.653ZM61.5315 107.757L61.1956 107.35L58.6116 107.957L58.4759 107.725C58.0208 106.925 57.6754 106.068 57.4488 105.177L57.3777 104.912L59.6193 103.538C59.516 102.843 59.516 102.137 59.6193 101.442L57.3777 100.068L57.4488 99.8033C57.6829 98.9124 58.0372 98.0574 58.5018 97.2617L58.6374 97.0231L61.2214 97.6681C61.6369 97.1033 62.1208 96.592 62.662 96.1458L62.2033 94.2106C62.1918 94.164 62.1898 94.1156 62.1972 94.0682C62.2047 94.0207 62.2216 93.9753 62.2468 93.9345C62.2721 93.8936 62.3052 93.8582 62.3444 93.8303C62.3835 93.8024 62.4278 93.7826 62.4747 93.772C62.5688 93.7506 62.6677 93.767 62.7498 93.8177C62.832 93.8684 62.8909 93.9492 62.9139 94.0429L63.4953 96.449L63.2886 96.5973C62.6484 97.0559 62.0876 97.6159 61.6284 98.2551L61.4798 98.4551L58.9863 97.8616C58.6655 98.4531 58.4057 99.0755 58.2111 99.7194L60.401 101.061L60.3622 101.306C60.2956 101.694 60.261 102.087 60.2589 102.48C60.261 102.876 60.2956 103.271 60.3622 103.661L60.401 103.899L58.2111 105.241C58.4045 105.887 58.6643 106.512 58.9863 107.105L61.4798 106.505L61.6284 106.705C61.7619 106.896 61.9064 107.079 62.0612 107.254C62.1248 107.321 62.1603 107.41 62.1603 107.502C62.1603 107.594 62.1248 107.683 62.0612 107.75C62.0278 107.787 61.9872 107.817 61.9418 107.837C61.8965 107.857 61.8475 107.868 61.7978 107.869C61.7481 107.869 61.6988 107.86 61.653 107.84C61.6071 107.821 61.5658 107.793 61.5315 107.757ZM76.4476 107.957L75.5045 107.737C75.4573 107.726 75.4129 107.706 75.3737 107.677C75.3346 107.649 75.3014 107.613 75.2762 107.571C75.251 107.53 75.2342 107.484 75.2268 107.436C75.2195 107.388 75.2216 107.339 75.2332 107.292C75.2438 107.246 75.2636 107.201 75.2916 107.162C75.3195 107.123 75.355 107.09 75.3959 107.065C75.4368 107.04 75.4823 107.023 75.5298 107.015C75.5773 107.008 75.6258 107.01 75.6724 107.021L76.0794 107.118C76.4041 106.526 76.664 105.901 76.8546 105.254L74.6647 103.912L74.7034 103.674C74.7701 103.284 74.8047 102.889 74.8068 102.493C74.8046 102.1 74.7701 101.707 74.7034 101.319L74.6647 101.074L76.8546 99.7323C76.6628 99.0874 76.4029 98.4647 76.0794 97.8745L73.5859 98.468L73.4373 98.268C72.978 97.6288 72.4172 97.0688 71.7771 96.6102L71.5768 96.4619L72.1711 93.972C71.5801 93.6489 70.9565 93.3894 70.3106 93.1979L68.9605 95.3846L68.7215 95.3459C67.9408 95.2169 67.1442 95.2169 66.3636 95.3459L66.1246 95.3846L64.7809 93.1979L64.5289 93.2753C64.439 93.3041 64.3413 93.2966 64.2568 93.2544C64.1723 93.2122 64.1077 93.1387 64.0767 93.0495C64.0593 93.0043 64.0512 92.956 64.0529 92.9075C64.0546 92.8591 64.066 92.8115 64.0865 92.7676C64.107 92.7236 64.1362 92.6842 64.1722 92.6518C64.2083 92.6193 64.2505 92.5944 64.2964 92.5786L64.8519 92.4109L65.1168 92.3464L66.4928 94.5848C67.1888 94.4815 67.8963 94.4815 68.5923 94.5848L69.9683 92.3464L70.2331 92.4109C71.1246 92.6498 71.9804 93.0055 72.7784 93.4688L73.0174 93.6043L72.3714 96.1845C72.9276 96.6141 73.4269 97.1127 73.8572 97.6681L76.4412 97.0231L76.5768 97.2617C77.0414 98.0574 77.3957 98.9124 77.6298 99.8033L77.7009 100.068L75.4593 101.442C75.5626 102.137 75.5626 102.843 75.4593 103.538L77.7009 104.912L77.6298 105.177C77.3945 106.067 77.0404 106.922 76.5768 107.718L76.4476 107.957ZM67.4424 106.067C66.5646 106.007 65.7398 105.626 65.1254 104.997C64.511 104.368 64.1502 103.535 64.1118 102.657C64.0735 101.78 64.3603 100.919 64.9175 100.239C65.4746 99.5586 66.2631 99.1074 67.1323 98.9711C67.1841 98.9658 67.2365 98.9712 67.2861 98.9872C67.3357 99.0032 67.3814 99.0293 67.4203 99.0639C67.4592 99.0985 67.4905 99.1408 67.5121 99.1881C67.5337 99.2355 67.5451 99.2868 67.5458 99.3388C67.5463 99.4283 67.5135 99.5148 67.4539 99.5815C67.3942 99.6482 67.3118 99.6905 67.2228 99.7001C66.6779 99.7623 66.1627 99.9806 65.7392 100.329C65.3158 100.677 65.0023 101.14 64.8364 101.662C64.6706 102.184 64.6595 102.742 64.8046 103.271C64.9496 103.799 65.2446 104.274 65.6539 104.638C66.0632 105.003 66.5694 105.241 67.1114 105.325C67.6533 105.409 68.208 105.334 68.7085 105.11C69.2089 104.886 69.6338 104.522 69.9318 104.062C70.2299 103.603 70.3883 103.067 70.3882 102.519C70.3894 101.937 70.2087 101.368 69.8714 100.893C69.822 100.82 69.8008 100.732 69.8114 100.644C69.8221 100.556 69.864 100.475 69.9295 100.416C69.9684 100.381 70.0143 100.355 70.0642 100.339C70.114 100.323 70.1667 100.318 70.2187 100.324C70.2706 100.33 70.3207 100.348 70.3655 100.375C70.4103 100.401 70.4489 100.438 70.4786 100.481C70.8564 101.023 71.0761 101.66 71.1132 102.32C71.1503 102.98 71.0033 103.637 70.6887 104.219C70.3741 104.8 69.9041 105.283 69.331 105.614C68.7579 105.945 68.1041 106.111 67.4424 106.093V106.067Z" fill="#E6E6E6"/>
<path d="M161.5 240C230.675 240 286.753 236.731 286.753 232.698C286.753 228.665 230.675 225.396 161.5 225.396C92.3247 225.396 36.2471 228.665 36.2471 232.698C36.2471 236.731 92.3247 240 161.5 240Z" fill="#F5F5F5"/>
<path d="M234.789 58.6228H213.755L198.897 228.434H219.931C222.883 228.377 225.712 227.244 227.885 225.247C230.058 223.251 231.424 220.53 231.727 217.597L244.705 69.4533C244.856 68.073 244.71 66.6765 244.278 65.3567C243.846 64.037 243.137 62.8244 242.199 61.7996C241.261 60.7748 240.114 59.9615 238.837 59.4137C237.559 58.8659 236.179 58.5963 234.789 58.6228Z" fill="#35498E"/>
<path d="M230.499 58.623H159.31C156.358 58.6782 153.528 59.8101 151.354 61.8052C149.18 63.8003 147.812 66.5207 147.508 69.4535L134.53 217.597C134.38 218.977 134.526 220.372 134.958 221.691C135.389 223.009 136.097 224.221 137.033 225.246C137.97 226.271 139.114 227.085 140.39 227.635C141.665 228.184 143.043 228.457 144.433 228.434H215.615C218.564 228.371 221.388 227.235 223.556 225.24C225.725 223.244 227.089 220.526 227.392 217.597L240.37 69.4535C240.52 68.077 240.376 66.6844 239.947 65.3679C239.517 64.0514 238.812 62.841 237.879 61.817C236.946 60.7929 235.805 59.9786 234.533 59.428C233.261 58.8773 231.886 58.603 230.499 58.623Z" fill="#35498E"/>
<path opacity="0.3" d="M234.285 59.2614H163.102C160.15 59.3166 157.32 60.4485 155.146 62.4436C152.972 64.4387 151.604 67.1591 151.3 70.0919L138.322 218.236C138.171 219.615 138.316 221.01 138.747 222.329C139.178 223.647 139.885 224.859 140.821 225.884C141.757 226.909 142.901 227.724 144.176 228.273C145.451 228.823 146.829 229.096 148.218 229.073H219.407C222.36 229.016 225.19 227.883 227.364 225.887C229.538 223.89 230.906 221.169 231.21 218.236L244.188 70.0919C244.338 68.7129 244.192 67.3179 243.76 65.9996C243.328 64.6812 242.62 63.4697 241.684 62.4453C240.747 61.421 239.603 60.6074 238.327 60.0584C237.052 59.5095 235.674 59.2378 234.285 59.2614Z" fill="#F9F9F9"/>
<path opacity="0.4" d="M230.196 62.0932H211.423C210.863 62.0978 210.318 62.2699 209.857 62.5873C209.397 62.9047 209.042 63.3527 208.839 63.8736C208.099 65.7867 206.804 67.4362 205.121 68.6115C203.437 69.7869 201.442 70.4348 199.388 70.4725H188.315C186.381 70.5114 184.494 69.8757 182.979 68.6747C181.464 67.4737 180.415 65.7827 180.014 63.8929C179.907 63.3816 179.625 62.9238 179.215 62.5986C178.806 62.2735 178.296 62.1015 177.773 62.1126H159.006C157 62.148 155.076 62.9166 153.599 64.2729C152.121 65.6291 151.193 67.4791 150.99 69.4727L138.005 217.617C137.901 218.555 137.999 219.504 138.291 220.401C138.584 221.299 139.065 222.123 139.702 222.821C140.339 223.518 141.117 224.071 141.985 224.444C142.854 224.817 143.791 225.001 144.736 224.983H215.926C217.933 224.946 219.857 224.176 221.334 222.819C222.811 221.461 223.739 219.611 223.942 217.617L236.921 69.4727C237.026 68.5342 236.93 67.584 236.639 66.6855C236.348 65.787 235.868 64.961 235.231 64.2625C234.595 63.564 233.816 63.0092 232.948 62.6351C232.08 62.261 231.141 62.0763 230.196 62.0932Z" fill="#F9F9F9"/>
<path d="M212.456 142.59H162.637C162.295 142.596 161.955 142.528 161.64 142.393C161.326 142.258 161.044 142.057 160.813 141.804C160.582 141.552 160.408 141.253 160.301 140.928C160.195 140.603 160.158 140.259 160.195 139.919L160.447 137.068C160.521 136.345 160.858 135.674 161.393 135.182C161.929 134.69 162.626 134.411 163.354 134.398H213.18C213.522 134.392 213.862 134.459 214.177 134.595C214.491 134.73 214.773 134.931 215.004 135.183C215.235 135.436 215.409 135.734 215.516 136.059C215.622 136.384 215.659 136.728 215.622 137.068L215.376 139.919C215.301 140.644 214.962 141.316 214.424 141.808C213.886 142.3 213.186 142.578 212.456 142.59Z" fill="#F9F9F9"/>
<path d="M211.384 154.846H161.558C161.216 154.852 160.877 154.785 160.562 154.649C160.248 154.514 159.966 154.313 159.736 154.06C159.506 153.808 159.332 153.509 159.226 153.184C159.12 152.859 159.085 152.515 159.123 152.175L159.368 149.324C159.444 148.602 159.781 147.932 160.316 147.44C160.851 146.948 161.548 146.669 162.275 146.654H212.101C212.444 146.648 212.783 146.715 213.098 146.851C213.412 146.986 213.694 147.187 213.925 147.439C214.156 147.692 214.331 147.99 214.437 148.315C214.544 148.64 214.58 148.984 214.543 149.324L214.291 152.175C214.216 152.898 213.879 153.568 213.343 154.06C212.808 154.551 212.111 154.831 211.384 154.846Z" fill="#F9F9F9"/>
<path opacity="0.1" d="M197.321 64.867C197.239 65.6697 196.864 66.4145 196.269 66.9602C195.674 67.5059 194.899 67.8146 194.091 67.8278C193.711 67.8346 193.334 67.7606 192.985 67.6106C192.636 67.4607 192.323 67.2383 192.067 66.9581C191.811 66.678 191.618 66.3466 191.5 65.9861C191.382 65.6255 191.343 65.244 191.384 64.867C191.466 64.0642 191.84 63.3194 192.436 62.7737C193.031 62.228 193.806 61.9193 194.614 61.9061C194.994 61.8993 195.371 61.9733 195.72 62.1233C196.068 62.2732 196.381 62.4957 196.637 62.7758C196.893 63.0559 197.087 63.3873 197.205 63.7479C197.322 64.1084 197.362 64.4899 197.321 64.867Z" fill="black"/>
<path opacity="0.1" d="M195.977 64.867C195.931 65.3052 195.727 65.7117 195.402 66.0099C195.077 66.3081 194.655 66.4774 194.213 66.4861C194.006 66.4901 193.8 66.4498 193.609 66.3679C193.418 66.286 193.247 66.1643 193.107 66.0111C192.967 65.8578 192.861 65.6765 192.797 65.4792C192.732 65.2819 192.711 65.0732 192.734 64.867C192.778 64.4282 192.982 64.021 193.307 63.7225C193.633 63.424 194.056 63.2551 194.498 63.2479C194.705 63.2449 194.911 63.2859 195.101 63.3681C195.292 63.4504 195.462 63.5721 195.602 63.7251C195.742 63.8781 195.848 64.059 195.912 64.2559C195.977 64.4527 195.999 64.661 195.977 64.867Z" fill="black"/>
<g opacity="0.8">
<path d="M221.429 69.8081C221.318 69.8096 221.207 69.7876 221.105 69.7433C221.003 69.699 220.911 69.6335 220.836 69.5512C220.761 69.4689 220.704 69.3716 220.669 69.2658C220.635 69.16 220.623 69.048 220.635 68.9373L220.777 67.3504C220.801 67.1159 220.91 66.8983 221.084 66.739C221.258 66.5796 221.484 66.4896 221.72 66.4861C221.831 66.4846 221.941 66.5066 222.043 66.5505C222.145 66.5943 222.236 66.6592 222.311 66.7408C222.386 66.8224 222.443 66.9189 222.478 67.0239C222.513 67.129 222.526 67.2402 222.515 67.3504L222.373 68.9373C222.349 69.1724 222.24 69.3907 222.066 69.5512C221.893 69.7116 221.666 69.803 221.429 69.8081Z" fill="#F9F9F9"/>
<path d="M228.38 69.8081C228.269 69.8097 228.158 69.7876 228.056 69.7433C227.954 69.699 227.862 69.6335 227.787 69.5512C227.712 69.4689 227.655 69.3716 227.62 69.2658C227.586 69.16 227.574 69.048 227.586 68.9373L227.915 65.2153C227.939 64.9808 228.048 64.7632 228.222 64.6038C228.396 64.4445 228.622 64.3545 228.858 64.3509C228.969 64.3495 229.079 64.3714 229.181 64.4153C229.283 64.4592 229.374 64.5241 229.449 64.6057C229.524 64.6872 229.581 64.7837 229.616 64.8888C229.651 64.9938 229.664 65.1051 229.653 65.2153L229.324 68.9373C229.3 69.1724 229.191 69.3907 229.017 69.5512C228.843 69.7116 228.617 69.803 228.38 69.8081Z" fill="#F9F9F9"/>
<path d="M224.905 69.8081C224.793 69.8096 224.683 69.7876 224.581 69.7433C224.478 69.699 224.386 69.6335 224.311 69.5512C224.236 69.4689 224.18 69.3716 224.145 69.2658C224.11 69.16 224.098 69.048 224.11 68.9373L224.343 66.2861C224.367 66.0499 224.477 65.8307 224.652 65.6701C224.827 65.5095 225.055 65.4188 225.293 65.4153C225.404 65.4136 225.514 65.4357 225.616 65.48C225.718 65.5243 225.81 65.5899 225.884 65.6724C225.959 65.7548 226.015 65.8522 226.049 65.958C226.083 66.0639 226.094 66.1757 226.081 66.2861L225.848 68.9373C225.824 69.1724 225.715 69.3907 225.542 69.5512C225.368 69.7116 225.141 69.803 224.905 69.8081Z" fill="#F9F9F9"/>
</g>
<g opacity="0.8">
<path d="M161.913 69.8081H157.546C157.484 69.8095 157.421 69.7973 157.363 69.7726C157.306 69.7478 157.254 69.7109 157.212 69.6644C157.169 69.6179 157.138 69.563 157.119 69.5032C157.099 69.4434 157.093 69.3802 157.101 69.3179L157.301 66.9763C157.315 66.8434 157.377 66.7202 157.476 66.6299C157.575 66.5396 157.703 66.4885 157.837 66.4861H162.204C162.267 66.4847 162.329 66.4968 162.387 66.5216C162.445 66.5464 162.497 66.5833 162.539 66.6298C162.581 66.6762 162.613 66.7312 162.632 66.791C162.651 66.8508 162.657 66.914 162.65 66.9763L162.443 69.3179C162.432 69.4508 162.371 69.5747 162.273 69.6654C162.175 69.7561 162.047 69.807 161.913 69.8081Z" fill="#F9F9F9"/>
<path d="M163.935 69.1695C163.872 69.1707 163.81 69.1586 163.752 69.1339C163.694 69.1091 163.642 69.0724 163.599 69.026C163.556 68.9797 163.524 68.9248 163.504 68.865C163.484 68.8053 163.477 68.7419 163.483 68.6793L163.58 67.6085C163.593 67.475 163.655 67.351 163.754 67.2604C163.853 67.1699 163.982 67.1192 164.116 67.1182C164.179 67.1169 164.242 67.129 164.299 67.1538C164.357 67.1786 164.409 67.2154 164.451 67.2619C164.493 67.3084 164.525 67.3634 164.544 67.4232C164.563 67.4829 164.569 67.5461 164.562 67.6085L164.472 68.6793C164.457 68.8122 164.395 68.9354 164.296 69.0257C164.198 69.116 164.069 69.1671 163.935 69.1695Z" fill="#F9F9F9"/>
</g>
<path d="M204.247 123.839C212.94 115.529 213.807 102.346 206.184 94.3944C198.56 86.4424 185.333 86.7323 176.64 95.0418C167.947 103.351 167.08 116.534 174.704 124.486C182.327 132.438 195.554 132.148 204.247 123.839Z" fill="#F9F9F9"/>
<path d="M190.518 108.647C185.04 108.647 180.408 110.731 180.014 115.252L179.575 120.277H199.427L199.866 115.252C200.26 110.731 196.003 108.647 190.518 108.647Z" fill="#35498E"/>
<path d="M190.699 106.576C193.244 106.576 194.42 104.519 194.64 101.977C194.859 99.4356 194.052 97.3779 191.507 97.3779C188.961 97.3779 187.792 99.442 187.566 101.977C187.34 104.512 188.154 106.576 190.699 106.576Z" fill="#35498E"/>
<path d="M210.183 138.32C208.832 138.32 207.689 138.836 207.599 139.952L207.489 141.197H212.392L212.502 139.952C212.592 138.836 211.539 138.32 210.183 138.32Z" fill="#35498E"/>
<path d="M210.228 137.81C210.874 137.81 211.145 137.3 211.203 136.675C211.261 136.049 211.055 135.539 210.428 135.539C209.801 135.539 209.511 136.049 209.453 136.675C209.394 137.3 209.601 137.81 210.228 137.81Z" fill="#35498E"/>
<path d="M195.092 167.102H175.712C175.186 167.112 174.665 167.009 174.182 166.802C173.699 166.594 173.266 166.287 172.912 165.899C172.557 165.512 172.29 165.053 172.126 164.554C171.963 164.056 171.908 163.528 171.965 163.006C172.08 161.897 172.598 160.868 173.42 160.113C174.242 159.359 175.312 158.931 176.429 158.91H195.809C196.334 158.901 196.855 159.004 197.338 159.212C197.82 159.42 198.252 159.728 198.607 160.115C198.961 160.502 199.229 160.96 199.392 161.459C199.556 161.957 199.612 162.484 199.556 163.006C199.442 164.116 198.925 165.145 198.103 165.9C197.28 166.655 196.209 167.083 195.092 167.102Z" fill="#35498E"/>
<path d="M192.747 212.785H172.004C171.447 212.8 170.894 212.695 170.382 212.478C169.87 212.26 169.41 211.935 169.035 211.524C168.66 211.114 168.378 210.627 168.208 210.098C168.038 209.568 167.984 209.009 168.05 208.457L169.375 193.349C169.493 192.177 170.038 191.09 170.906 190.292C171.774 189.494 172.905 189.042 174.084 189.021H194.834C195.389 189.011 195.939 189.12 196.449 189.339C196.959 189.558 197.416 189.884 197.79 190.293C198.164 190.703 198.446 191.187 198.618 191.714C198.79 192.241 198.848 192.799 198.787 193.349L197.463 208.457C197.342 209.629 196.795 210.716 195.926 211.513C195.058 212.311 193.927 212.763 192.747 212.785Z" fill="#35498E"/>
<g opacity="0.6">
<path d="M186.352 197.162C186.386 196.832 186.349 196.499 186.244 196.184C186.14 195.87 185.969 195.581 185.745 195.337C185.52 195.093 185.246 194.9 184.941 194.77C184.636 194.639 184.306 194.575 183.974 194.582C183.268 194.592 182.589 194.86 182.067 195.335C181.544 195.81 181.214 196.46 181.138 197.162C181.097 197.554 181.156 197.951 181.308 198.315C181.46 198.679 181.702 198.999 182.011 199.245L181.558 204.451C181.536 204.648 181.557 204.848 181.618 205.036C181.679 205.225 181.78 205.399 181.914 205.545C182.048 205.692 182.212 205.808 182.395 205.886C182.577 205.965 182.774 206.003 182.973 205.999C183.394 205.99 183.797 205.828 184.107 205.543C184.416 205.258 184.61 204.869 184.653 204.451L185.111 199.245C185.457 199.009 185.748 198.7 185.962 198.34C186.176 197.98 186.309 197.578 186.352 197.162Z" fill="#F9F9F9"/>
</g>
<path d="M195.014 192.169H192.34L192.986 184.693C193.099 183.655 192.989 182.605 192.665 181.613C192.34 180.621 191.808 179.709 191.104 178.938C190.399 178.167 189.539 177.554 188.579 177.141C187.62 176.727 186.583 176.522 185.538 176.539C183.317 176.583 181.188 177.436 179.553 178.937C177.918 180.439 176.89 182.486 176.662 184.693L176.016 192.169H173.341L173.987 184.693C174.288 181.765 175.652 179.048 177.822 177.055C179.991 175.062 182.816 173.931 185.764 173.875C187.151 173.852 188.527 174.123 189.801 174.671C191.076 175.219 192.218 176.032 193.154 177.055C194.089 178.078 194.796 179.289 195.227 180.605C195.658 181.922 195.804 183.315 195.654 184.693L195.014 192.169Z" fill="#35498E"/>
<path d="M210.512 149.769L210.596 149.04C210.613 148.872 210.595 148.701 210.541 148.54C210.488 148.378 210.401 148.23 210.287 148.105C210.172 147.979 210.032 147.879 209.876 147.812C209.72 147.744 209.552 147.71 209.382 147.712C209.02 147.719 208.673 147.858 208.406 148.103C208.14 148.348 207.972 148.681 207.934 149.04L207.87 149.756C207.725 149.761 207.587 149.817 207.481 149.916C207.375 150.014 207.309 150.148 207.295 150.292L207.127 152.227C207.119 152.295 207.125 152.363 207.146 152.428C207.166 152.493 207.201 152.553 207.247 152.603C207.293 152.654 207.349 152.693 207.412 152.72C207.475 152.746 207.543 152.758 207.611 152.756H210.273C210.417 152.754 210.555 152.698 210.661 152.601C210.767 152.503 210.834 152.37 210.848 152.227L211.016 150.292C211.021 150.224 211.012 150.155 210.989 150.09C210.966 150.026 210.93 149.967 210.882 149.917C210.834 149.868 210.777 149.829 210.713 149.804C210.649 149.778 210.581 149.766 210.512 149.769ZM209.304 148.054C209.432 148.052 209.559 148.077 209.677 148.128C209.794 148.179 209.9 148.254 209.987 148.349C210.073 148.443 210.139 148.555 210.179 148.676C210.22 148.797 210.234 148.926 210.221 149.053L210.157 149.769H208.154L208.219 149.053C208.247 148.783 208.373 148.533 208.572 148.349C208.772 148.165 209.032 148.06 209.304 148.054Z" fill="#35498E"/>
<path d="M170.447 150.537L169.517 150.343C169.491 150.338 169.467 150.327 169.446 150.311C169.425 150.295 169.408 150.274 169.396 150.251C169.384 150.227 169.378 150.201 169.377 150.175C169.377 150.148 169.383 150.122 169.394 150.098L169.782 149.182C169.798 149.143 169.799 149.099 169.786 149.058C169.773 149.018 169.746 148.983 169.709 148.961C169.673 148.938 169.63 148.929 169.587 148.936C169.545 148.942 169.506 148.963 169.478 148.995L168.774 149.718C168.757 149.739 168.735 149.757 168.711 149.769C168.686 149.78 168.659 149.787 168.632 149.787C168.604 149.787 168.577 149.78 168.553 149.769C168.528 149.757 168.507 149.739 168.49 149.718L167.915 148.995C167.792 148.841 167.527 148.995 167.572 149.182L167.798 150.098C167.805 150.125 167.806 150.153 167.801 150.18C167.797 150.207 167.787 150.233 167.771 150.256C167.756 150.279 167.736 150.299 167.713 150.314C167.69 150.329 167.664 150.339 167.637 150.343L166.674 150.537C166.468 150.576 166.442 150.866 166.642 150.905L167.572 151.098C167.598 151.103 167.623 151.114 167.644 151.13C167.665 151.146 167.682 151.167 167.693 151.191C167.704 151.215 167.71 151.241 167.709 151.268C167.708 151.294 167.701 151.32 167.689 151.343L167.314 152.266C167.298 152.305 167.296 152.349 167.31 152.39C167.323 152.431 167.35 152.465 167.387 152.488C167.423 152.51 167.466 152.519 167.508 152.512C167.551 152.506 167.589 152.485 167.618 152.453L168.322 151.73C168.34 151.711 168.362 151.695 168.386 151.685C168.411 151.674 168.437 151.668 168.464 151.668C168.491 151.668 168.517 151.674 168.541 151.685C168.566 151.695 168.588 151.711 168.606 151.73L169.181 152.453C169.304 152.608 169.569 152.453 169.517 152.266L169.291 151.35C169.281 151.295 169.293 151.239 169.325 151.193C169.356 151.147 169.404 151.116 169.459 151.105L170.421 150.911C170.622 150.866 170.647 150.576 170.447 150.537Z" fill="#263238"/>
<path d="M176.558 150.537L175.628 150.343C175.602 150.338 175.578 150.327 175.557 150.311C175.536 150.295 175.519 150.274 175.507 150.251C175.495 150.227 175.489 150.201 175.489 150.175C175.488 150.148 175.494 150.122 175.505 150.098L175.893 149.182C175.909 149.143 175.911 149.099 175.897 149.058C175.884 149.018 175.857 148.983 175.82 148.961C175.784 148.938 175.741 148.929 175.698 148.936C175.656 148.942 175.617 148.963 175.589 148.995L174.885 149.718C174.868 149.739 174.847 149.757 174.822 149.769C174.797 149.78 174.77 149.787 174.743 149.787C174.716 149.787 174.689 149.78 174.664 149.769C174.639 149.757 174.618 149.739 174.601 149.718L174.026 148.995C173.903 148.841 173.638 148.995 173.69 149.182L173.916 150.098C173.922 150.126 173.922 150.154 173.916 150.181C173.911 150.208 173.9 150.234 173.884 150.257C173.869 150.279 173.848 150.299 173.825 150.314C173.802 150.329 173.776 150.339 173.748 150.343L172.786 150.537C172.579 150.576 172.553 150.866 172.753 150.905L173.684 151.098C173.709 151.104 173.734 151.115 173.755 151.131C173.776 151.147 173.793 151.167 173.805 151.191C173.816 151.215 173.823 151.241 173.823 151.267C173.823 151.293 173.818 151.319 173.806 151.343L173.419 152.259C173.403 152.299 173.401 152.343 173.414 152.383C173.428 152.424 173.455 152.459 173.491 152.481C173.528 152.504 173.571 152.512 173.613 152.506C173.655 152.5 173.694 152.479 173.722 152.446L174.426 151.724C174.445 151.704 174.467 151.689 174.491 151.678C174.516 151.667 174.542 151.662 174.569 151.662C174.595 151.662 174.622 151.667 174.646 151.678C174.671 151.689 174.693 151.704 174.711 151.724L175.286 152.446C175.408 152.601 175.673 152.446 175.628 152.259L175.402 151.343C175.396 151.317 175.396 151.289 175.401 151.262C175.406 151.235 175.416 151.21 175.431 151.187C175.446 151.164 175.466 151.145 175.489 151.129C175.511 151.114 175.537 151.104 175.563 151.098L176.526 150.905C176.733 150.866 176.759 150.576 176.558 150.537Z" fill="#263238"/>
<path d="M182.669 150.537L181.746 150.343C181.719 150.339 181.694 150.329 181.672 150.313C181.65 150.298 181.633 150.277 181.621 150.253C181.609 150.229 181.603 150.202 181.603 150.175C181.603 150.148 181.61 150.122 181.623 150.098L182.011 149.182C182.035 149.141 182.043 149.092 182.031 149.046C182.02 148.999 181.99 148.959 181.949 148.934C181.908 148.909 181.859 148.902 181.812 148.913C181.765 148.925 181.725 148.954 181.7 148.995L181.003 149.718C180.985 149.739 180.963 149.757 180.938 149.769C180.913 149.781 180.885 149.787 180.857 149.787C180.83 149.787 180.802 149.781 180.777 149.769C180.752 149.757 180.73 149.739 180.712 149.718L180.137 148.995C180.014 148.841 179.749 148.995 179.801 149.182L180.027 150.098C180.033 150.125 180.033 150.153 180.028 150.179C180.023 150.206 180.013 150.232 179.998 150.255C179.983 150.277 179.963 150.297 179.941 150.312C179.918 150.327 179.893 150.338 179.866 150.343L178.903 150.537C178.697 150.576 178.671 150.866 178.871 150.905L179.795 151.098C179.821 151.103 179.845 151.115 179.866 151.131C179.887 151.147 179.904 151.167 179.916 151.191C179.928 151.215 179.934 151.241 179.934 151.267C179.934 151.293 179.929 151.319 179.917 151.343L179.53 152.259C179.505 152.3 179.498 152.35 179.509 152.396C179.521 152.443 179.55 152.483 179.591 152.508C179.632 152.532 179.682 152.54 179.728 152.528C179.775 152.517 179.815 152.487 179.84 152.446L180.538 151.724C180.556 151.704 180.578 151.689 180.602 151.678C180.627 151.667 180.653 151.662 180.68 151.662C180.706 151.662 180.733 151.667 180.757 151.678C180.782 151.689 180.804 151.704 180.822 151.724L181.403 152.446C181.526 152.601 181.791 152.446 181.739 152.259L181.513 151.343C181.503 151.29 181.515 151.234 181.545 151.189C181.575 151.143 181.621 151.111 181.675 151.098L182.637 150.905C182.818 150.866 182.87 150.576 182.669 150.537Z" fill="#263238"/>
<path d="M188.787 150.537L187.857 150.343C187.831 150.338 187.807 150.327 187.786 150.311C187.765 150.295 187.748 150.274 187.736 150.251C187.724 150.227 187.718 150.201 187.717 150.175C187.717 150.148 187.723 150.122 187.734 150.098L188.122 149.182C188.138 149.143 188.139 149.099 188.126 149.058C188.113 149.018 188.086 148.983 188.049 148.961C188.013 148.938 187.97 148.929 187.927 148.936C187.885 148.942 187.846 148.963 187.818 148.995L187.114 149.718C187.097 149.739 187.075 149.757 187.051 149.769C187.026 149.78 186.999 149.787 186.972 149.787C186.944 149.787 186.917 149.78 186.893 149.769C186.868 149.757 186.847 149.739 186.83 149.718L186.255 148.995C186.132 148.841 185.867 148.995 185.912 149.182L186.138 150.098C186.145 150.125 186.146 150.153 186.141 150.18C186.137 150.207 186.126 150.233 186.111 150.256C186.096 150.279 186.076 150.299 186.053 150.314C186.03 150.329 186.004 150.339 185.977 150.343L185.014 150.537C184.808 150.576 184.782 150.866 185.014 150.905L185.945 151.098C185.971 151.103 185.995 151.114 186.016 151.13C186.037 151.146 186.054 151.167 186.065 151.191C186.077 151.215 186.082 151.241 186.081 151.268C186.081 151.294 186.074 151.32 186.061 151.343L185.68 152.259C185.664 152.299 185.662 152.343 185.675 152.383C185.689 152.424 185.716 152.459 185.752 152.481C185.789 152.504 185.832 152.512 185.874 152.506C185.917 152.5 185.955 152.479 185.983 152.446L186.688 151.724C186.706 151.704 186.728 151.689 186.752 151.678C186.777 151.667 186.803 151.662 186.83 151.662C186.856 151.662 186.883 151.667 186.907 151.678C186.932 151.689 186.954 151.704 186.972 151.724L187.547 152.446C187.669 152.601 187.934 152.446 187.883 152.259L187.657 151.343C187.647 151.289 187.659 151.232 187.691 151.187C187.722 151.141 187.77 151.109 187.824 151.098L188.787 150.905C188.961 150.866 188.987 150.576 188.787 150.537Z" fill="#263238"/>
<path d="M194.898 150.537L193.968 150.343C193.942 150.338 193.918 150.327 193.897 150.311C193.876 150.295 193.859 150.274 193.847 150.251C193.835 150.227 193.829 150.201 193.828 150.175C193.828 150.148 193.834 150.122 193.845 150.098L194.233 149.182C194.249 149.143 194.25 149.099 194.237 149.058C194.224 149.018 194.197 148.983 194.16 148.961C194.124 148.938 194.081 148.929 194.038 148.936C193.996 148.942 193.957 148.963 193.929 148.995L193.225 149.718C193.208 149.739 193.187 149.757 193.162 149.769C193.137 149.78 193.11 149.787 193.083 149.787C193.056 149.787 193.029 149.78 193.004 149.769C192.979 149.757 192.958 149.739 192.941 149.718L192.366 148.995C192.243 148.841 191.978 148.995 192.03 149.182L192.256 150.098C192.262 150.126 192.262 150.154 192.256 150.181C192.251 150.208 192.24 150.234 192.224 150.257C192.209 150.279 192.188 150.299 192.165 150.314C192.142 150.329 192.115 150.339 192.088 150.343L191.126 150.537C190.919 150.576 190.893 150.866 191.093 150.905L192.023 151.098C192.049 151.104 192.074 151.115 192.095 151.131C192.116 151.147 192.133 151.167 192.145 151.191C192.156 151.215 192.163 151.241 192.163 151.267C192.163 151.293 192.158 151.319 192.146 151.343L191.759 152.259C191.742 152.299 191.741 152.343 191.754 152.383C191.768 152.424 191.795 152.459 191.831 152.481C191.868 152.504 191.911 152.512 191.953 152.506C191.995 152.5 192.034 152.479 192.062 152.446L192.766 151.724C192.785 151.704 192.807 151.689 192.831 151.678C192.855 151.667 192.882 151.662 192.908 151.662C192.935 151.662 192.962 151.667 192.986 151.678C193.01 151.689 193.032 151.704 193.051 151.724L193.626 152.446C193.748 152.601 194.013 152.446 193.968 152.259L193.742 151.343C193.736 151.317 193.736 151.289 193.741 151.262C193.746 151.235 193.756 151.21 193.771 151.187C193.786 151.164 193.806 151.145 193.828 151.129C193.851 151.114 193.877 151.104 193.903 151.098L194.866 150.905C195.092 150.866 195.092 150.576 194.898 150.537Z" fill="#263238"/>
<path d="M201.009 150.537L200.079 150.344C200.053 150.339 200.029 150.328 200.008 150.311C199.987 150.295 199.97 150.274 199.958 150.251C199.947 150.227 199.942 150.2 199.942 150.174C199.943 150.147 199.95 150.122 199.963 150.098L200.35 149.182C200.363 149.162 200.371 149.14 200.374 149.116C200.378 149.093 200.377 149.069 200.371 149.046C200.366 149.022 200.355 149.001 200.341 148.982C200.327 148.963 200.309 148.946 200.289 148.934C200.269 148.922 200.246 148.914 200.223 148.91C200.199 148.906 200.175 148.908 200.152 148.913C200.129 148.919 200.107 148.929 200.088 148.943C200.069 148.957 200.053 148.975 200.04 148.995L199.343 149.718C199.325 149.739 199.303 149.757 199.278 149.769C199.253 149.781 199.225 149.787 199.197 149.787C199.17 149.787 199.142 149.781 199.117 149.769C199.092 149.757 199.07 149.739 199.052 149.718L198.477 148.995C198.354 148.841 198.089 148.995 198.141 149.182L198.367 150.098C198.373 150.125 198.373 150.153 198.368 150.179C198.363 150.206 198.353 150.232 198.338 150.255C198.323 150.277 198.303 150.297 198.281 150.312C198.258 150.328 198.233 150.338 198.206 150.344L197.243 150.537C197.036 150.576 197.011 150.866 197.211 150.905L198.135 151.098C198.161 151.104 198.185 151.115 198.206 151.131C198.227 151.147 198.244 151.167 198.256 151.191C198.268 151.215 198.274 151.241 198.274 151.267C198.274 151.293 198.269 151.319 198.257 151.343L197.87 152.259C197.845 152.3 197.837 152.35 197.849 152.396C197.86 152.443 197.89 152.483 197.931 152.508C197.972 152.532 198.022 152.54 198.068 152.528C198.115 152.517 198.155 152.487 198.18 152.446L198.878 151.724C198.896 151.704 198.918 151.689 198.942 151.678C198.967 151.667 198.993 151.662 199.02 151.662C199.046 151.662 199.073 151.667 199.097 151.678C199.122 151.689 199.144 151.704 199.162 151.724L199.737 152.446C199.767 152.48 199.808 152.503 199.852 152.51C199.897 152.518 199.943 152.511 199.982 152.489C200.022 152.467 200.053 152.433 200.071 152.391C200.089 152.349 200.091 152.303 200.079 152.259L199.853 151.343C199.843 151.29 199.855 151.234 199.885 151.189C199.915 151.143 199.961 151.111 200.015 151.098L200.977 150.905C201.184 150.866 201.21 150.576 201.009 150.537Z" fill="#263238"/>
<path d="M186.274 137.178H174.801C174.449 137.184 174.111 137.318 173.852 137.556C173.592 137.794 173.429 138.118 173.393 138.468C173.374 138.633 173.391 138.799 173.443 138.957C173.494 139.114 173.579 139.259 173.691 139.381C173.803 139.503 173.939 139.6 174.092 139.665C174.244 139.73 174.409 139.762 174.575 139.758H186.048C186.4 139.752 186.738 139.618 186.997 139.38C187.257 139.142 187.42 138.818 187.456 138.468C187.474 138.304 187.456 138.137 187.404 137.98C187.352 137.823 187.268 137.679 187.156 137.557C187.044 137.435 186.908 137.338 186.756 137.273C186.604 137.208 186.44 137.175 186.274 137.178Z" fill="#263238"/>
<path d="M197.928 137.178H191.268C190.916 137.184 190.579 137.319 190.321 137.557C190.063 137.795 189.901 138.119 189.866 138.468C189.847 138.632 189.864 138.798 189.915 138.955C189.966 139.112 190.05 139.257 190.161 139.379C190.273 139.501 190.409 139.598 190.561 139.663C190.712 139.729 190.876 139.761 191.042 139.758H197.676C198.027 139.752 198.364 139.617 198.623 139.379C198.881 139.141 199.043 138.817 199.078 138.468C199.096 138.306 199.08 138.142 199.03 137.987C198.981 137.832 198.899 137.689 198.791 137.567C198.682 137.445 198.55 137.348 198.401 137.281C198.252 137.214 198.091 137.179 197.928 137.178Z" fill="#263238"/>
<path d="M206.72 195.652C202.665 197.195 199.004 199.618 196.003 202.748C194.18 201.335 192.008 200.443 189.717 200.168L189.414 200.123L189.284 201.645L189.452 201.709C191.965 202.633 194.089 204.379 195.48 206.663L195.699 207.025L195.938 206.638C198.613 202.373 202.389 198.906 206.869 196.601L207.017 196.523L207.101 195.517L206.72 195.652Z" fill="#263238"/>
<path opacity="0.2" d="M148.993 68.647C148.17 70.0824 147.664 71.6769 147.508 73.3237L137.889 183.125H167.656L173.638 160.232L171.668 137.333L177.65 114.44L175.712 91.5465L181.694 68.647H148.993Z" fill="black"/>
<path d="M173.096 85.0895L179.078 62.1964H103.799L97.8238 85.0895L99.7876 107.989L93.8121 130.882L95.776 153.782L89.8005 176.675H165.072L171.054 153.782L169.084 130.882L175.066 107.989L173.096 85.0895Z" fill="#407BFF"/>
<path opacity="0.7" d="M173.096 85.0895L179.078 62.1964H103.799L97.8238 85.0895L99.7876 107.989L93.8121 130.882L95.776 153.782L89.8005 176.675H165.072L171.054 153.782L169.084 130.882L175.066 107.989L173.096 85.0895Z" fill="#F9F9F9"/>
<path opacity="0.5" d="M173.096 85.0895H97.8238L103.799 62.1964H179.078L173.096 85.0895Z" fill="#F9F9F9"/>
<path opacity="0.5" d="M169.084 130.882H93.8121L99.7876 107.989H175.066L169.084 130.882Z" fill="#F9F9F9"/>
<path opacity="0.5" d="M165.072 176.675H89.794L95.776 153.782H171.054L165.072 176.675Z" fill="#F9F9F9"/>
<path opacity="0.2" d="M163.025 94.6622C162.252 94.885 161.451 94.9937 160.647 94.9847C159.557 95.0329 158.472 94.8113 157.488 94.3396C157.31 94.2343 157.107 94.1786 156.901 94.1784C156.711 94.181 156.525 94.2297 156.358 94.3203H156.319C156.031 94.482 155.722 94.6056 155.402 94.688C154.679 94.8785 153.934 94.9718 153.186 94.9653C152.96 94.9653 152.74 94.9653 152.54 94.9653C151.96 94.9282 151.386 94.8265 150.828 94.6622C150.746 94.6378 150.662 94.6226 150.576 94.617C150.434 94.6054 150.291 94.6233 150.156 94.6696C150.021 94.7158 149.898 94.7895 149.793 94.8858C149.688 94.9821 149.604 95.0991 149.546 95.2293C149.489 95.3596 149.459 95.5003 149.459 95.6426V96.3393H120.156C119.618 96.3393 119.085 96.4453 118.587 96.6512C118.09 96.8572 117.638 97.159 117.258 97.5394C116.877 97.9199 116.576 98.3715 116.37 98.8684C116.165 99.3653 116.06 99.8978 116.06 100.435V104.557C116.059 105.095 116.163 105.629 116.368 106.126C116.573 106.624 116.875 107.076 117.255 107.458C117.636 107.839 118.088 108.141 118.586 108.347C119.083 108.554 119.617 108.66 120.156 108.66H153.444H153.664C154.019 108.957 154.394 109.253 154.795 109.557C155.195 109.86 155.764 110.279 156.287 110.653C156.465 110.782 156.68 110.852 156.901 110.852C157.121 110.852 157.336 110.782 157.514 110.653C161.7 107.621 164.388 105.531 164.388 99.7904V95.662C164.39 95.4969 164.352 95.3337 164.278 95.1859C164.205 95.0382 164.097 94.9101 163.963 94.8123C163.83 94.7146 163.675 94.65 163.512 94.6239C163.349 94.5977 163.182 94.6109 163.025 94.6622Z" fill="black"/>
<path d="M152.805 94.0687H119.523C117.257 94.0687 115.421 95.9026 115.421 98.1648V102.287C115.421 104.549 117.257 106.383 119.523 106.383H152.805C155.07 106.383 156.907 104.549 156.907 102.287V98.1648C156.907 95.9026 155.07 94.0687 152.805 94.0687Z" fill="#35498E"/>
<path d="M160.008 92.7141C158.918 92.7607 157.833 92.5391 156.849 92.069C156.674 91.9618 156.473 91.905 156.267 91.905C156.062 91.905 155.861 91.9618 155.686 92.069C154.7 92.5399 153.613 92.7615 152.521 92.7141C151.717 92.7226 150.916 92.614 150.143 92.3916C149.988 92.3393 149.822 92.3248 149.659 92.3493C149.497 92.3738 149.343 92.4365 149.21 92.5324C149.076 92.6282 148.968 92.7544 148.893 92.9004C148.819 93.0464 148.78 93.2081 148.78 93.372V97.5004C148.78 103.248 151.468 105.338 155.654 108.37C155.832 108.499 156.047 108.568 156.267 108.568C156.488 108.568 156.703 108.499 156.881 108.37C161.067 105.338 163.755 103.248 163.755 97.5004V93.372C163.754 93.2078 163.714 93.0461 163.639 92.9002C163.563 92.7543 163.454 92.6283 163.321 92.5326C163.187 92.4369 163.032 92.3742 162.87 92.3497C162.707 92.3252 162.541 92.3395 162.385 92.3916C161.613 92.6144 160.812 92.7231 160.008 92.7141Z" fill="#5468FF"/>
<path opacity="0.3" d="M160.143 92.7141C159.053 92.7623 157.968 92.5407 156.984 92.069C156.809 91.9612 156.606 91.9042 156.4 91.9042C156.193 91.9042 155.991 91.9612 155.815 92.069C154.831 92.5399 153.746 92.7615 152.656 92.7141C151.852 92.7231 151.051 92.6144 150.279 92.3916C150.123 92.3395 149.957 92.3252 149.794 92.3497C149.632 92.3742 149.477 92.4369 149.343 92.5326C149.21 92.6283 149.101 92.7543 149.025 92.9002C148.95 93.0461 148.91 93.2078 148.909 93.372V97.5004C148.909 103.248 151.597 105.338 155.783 108.37C155.963 108.498 156.179 108.567 156.4 108.567C156.621 108.567 156.837 108.498 157.017 108.37C161.196 105.338 163.884 103.248 163.884 97.5004V93.372C163.884 93.2081 163.845 93.0464 163.771 92.9004C163.696 92.7544 163.588 92.6282 163.454 92.5324C163.321 92.4366 163.167 92.3738 163.005 92.3493C162.842 92.3248 162.676 92.3393 162.521 92.3916C161.748 92.6144 160.947 92.7231 160.143 92.7141Z" fill="#F9F9F9"/>
<path opacity="0.2" d="M155.686 92.0561C154.7 92.5271 153.613 92.7486 152.521 92.7012C151.717 92.7093 150.916 92.6006 150.143 92.3787C149.988 92.3264 149.822 92.3119 149.659 92.3364C149.497 92.3609 149.343 92.4237 149.21 92.5195C149.076 92.6153 148.968 92.7415 148.893 92.8875C148.819 93.0335 148.78 93.1952 148.78 93.3591V97.4875C148.78 103.235 151.468 105.325 155.654 108.357C155.841 108.493 156.068 108.563 156.3 108.557V91.8884C156.083 91.8841 155.87 91.9424 155.686 92.0561Z" fill="#F9F9F9"/>
<path d="M162.269 96.378C159.751 97.3632 157.508 98.941 155.731 100.977C154.492 100.065 153.04 99.4857 151.513 99.2937H151.313V100.281L151.422 100.319C153.121 100.931 154.585 102.059 155.608 103.545L155.77 103.777L155.906 103.525C157.391 100.769 159.652 98.5087 162.411 97.0231L162.508 96.9779V96.3329L162.269 96.378Z" fill="#263238"/>
<path d="M177.747 68.6406H174.892C174.524 68.6474 174.16 68.5759 173.822 68.4309C173.485 68.2859 173.182 68.0707 172.934 67.7996C172.687 67.5286 172.5 67.2079 172.386 66.8591C172.273 66.5102 172.235 66.1411 172.275 65.7765L172.527 62.9253C172.605 62.1499 172.965 61.4299 173.539 60.9019C174.113 60.374 174.861 60.0748 175.641 60.0613H178.496C178.864 60.0535 179.229 60.1243 179.568 60.2689C179.906 60.4135 180.209 60.6286 180.458 60.8998C180.706 61.1709 180.893 61.4919 181.008 61.8412C181.122 62.1905 181.16 62.5602 181.119 62.9253L180.867 65.7765C180.78 66.5493 180.417 67.2647 179.843 67.791C179.27 68.3173 178.525 68.619 177.747 68.6406Z" fill="#35498E"/>
<path d="M178.936 62.9124L178.315 62.2351L176.752 63.6671L175.447 62.2351L174.704 62.9124L176.016 64.3445L174.459 65.7765L175.079 66.4602L176.636 65.0282L177.947 66.4602L178.684 65.7765L177.372 64.3445L178.936 62.9124Z" fill="#F9F9F9"/>
<path d="M113.935 93.2366C115.589 95.0363 117.165 96.9005 118.735 98.7776C120.305 100.655 121.823 102.571 123.334 104.493C123.399 104.577 123.373 104.544 123.386 104.57C123.399 104.596 123.386 104.602 123.386 104.609C123.397 104.633 123.413 104.655 123.431 104.673C123.486 104.752 123.556 104.818 123.637 104.869C123.718 104.92 123.808 104.954 123.903 104.97C123.976 104.98 124.05 104.98 124.122 104.97C124.161 104.973 124.2 104.973 124.239 104.97H124.297C124.329 104.97 124.297 104.97 124.4 104.931L126.015 104.054C128.186 102.906 130.376 101.784 132.637 100.777L134.53 103.119C132.708 104.79 130.809 106.886 128.89 108.421L127.443 109.557C127.353 109.63 127.258 109.697 127.159 109.757C127.049 109.834 126.935 109.905 126.816 109.969C126.582 110.104 126.341 110.224 126.093 110.331C125.592 110.541 125.067 110.686 124.529 110.763C123.443 110.922 122.333 110.811 121.299 110.44C120.774 110.254 120.274 110 119.814 109.686C119.581 109.531 119.361 109.35 119.168 109.176C119.058 109.086 118.967 108.982 118.864 108.886L118.606 108.628C116.894 106.873 115.208 105.106 113.554 103.306C111.9 101.506 110.266 99.6936 108.702 97.81L113.935 93.2366Z" fill="#B55B52"/>
<path d="M131.784 102.196L133.289 97.3649L137.256 99.3388C137.256 99.3388 136.674 102.861 133.793 103.474L131.784 102.196Z" fill="#B55B52"/>
<path d="M134.872 96.0297L138.451 97.0102L137.249 99.3388L133.283 97.365L134.872 96.0297Z" fill="#B55B52"/>
<path d="M93.0822 94.5525C92.6558 96.6038 92.1261 98.6357 91.577 100.661C91.0279 102.687 90.4271 104.693 89.8005 106.699L89.5679 107.454L89.4516 107.828C89.436 107.882 89.4144 107.934 89.387 107.983C89.3134 108.19 89.272 108.408 89.2643 108.628C89.2507 109.096 89.3814 109.558 89.639 109.95C89.766 110.122 89.9064 110.284 90.0589 110.434L90.5951 111.021L91.6545 112.201C92.3457 113.001 93.0434 113.801 93.7023 114.64L91.4478 117.22C90.5175 116.691 89.6261 116.117 88.7346 115.549L87.4103 114.672L86.7643 114.227C86.5446 114.072 86.3638 113.969 86.0085 113.678C84.7445 112.603 83.8723 111.14 83.5278 109.518C83.3544 108.691 83.313 107.842 83.4051 107.002C83.4051 106.796 83.4697 106.563 83.502 106.357L83.573 105.97L83.7087 105.196C84.0705 103.125 84.4581 101.061 84.8909 99.0099C85.3237 96.9586 85.7888 94.9137 86.3379 92.8947L93.0822 94.5525Z" fill="#B55B52"/>
<path d="M91.493 114.433L94.1545 113.072L95.3303 117.587C95.3303 117.587 93.192 118.407 91.5382 117.355L91.493 114.433Z" fill="#B55B52"/>
<path d="M97.8367 111.621L97.9594 115.768L94.9814 117.717L93.9478 113.156L97.8367 111.621Z" fill="#B55B52"/>
<path d="M106.551 73.2269C106.616 73.543 106.842 73.7687 107.049 73.73C107.255 73.6913 107.378 73.3946 107.314 73.085C107.249 72.7754 107.023 72.5431 106.816 72.5818C106.609 72.6205 106.487 72.9237 106.551 73.2269Z" fill="#263238"/>
<path d="M106.81 73.7752C107.391 74.6749 108.093 75.4909 108.896 76.2006C108.709 76.4017 108.481 76.5596 108.226 76.6632C107.972 76.7668 107.698 76.8137 107.423 76.8005L106.81 73.7752Z" fill="#A02724"/>
<path d="M105.02 71.6917C104.983 71.6912 104.947 71.6801 104.916 71.6596C104.885 71.6391 104.86 71.6101 104.845 71.5761C104.83 71.5421 104.825 71.5045 104.831 71.4678C104.837 71.4311 104.853 71.3968 104.878 71.3691C105.08 71.1406 105.334 70.9631 105.618 70.851C105.902 70.7389 106.208 70.6954 106.513 70.7241C106.538 70.7287 106.561 70.7383 106.583 70.7521C106.604 70.766 106.622 70.7839 106.637 70.8049C106.651 70.8259 106.661 70.8495 106.667 70.8743C106.672 70.8992 106.672 70.9249 106.668 70.9499C106.664 70.9746 106.655 70.9983 106.642 71.0196C106.628 71.0408 106.611 71.0592 106.591 71.0736C106.57 71.0881 106.547 71.0983 106.522 71.1036C106.498 71.1089 106.473 71.1093 106.448 71.1047C106.207 71.0816 105.964 71.1164 105.739 71.2062C105.514 71.2959 105.314 71.4381 105.156 71.6207C105.121 71.6608 105.073 71.6862 105.02 71.6917Z" fill="#263238"/>
<path d="M97.2359 77.723C97.9465 80.6838 98.6636 86.1087 96.1183 88.0761C96.1183 88.0761 97.1132 91.0821 103.87 91.0821C111.299 91.0821 107.423 89.1469 107.423 89.1469C103.366 88.36 103.47 84.8444 104.193 82.5415L97.2359 77.723Z" fill="#B55B52"/>
<path d="M95.3238 88.6244C94.8845 87.8052 94.3935 86.8634 95.4013 86.5667C96.5124 86.2442 103.638 85.6443 105.737 86.2506C105.091 87.3924 106.183 88.8308 106.183 88.8308L95.3238 88.6244Z" fill="#263238"/>
<path d="M101.228 227.041H105.886L106.351 217.675H101.687L101.228 227.041Z" fill="#B55B52"/>
<path d="M71.6479 225.751L76.3701 225.996L79.2384 216.771L74.5161 216.52L71.6479 225.751Z" fill="#B55B52"/>
<path d="M76.228 225.628L71.7771 224.667C71.6991 224.649 71.6175 224.659 71.5457 224.694C71.474 224.729 71.4166 224.788 71.383 224.861L69.8391 228.208C69.8011 228.29 69.7822 228.379 69.784 228.468C69.7857 228.558 69.8081 228.646 69.8492 228.726C69.8904 228.805 69.9493 228.875 70.0215 228.928C70.0936 228.982 70.1771 229.018 70.2654 229.034C71.8223 229.344 72.5975 229.415 74.5549 229.84C75.7564 230.098 78.4761 230.763 80.1363 231.13C81.7965 231.498 82.3715 229.898 81.7255 229.602C78.8185 228.279 77.604 227.112 76.8159 226.022C76.6744 225.823 76.4654 225.683 76.228 225.628Z" fill="#263238"/>
<path d="M105.64 226.57H101.215C101.135 226.571 101.058 226.599 100.996 226.649C100.934 226.699 100.89 226.769 100.873 226.847L100.072 230.44C100.051 230.527 100.051 230.618 100.07 230.705C100.09 230.792 100.13 230.874 100.186 230.943C100.242 231.013 100.313 231.069 100.394 231.107C100.475 231.145 100.564 231.164 100.653 231.163C102.249 231.163 104.529 231.04 106.564 231.04C108.909 231.04 110.931 231.169 113.67 231.169C115.33 231.169 115.796 229.492 115.098 229.337C111.926 228.647 109.342 228.57 106.603 226.886C106.317 226.696 105.984 226.586 105.64 226.57Z" fill="#263238"/>
<path d="M87.6751 89.4436C84.1609 91.1143 83.2048 101.242 83.2048 101.242L91.9064 105.254C93.3773 102.777 94.1786 99.9605 94.232 97.0811C94.4064 91.8497 91.2733 87.76 87.6751 89.4436Z" fill="#263238"/>
<path opacity="0.4" d="M92.378 95.6878C90.8082 98.1261 90.9568 101.893 91.4995 105.073L91.8871 105.254C93.3565 102.776 94.1578 99.9603 94.2127 97.0811C94.2127 96.7715 94.2127 96.4361 94.2127 96.1587L92.378 95.6878Z" fill="black"/>
<path d="M111.958 89.1985C111.958 89.1985 116.274 94.0622 112.197 124.161H90.5369C90.3883 120.839 92.4749 104.641 89.2449 88.9921C91.6388 88.5323 94.0598 88.2263 96.493 88.0761C99.5612 87.9018 102.637 87.9018 105.705 88.0761C107.815 88.2895 109.906 88.6648 111.958 89.1985Z" fill="#407BFF"/>
<path opacity="0.6" d="M111.958 89.1985C111.958 89.1985 116.274 94.0622 112.197 124.161H90.5369C90.3883 120.839 92.4749 104.641 89.2449 88.9921C91.6388 88.5323 94.0598 88.2263 96.493 88.0761C99.5612 87.9018 102.637 87.9018 105.705 88.0761C107.815 88.2895 109.906 88.6648 111.958 89.1985Z" fill="#FAFAFA"/>
<path opacity="0.2" d="M113.851 98.397L113.774 98.3261L109.465 96.0297C109.025 102.654 111.991 106.809 113.754 108.621C113.975 105.218 114.008 101.804 113.851 98.397Z" fill="black"/>
<path opacity="0.2" d="M106.351 217.675L106.112 222.5H101.448L101.687 217.675H106.351Z" fill="black"/>
<path opacity="0.2" d="M74.5161 216.52L79.2384 216.771L77.759 221.532L73.0368 221.28L74.5161 216.52Z" fill="black"/>
<path d="M95.7372 74.717C96.7773 78.5873 97.1907 80.916 99.6132 82.5286C103.218 84.954 107.701 82.1674 107.843 78.0584C107.966 74.3622 106.248 68.6405 102.081 67.86C101.161 67.6783 100.21 67.7351 99.3181 68.025C98.4264 68.315 97.6241 68.8284 96.9878 69.5162C96.3515 70.204 95.9024 71.0433 95.6834 71.9538C95.4645 72.8643 95.483 73.8157 95.7372 74.717Z" fill="#B55B52"/>
<path d="M104.516 124.161C104.516 124.161 99.9168 155.065 97.4104 166.651C94.6326 179.358 79.8133 221.287 79.8133 221.287L72.5587 219.719C72.5587 219.719 81.8547 185.531 84.1868 167.805C85.0912 160.884 86.1829 149.744 87.5653 140.435C88.9025 131.405 90.5498 124.167 90.5498 124.167L104.516 124.161Z" fill="#263238"/>
<path d="M81.5511 218.868L80.1945 221.487L72.0419 219.719L72.7267 217.275L81.5511 218.868Z" fill="#407BFF"/>
<path opacity="0.6" d="M81.5511 218.868L80.1945 221.487L72.0419 219.719L72.7267 217.275L81.5511 218.868Z" fill="#F9F9F9"/>
<path opacity="0.6" d="M101.609 135.172C96.2928 136.21 96.8548 156.007 97.4943 166.186C99.0318 158.987 101.273 145.144 102.804 135.314C102.434 135.132 102.012 135.081 101.609 135.172Z" fill="black"/>
<path d="M112.197 124.161C112.197 124.161 114.361 154.401 113.922 166.734C113.463 179.565 107.372 221.564 107.372 221.564H100.511C100.511 221.564 100.259 180.281 99.9556 167.708C99.6197 153.969 97.9594 124.154 97.9594 124.154L112.197 124.161Z" fill="#263238"/>
<path d="M108.69 218.842C108.722 218.842 108.302 221.687 108.302 221.687H99.9556L99.7295 219.145L108.69 218.842Z" fill="#407BFF"/>
<path opacity="0.6" d="M108.69 218.842C108.722 218.842 108.302 221.687 108.302 221.687H99.9556L99.7295 219.145L108.69 218.842Z" fill="#F9F9F9"/>
<path d="M109.432 94.8557C109.432 102.97 113.754 106.312 113.754 106.312L120.802 99.4614C119.134 96.6776 117.234 94.0386 115.124 91.5723C111.047 86.9086 109.432 89.6436 109.432 94.8557Z" fill="#263238"/>
<path opacity="0.2" d="M107.572 79.5291C107.428 79.9358 107.187 80.3012 106.87 80.5935C106.552 80.8858 106.168 81.0962 105.75 81.2063C105.291 81.2998 104.874 81.5385 104.561 81.887C104.248 82.2355 104.056 82.6753 104.012 83.1414C104.849 82.8621 105.607 82.3893 106.226 81.7615C106.845 81.1337 107.306 80.3688 107.572 79.5291Z" fill="black"/>
<path d="M105.75 67.0086C107.197 65.183 104.969 65.0734 104.969 65.0734C105.55 62.8995 102.94 64.0671 102.94 64.0671C101.377 61.9126 100.492 64.538 100.492 64.538C98.8703 62.7125 98.5538 65.6926 98.5538 65.6926C96.9258 63.3769 96.099 66.7183 96.099 66.7183C94.6002 64.3122 93.6829 67.4407 93.6829 67.4407C90.5886 66.3377 92.055 69.5501 92.055 69.5501C89.4193 69.621 91.5382 71.6659 91.5382 71.6659C88.3728 71.6659 91.1635 73.4785 91.1635 73.4785C88.6506 75.1234 91.8095 75.5685 91.8095 75.5685C89.7617 78.7937 93.2824 77.581 93.2824 77.581C91.8547 80.7547 95.0137 79.3549 95.0137 79.3549C94.8134 82.4125 96.577 81.5804 97.4297 81.0127C97.5912 81.6578 97.9013 82.3029 98.4698 82.3545C99.5744 82.5028 99.7618 80.4193 99.7618 80.4193C99.7618 80.4193 100.782 81.2192 101.642 80.787C102.501 80.3548 102.178 79.2646 102.178 79.2646C102.364 79.4039 102.591 79.4791 102.824 79.4791C103.057 79.4791 103.283 79.4039 103.47 79.2646C103.838 78.9808 103.838 76.9295 103.373 76.2071L105.053 75.562C105.053 75.562 106.299 75.3878 105.744 73.743C105.409 72.7976 105.379 71.7709 105.66 70.8079C107.559 69.9178 105.996 68.8728 105.996 68.8728C108.199 67.4601 105.75 67.0086 105.75 67.0086Z" fill="#263238"/>
<path d="M102.346 74.8589C102.609 75.8213 103.183 76.6696 103.98 77.2714C105.033 78.0584 105.821 77.2714 105.744 76.091C105.679 75.0202 105.046 73.3237 103.883 73.0011C102.72 72.6786 102.068 73.7172 102.346 74.8589Z" fill="#B55B52"/>
</g>
<defs>
<clipPath id="clip0_18_614">
<rect width="323" height="240" fill="white"/>
</clipPath>
</defs>
</svg>
