<svg width="318" height="256" viewBox="0 0 318 256" fill="none" xmlns="http://www.w3.org/2000/svg">
<g clip-path="url(#clip0_13_1426)">
<path d="M124.085 229.299C182.868 241.044 234.352 227.724 262.727 204.094C274.392 194.343 286.216 179.407 290.543 162.079C306.295 99.0659 259.855 46.8808 223.964 66.6023C165.042 98.5075 156.288 75.775 108.313 27.1195C72.0823 -9.65136 -42.9305 41.8159 16.9487 149.995C27.9772 170.201 43.2741 187.762 61.7759 201.457C80.2777 215.152 101.54 224.653 124.085 229.299Z" fill="#D9DAEB"/>
<path d="M35.5449 17.984L22.6091 23.9779L29.2063 38.2172L42.1421 32.2232L35.5449 17.984Z" fill="#E9A65F"/>
<path d="M22.1412 16.7317L30.952 12.6491C31.9523 12.1857 33.034 11.9238 34.1355 11.8784C35.2369 11.833 36.3366 12.005 37.3716 12.3846C38.4066 12.7641 39.3566 13.3439 40.1676 14.0907C40.9786 14.8375 41.6345 15.7367 42.098 16.737L42.2992 17.1712C42.3703 17.3248 42.3775 17.5003 42.3192 17.6592C42.261 17.8181 42.142 17.9473 41.9885 18.0185L17.8716 29.1932L17.6704 28.759C16.6633 26.5852 16.5608 24.1004 17.3857 21.8512C18.2106 19.6019 19.8952 17.7724 22.0688 16.7653L22.1412 16.7317Z" fill="#122052"/>
<path d="M98.3432 52.4443C102.477 61.3481 103.876 71.278 102.364 80.9774C100.852 90.6768 96.4968 99.7096 89.8495 106.933C83.2023 114.156 74.5617 119.245 65.0214 121.555C55.4811 123.865 45.4699 123.293 36.2547 119.911C27.0396 116.529 19.0348 110.49 13.2534 102.557C7.47193 94.6234 4.17375 85.1533 3.77624 75.3448C3.37873 65.5363 5.89973 55.8304 11.0202 47.4553C16.1408 39.0802 23.6306 32.4125 32.5418 28.296C44.4723 22.7905 58.0989 22.241 70.4339 26.7678C82.7689 31.2946 92.8056 40.5283 98.3432 52.4443Z" fill="#E9A65F"/>
<path d="M90.5069 55.8143C90.7661 56.3726 91.0053 56.931 91.2446 57.4893C95.269 67.2841 95.3497 78.2559 91.4697 88.1087C87.5896 97.9616 80.0497 105.932 70.4275 110.352C68.4906 111.242 66.4913 111.988 64.4455 112.586C61.1998 113.517 57.8507 114.039 54.4756 114.141C53.8375 114.141 53.2194 114.141 52.4816 114.141C47.8185 114.091 43.1986 113.241 38.8229 111.629C38.1051 111.369 37.4072 111.09 36.7093 110.791C30.0142 107.927 24.2094 103.321 19.8999 97.4507C18.6154 95.719 17.4751 93.885 16.4903 91.967C16.2112 91.4286 15.9519 90.8901 15.6927 90.3318C13.4213 85.4394 12.1377 80.1469 11.9153 74.7576C11.6928 69.3682 12.5362 63.9879 14.3967 58.925C16.729 52.5346 20.6087 46.822 25.6891 42.2982C30.7695 37.7744 36.8919 34.5804 43.5087 33.002C46.1266 32.3878 48.7976 32.0272 51.4846 31.9252C56.0123 31.7649 60.5349 32.3648 64.8643 33.6999C65.6021 33.9193 66.3198 34.1586 67.0377 34.4178C71.3853 36.0372 75.4297 38.3763 79.0015 41.3373L80.4173 42.5736C82.9123 44.8226 85.1161 47.3749 86.9775 50.171C88.2984 51.9578 89.4785 53.8445 90.5069 55.8143Z" fill="#EBEBFB"/>
<path d="M91.2445 57.4893C95.2689 67.2841 95.3496 78.2558 91.4696 88.1087C87.5896 97.9616 80.0496 105.932 70.4274 110.352C68.4906 111.242 66.4912 111.988 64.4454 112.586C61.1997 113.517 57.8506 114.039 54.4755 114.141C53.8375 114.141 53.2193 114.141 52.4815 114.141C47.8184 114.091 43.1985 113.241 38.8228 111.629C38.105 111.369 37.4071 111.09 36.7092 110.791C30.0141 107.927 24.2093 103.321 19.8999 97.4507C18.6153 95.719 17.475 93.885 16.4902 91.967C14.2387 86.4709 13.2044 80.5523 13.4587 74.6184C13.713 68.6844 15.2498 62.876 17.9633 57.5928C20.6768 52.3095 24.5026 47.6769 29.1775 44.0136C33.8524 40.3503 39.2654 37.7433 45.044 36.372C47.6617 35.7566 50.3328 35.396 53.02 35.2952C57.5542 35.135 62.0832 35.7348 66.4195 37.0699L68.573 37.7878C72.9199 39.4089 76.964 41.7479 80.5369 44.7073L81.9526 45.9436C85.5681 49.2261 88.5665 53.1297 90.8058 57.4694L91.2445 57.4893Z" fill="white"/>
<path d="M42.5116 49.6925C42.3448 49.7674 42.1552 49.7739 41.9837 49.7105C41.8121 49.6471 41.6723 49.5189 41.5943 49.3535L38.9225 43.6105C38.8475 43.4437 38.8411 43.2541 38.9044 43.0826C38.9678 42.9111 39.096 42.7712 39.2614 42.6932C39.4282 42.6183 39.6178 42.6118 39.7894 42.6752C39.9609 42.7386 40.1007 42.8668 40.1787 43.0322L42.8505 48.7752C42.9255 48.942 42.9319 49.1316 42.8686 49.3031C42.8052 49.4747 42.677 49.6145 42.5116 49.6925Z" fill="#122052"/>
<path d="M67.3167 103.473C67.2346 103.513 67.1452 103.536 67.054 103.54C66.9628 103.544 66.8715 103.53 66.7859 103.499C66.7002 103.467 66.6219 103.418 66.5555 103.356C66.4891 103.293 66.436 103.218 66.3995 103.134L63.7476 97.3909C63.6726 97.2241 63.6661 97.0345 63.7295 96.8629C63.7929 96.6914 63.9211 96.5516 64.0865 96.4736C64.2533 96.3986 64.4429 96.3922 64.6144 96.4556C64.786 96.519 64.9258 96.6472 65.0038 96.8126L67.6557 102.556C67.6955 102.638 67.7184 102.727 67.7229 102.818C67.7273 102.91 67.7133 103.001 67.6816 103.086C67.6499 103.172 67.6013 103.25 67.5386 103.317C67.4759 103.383 67.4004 103.436 67.3167 103.473Z" fill="#122052"/>
<path d="M29.8499 83.9309C29.8897 84.013 29.9125 84.1024 29.9169 84.1936C29.9214 84.2848 29.9073 84.376 29.8757 84.4617C29.844 84.5474 29.7954 84.6258 29.7327 84.6922C29.67 84.7586 29.5945 84.8116 29.5108 84.8481L23.7881 87.5002C23.7045 87.5405 23.6136 87.5636 23.521 87.5683C23.4283 87.573 23.3356 87.5591 23.2483 87.5276C23.1611 87.496 23.081 87.4473 23.0127 87.3844C22.9445 87.3215 22.8896 87.2457 22.851 87.1613C22.7761 86.9944 22.7696 86.8049 22.833 86.6333C22.8964 86.4618 23.0245 86.322 23.1899 86.244L28.9326 83.5919C29.0148 83.552 29.1041 83.5292 29.1954 83.5247C29.2866 83.5203 29.3778 83.5343 29.4635 83.5659C29.5491 83.5976 29.6275 83.6462 29.6939 83.7089C29.7603 83.7717 29.8134 83.8471 29.8499 83.9309Z" fill="#122052"/>
<path d="M83.6275 59.0048C83.6673 59.087 83.6902 59.1764 83.6947 59.2676C83.6991 59.3588 83.6851 59.45 83.6534 59.5357C83.6217 59.6213 83.5731 59.6998 83.5104 59.7662C83.4477 59.8326 83.3722 59.8856 83.2885 59.9221L77.5658 62.6141C77.4849 62.6546 77.3966 62.6785 77.3062 62.6843C77.2159 62.6901 77.1253 62.6778 77.0398 62.6481C76.9543 62.6183 76.8757 62.5718 76.8085 62.5112C76.7413 62.4505 76.6869 62.377 76.6485 62.2951C76.6081 62.2141 76.5843 62.1259 76.5784 62.0355C76.5726 61.9452 76.5849 61.8546 76.6146 61.7691C76.6443 61.6836 76.6909 61.605 76.7515 61.5378C76.8121 61.4705 76.8857 61.4162 76.9677 61.3778L82.7102 58.7057C82.8722 58.6279 83.058 58.6155 83.2289 58.6713C83.3998 58.727 83.5425 58.8465 83.6275 59.0048Z" fill="#122052"/>
<path d="M64.1196 41.3943L61.4695 48.6208L62.7612 49.0945L65.4113 41.868L64.1196 41.3943Z" fill="#122052"/>
<path d="M41.714 104.49C41.5438 104.427 41.4049 104.3 41.3267 104.136C41.2486 103.972 41.2374 103.784 41.2953 103.612L43.4887 97.6302C43.5518 97.46 43.6787 97.3211 43.8425 97.2429C44.0063 97.1647 44.194 97.1534 44.366 97.2114C44.5377 97.2786 44.6769 97.4093 44.7549 97.5763C44.8328 97.7434 44.8436 97.934 44.7848 98.1088L42.6113 104.091C42.5444 104.262 42.4128 104.4 42.2447 104.475C42.0767 104.55 41.8859 104.555 41.714 104.49Z" fill="#122052"/>
<path d="M29.0323 64.2094C28.9692 64.3796 28.8423 64.5185 28.6785 64.5967C28.5147 64.6748 28.3269 64.6861 28.1549 64.6281L22.173 62.4347C22.0872 62.406 22.0083 62.3599 21.9412 62.2994C21.874 62.2389 21.82 62.1652 21.7826 62.0828C21.7452 62.0005 21.7251 61.9113 21.7237 61.8209C21.7222 61.7305 21.7394 61.6407 21.7742 61.5573C21.8373 61.3871 21.9642 61.2482 22.128 61.17C22.2918 61.0918 22.4796 61.0805 22.6515 61.1385L28.6335 63.332C28.7192 63.3606 28.7983 63.4067 28.8654 63.4672C28.9326 63.5277 28.9866 63.6015 29.024 63.6838C29.0614 63.7661 29.0815 63.8553 29.0829 63.9457C29.0843 64.0362 29.0671 64.1259 29.0323 64.2094Z" fill="#122052"/>
<path d="M84.6843 84.549C84.6553 84.6349 84.6093 84.714 84.5491 84.7818C84.489 84.8496 84.4159 84.9047 84.3341 84.9437C84.2523 84.9827 84.1635 85.005 84.0729 85.0091C83.9824 85.0132 83.892 84.9992 83.807 84.9678L77.8251 82.7942C77.6534 82.727 77.5142 82.5964 77.4362 82.4293C77.3583 82.2623 77.3475 82.0716 77.4063 81.8969C77.4731 81.7256 77.6049 81.5876 77.773 81.513C77.941 81.4383 78.1316 81.4329 78.3036 81.4981L84.2855 83.6716C84.3696 83.7026 84.4466 83.75 84.5123 83.811C84.5779 83.8721 84.6308 83.9455 84.6679 84.0271C84.705 84.1087 84.7256 84.1968 84.7284 84.2864C84.7312 84.376 84.7163 84.4652 84.6843 84.549Z" fill="#122052"/>
<path d="M70.1682 72.5845L56.7487 73.3821V72.1857L70.1682 71.408C70.2441 71.4026 70.3205 71.4122 70.3927 71.4364C70.4649 71.4605 70.5317 71.4987 70.5891 71.5487C70.6466 71.5988 70.6936 71.6597 70.7274 71.7279C70.7612 71.7961 70.7812 71.8704 70.7863 71.9464C70.7919 72.03 70.7799 72.1138 70.7511 72.1924C70.7223 72.271 70.6773 72.3428 70.6191 72.4029C70.5608 72.4631 70.4906 72.5103 70.4129 72.5416C70.3352 72.5729 70.2519 72.5875 70.1682 72.5845Z" fill="#5B6BC8"/>
<path d="M54.0369 73.3821L35.0142 82.196C34.8712 82.257 34.71 82.2599 34.5648 82.2041C34.4196 82.1482 34.3019 82.038 34.2366 81.8969C34.203 81.8276 34.1837 81.7523 34.1796 81.6755C34.1755 81.5986 34.1867 81.5218 34.2127 81.4493C34.2387 81.3769 34.279 81.3104 34.331 81.2537C34.383 81.197 34.4458 81.1513 34.5158 81.1192L52.4616 72.8039L45.6821 58.1673C45.6136 58.0245 45.6043 57.8603 45.6567 57.7108C45.709 57.5612 45.8185 57.4386 45.9612 57.3697C46.0331 57.3364 46.1109 57.3177 46.1901 57.3147C46.2693 57.3118 46.3483 57.3246 46.4226 57.3524C46.4968 57.3802 46.5647 57.4225 46.6224 57.4769C46.6801 57.5312 46.7265 57.5964 46.7588 57.6688L54.0369 73.3821Z" fill="#122052"/>
<path d="M56.7487 71.4678C57.0697 72.1629 57.1772 72.9375 57.0577 73.6937C56.9382 74.4498 56.597 75.1535 56.0774 75.7157C55.5578 76.2779 54.8831 76.6732 54.1387 76.8517C53.3942 77.0302 52.6136 76.9838 51.8956 76.7183C51.1775 76.4529 50.5544 75.9804 50.1051 75.3606C49.6557 74.7408 49.4003 74.0016 49.3712 73.2366C49.3421 72.4716 49.5407 71.7152 49.9417 71.0631C50.3428 70.411 50.9283 69.8926 51.6242 69.5735C52.0847 69.3593 52.5831 69.2385 53.0906 69.2179C53.598 69.1973 54.1046 69.2774 54.5809 69.4535C55.0573 69.6296 55.4941 69.8982 55.8661 70.2439C56.2382 70.5897 56.5382 71.0056 56.7487 71.4678Z" fill="#122052"/>
<path d="M54.1964 75.1369C53.928 75.2679 53.6364 75.3447 53.3383 75.3629C53.0403 75.3812 52.7415 75.3405 52.4592 75.2433C52.1768 75.1461 51.9164 74.9942 51.6927 74.7963C51.469 74.5985 51.2865 74.3585 51.1556 74.0901C51.0247 73.8217 50.9478 73.5301 50.9296 73.232C50.9114 72.9339 50.952 72.6351 51.0492 72.3528C51.1464 72.0704 51.2983 71.8099 51.4961 71.5862C51.694 71.3625 51.934 71.18 52.2024 71.0491C52.4703 70.922 52.761 70.8497 53.0572 70.8361C53.3535 70.8226 53.6495 70.8682 53.9279 70.9703C54.2063 71.0724 54.4615 71.229 54.6788 71.4308C54.8961 71.6326 55.071 71.8757 55.1933 72.1458C55.4462 72.6766 55.4835 73.2846 55.2976 73.8423C55.1117 74.4 54.717 74.864 54.1964 75.1369Z" fill="#575960"/>
<path d="M177.245 83.9308C175.898 83.9346 174.557 84.1156 173.257 84.4692C171.351 84.9928 169.567 85.8871 168.007 87.1008C166.447 88.3146 165.142 89.824 164.166 91.5428C163.19 93.2615 162.562 95.1559 162.319 97.1174C162.076 99.079 162.222 101.069 162.749 102.974L163.367 105.208L163.965 107.202C164.384 108.558 164.802 109.894 165.241 111.19C166.118 113.862 167.056 116.514 168.053 119.166C169.05 121.818 170.047 124.451 171.283 127.143C172.519 129.835 173.676 132.387 175.012 135.019C176.348 137.651 177.763 140.244 179.359 142.856C180.993 145.563 182.763 148.185 184.662 150.713C186.78 153.509 189.135 156.118 191.701 158.509C193.166 159.865 194.718 161.124 196.347 162.278C197.225 162.876 198.162 163.475 199.159 164.053L199.538 164.272C199.678 164.357 199.824 164.431 199.976 164.492L200.913 164.97C201.532 165.289 202.19 165.549 202.907 165.808C205.37 166.776 207.952 167.407 210.584 167.682C212.904 167.922 215.243 167.922 217.563 167.682C221.419 167.257 225.202 166.318 228.809 164.89C231.902 163.686 234.902 162.253 237.782 160.603C240.442 159.085 243.024 157.434 245.519 155.658C250.234 152.292 254.729 148.628 258.978 144.69C260.972 142.696 263.086 140.702 264.96 138.708C265.937 137.691 266.954 136.714 267.871 135.637L269.307 134.042L270.822 132.347C272.811 130.138 273.89 127.259 273.842 124.287C273.795 121.315 272.624 118.472 270.566 116.328C268.508 114.184 265.715 112.898 262.748 112.729C259.781 112.56 256.859 113.521 254.571 115.417L254.033 115.856L252.737 116.913L251.301 118.05C250.344 118.807 249.307 119.585 248.41 120.323C246.416 121.818 244.422 123.314 242.428 124.71C238.581 127.506 234.587 130.096 230.464 132.467C228.47 133.603 226.476 134.6 224.582 135.498C222.807 136.3 220.974 136.967 219.099 137.492C217.774 137.908 216.399 138.143 215.011 138.19C214.706 138.203 214.401 138.156 214.114 138.05C213.974 138.05 214.114 137.95 214.114 137.95H214.313L177.245 83.9308Z" fill="#EAAD91"/>
<path d="M214.473 138.23C214.299 138.113 214.133 137.986 213.974 137.851C213.481 137.471 213.015 137.058 212.578 136.614C211.366 135.374 210.252 134.041 209.248 132.626C208.092 131.011 206.935 129.216 205.819 127.322C204.702 125.428 203.645 123.334 202.608 121.34C201.571 119.346 200.614 117.112 199.578 114.919C198.541 112.725 197.583 110.512 196.746 108.239C196.088 106.623 195.45 104.988 194.752 103.353C194.513 102.715 194.254 102.077 194.014 101.359L192.758 97.9492L192.16 96.2542L191.622 94.6988L191.402 94.0807C190.338 91.0263 188.308 88.4015 185.62 86.6029L214.473 138.23Z" fill="#EAAD91"/>
<path d="M278.38 109.196C278.38 109.196 289.606 105.068 295.967 107.202C297.679 107.629 299.166 108.69 300.128 110.17C301.09 111.65 301.456 113.439 301.151 115.178C301.151 115.178 280.254 114.46 278.38 109.196Z" fill="#EAAD91"/>
<path d="M318 168.3C294.572 170.759 270.964 170.986 247.493 168.978C247.892 167.722 248.41 165.947 248.968 163.814L249.467 161.959C252.139 151.73 255.967 135.179 258.46 124.291C259.317 120.542 260.015 117.471 260.454 115.557L304.022 115.038C304.202 115.816 304.441 116.753 304.72 117.85C307.093 127.462 312.437 148.898 315.906 161.241C316.086 161.879 316.245 162.498 316.425 163.076C317.023 165.17 317.561 166.964 318 168.3Z" fill="#DE7061"/>
<path d="M262.445 121.467L253.719 162.24L254.421 162.39L263.147 121.617L262.445 121.467Z" fill="#BD493F"/>
<path d="M301.851 117.434L301.152 117.597L311.487 161.729L312.186 161.565L301.851 117.434Z" fill="#BD493F"/>
<path d="M293.554 141.301C293.573 143.595 292.912 145.844 291.655 147.762C290.397 149.681 288.598 151.184 286.486 152.081C284.375 152.978 282.044 153.229 279.79 152.803C277.536 152.376 275.459 151.29 273.821 149.683C272.184 148.076 271.059 146.02 270.59 143.774C270.12 141.528 270.327 139.193 271.184 137.065C272.041 134.936 273.51 133.11 275.405 131.816C277.299 130.522 279.535 129.818 281.829 129.795C283.355 129.779 284.869 130.064 286.284 130.634C287.699 131.204 288.988 132.047 290.077 133.116C291.166 134.185 292.034 135.458 292.63 136.862C293.227 138.267 293.541 139.775 293.554 141.301Z" fill="#BD493F"/>
<path d="M316.405 163.016C305.295 164.276 294.126 164.941 282.946 165.01C271.632 165.139 260.318 164.7 249.048 163.694L249.547 161.84C271.656 163.786 293.904 163.545 315.966 161.122C316.066 161.82 316.225 162.438 316.405 163.016Z" fill="#BD493F"/>
<path d="M304.7 117.79L258.46 124.231C259.317 120.482 260.015 117.411 260.454 115.497L304.022 114.979C304.182 115.756 304.421 116.694 304.7 117.79Z" fill="#BD493F"/>
<path d="M259.507 110.618L304.908 110.174C305.727 110.166 306.517 110.484 307.102 111.058C307.687 111.632 308.021 112.415 308.029 113.235L308.032 113.594C308.036 114 307.96 114.402 307.808 114.779C307.657 115.155 307.432 115.498 307.148 115.788C306.864 116.078 306.526 116.309 306.152 116.468C305.779 116.627 305.377 116.711 304.972 116.715L259.571 117.158C258.757 117.166 257.972 116.851 257.391 116.28C256.809 115.71 256.478 114.932 256.47 114.118L256.467 113.759C256.459 112.939 256.777 112.15 257.351 111.565C257.925 110.979 258.708 110.646 259.527 110.638L259.507 110.618Z" fill="#DE7061"/>
<path d="M263.086 110.592C263.086 110.592 269.666 104.948 274.272 105.068C278.878 105.188 284.86 110.193 286.356 114.181C287.851 118.169 277.881 113.044 277.881 113.044L269.167 110.472L263.086 110.592Z" fill="#EAAD91"/>
<path d="M193.695 93.4027C193.695 93.4027 199.079 104.749 201.831 110.372C204.334 115.18 207.11 119.84 210.146 124.331L189.388 158.33C189.388 158.33 178.062 146.206 177.823 131.49C177.584 116.773 174.752 91.628 193.695 93.4027Z" fill="#5B6BC8"/>
<path d="M208.71 149.875H208.55C208.457 149.856 208.369 149.819 208.29 149.765C208.211 149.712 208.144 149.643 208.092 149.563C208.04 149.483 208.004 149.394 207.987 149.3C207.97 149.207 207.972 149.111 207.992 149.018C208.821 144.988 210.707 141.251 213.456 138.19C213.52 138.109 213.602 138.042 213.694 137.994C213.786 137.947 213.887 137.919 213.991 137.913C214.095 137.908 214.198 137.924 214.295 137.961C214.392 137.998 214.48 138.055 214.554 138.128C214.627 138.202 214.684 138.29 214.721 138.387C214.758 138.484 214.775 138.588 214.769 138.691C214.763 138.795 214.735 138.896 214.688 138.988C214.64 139.081 214.574 139.162 214.492 139.227C211.953 142.093 210.201 145.57 209.408 149.317C209.369 149.473 209.279 149.613 209.153 149.714C209.027 149.814 208.871 149.871 208.71 149.875Z" fill="#E2806D"/>
<path d="M207.573 141.021C207.403 141.009 207.243 140.938 207.119 140.82C206.995 140.703 206.916 140.546 206.895 140.377C206.874 140.208 206.912 140.036 207.003 139.892C207.094 139.748 207.232 139.64 207.394 139.586L213.795 137.97C213.971 137.952 214.148 137.997 214.294 138.099C214.44 138.2 214.544 138.351 214.587 138.523C214.631 138.695 214.611 138.877 214.531 139.035C214.452 139.194 214.318 139.319 214.154 139.386L207.733 141.001L207.573 141.021Z" fill="#E2806D"/>
<path d="M112.161 84.0704C113.441 83.5447 114.781 83.1764 116.149 82.9737C117.206 82.8142 118.143 82.6147 119.18 82.4153C122.662 81.6734 126.047 80.536 129.27 79.0254L130.247 78.5667C132.352 77.5199 134.355 76.2782 136.229 74.8578L161.632 75.7352C163.925 79.0453 167.873 80.2817 170.984 81.7174L172.021 82.176C172.659 82.4552 173.317 82.7144 174.015 82.9537C176.447 83.8511 178.94 84.4892 181.313 85.1671C187.634 86.9818 193.157 89.1553 194.692 96.7727C196.108 103.892 190.704 118.548 191.223 148.26C191.223 150.433 191.342 152.687 191.442 155.04C191.542 157.393 191.701 159.487 191.861 161.84L191.981 163.196C192.1 164.95 192.26 166.765 192.459 168.599C192.658 170.434 192.878 172.707 193.137 174.841C193.396 176.975 193.695 179.248 194.034 181.561C195.789 193.904 196.906 203.197 198.9 219.608C199.877 227.584 203.785 245.93 202.608 246.847C194.951 263.917 144.943 252.072 107.456 251.792C107.202 250.802 107.009 249.796 106.877 248.781C103.767 240.267 99.6393 215.121 96.9076 199.248C96.2495 195.38 95.9304 191.95 95.7111 189.717C95.4918 187.483 95.3921 184.951 95.2326 182.698C94.2031 171.629 93.8103 160.51 94.0561 149.396C94.0561 148.778 94.0561 148.16 94.0561 147.542C94.5147 138.13 91.2047 125.148 90.5068 114.281C90.7262 114.221 85.5617 93.283 112.161 84.0704Z" fill="#5B6BC8"/>
<path d="M191.103 154.661C191.197 154.664 191.291 154.647 191.378 154.612C191.466 154.576 191.545 154.523 191.61 154.456C191.676 154.388 191.727 154.308 191.76 154.219C191.793 154.131 191.807 154.037 191.801 153.943L191.083 113.643C191.083 113.549 191.064 113.457 191.028 113.371C190.992 113.285 190.939 113.207 190.872 113.142C190.805 113.077 190.725 113.026 190.638 112.992C190.551 112.958 190.459 112.942 190.365 112.945C190.271 112.942 190.177 112.958 190.09 112.994C190.003 113.029 189.924 113.082 189.858 113.15C189.792 113.217 189.742 113.298 189.709 113.386C189.676 113.474 189.662 113.569 189.667 113.663L190.365 153.963C190.368 154.057 190.389 154.15 190.428 154.236C190.466 154.322 190.521 154.4 190.59 154.465C190.658 154.53 190.739 154.58 190.827 154.614C190.915 154.648 191.009 154.664 191.103 154.661Z" fill="#273A8E"/>
<path d="M190.764 126.664C190.91 126.663 191.052 126.619 191.172 126.537C191.293 126.456 191.387 126.34 191.442 126.205L194.114 119.605C194.18 119.43 194.175 119.237 194.101 119.065C194.026 118.894 193.888 118.759 193.715 118.688C193.628 118.649 193.534 118.629 193.438 118.628C193.343 118.628 193.248 118.647 193.16 118.684C193.072 118.721 192.993 118.776 192.927 118.846C192.862 118.915 192.811 118.997 192.778 119.086L190.106 125.667C190.039 125.844 190.044 126.041 190.118 126.215C190.192 126.39 190.331 126.529 190.505 126.604C190.586 126.643 190.674 126.663 190.764 126.664Z" fill="#273A8E"/>
<path d="M113.477 251.254H113.737C113.913 251.187 114.056 251.053 114.134 250.881C114.213 250.71 114.22 250.514 114.155 250.337C104.365 223.536 101.593 194.503 100.995 174.761C100.569 162.521 100.915 150.266 102.032 138.07C102.043 137.978 102.036 137.885 102.011 137.796C101.985 137.707 101.943 137.624 101.885 137.552C101.828 137.48 101.757 137.419 101.676 137.375C101.595 137.33 101.506 137.302 101.414 137.292C101.32 137.278 101.225 137.283 101.134 137.307C101.043 137.331 100.957 137.373 100.883 137.431C100.808 137.489 100.746 137.561 100.7 137.643C100.655 137.726 100.626 137.817 100.616 137.911C99.4735 150.165 99.1204 162.481 99.5594 174.781C100.178 194.582 102.969 223.835 112.819 250.815C112.872 250.946 112.963 251.059 113.08 251.137C113.198 251.215 113.336 251.256 113.477 251.254Z" fill="#273A8E"/>
<path d="M171.383 221.223C177.531 221.211 183.661 220.543 189.667 219.229C189.85 219.182 190.007 219.067 190.107 218.907C190.207 218.748 190.242 218.556 190.206 218.372C190.187 218.279 190.15 218.191 190.096 218.113C190.042 218.035 189.973 217.969 189.893 217.918C189.813 217.868 189.723 217.834 189.629 217.82C189.536 217.805 189.44 217.81 189.348 217.833C164.643 223.177 146.458 216.697 135.511 210.316C128.623 206.371 122.536 201.169 117.565 194.981C117.453 194.829 117.286 194.726 117.099 194.696C116.913 194.667 116.722 194.712 116.568 194.822C116.416 194.933 116.313 195.101 116.283 195.287C116.254 195.474 116.299 195.665 116.409 195.819C121.46 202.186 127.696 207.516 134.773 211.512C145.887 217.968 158.53 221.322 171.383 221.223Z" fill="#273A8E"/>
<path d="M167.175 208.94C168.827 208.928 170.475 208.775 172.1 208.481C172.195 208.467 172.285 208.433 172.366 208.383C172.447 208.332 172.517 208.266 172.571 208.187C172.625 208.109 172.663 208.02 172.681 207.927C172.7 207.833 172.699 207.737 172.679 207.644C172.645 207.46 172.54 207.296 172.387 207.188C172.235 207.08 172.046 207.036 171.861 207.065C152.639 210.515 142.949 191.91 142.849 191.731C142.753 191.583 142.605 191.475 142.435 191.429C142.265 191.382 142.083 191.4 141.925 191.479C141.767 191.558 141.644 191.692 141.579 191.857C141.514 192.021 141.512 192.203 141.573 192.369C143.531 195.918 146.088 199.102 149.13 201.781C154.051 206.319 160.481 208.87 167.175 208.94Z" fill="#273A8E"/>
<path d="M156.807 98.1686C161.163 98.1264 165.378 96.6158 168.771 93.8813C168.917 93.7637 169.011 93.5935 169.034 93.4071C169.056 93.2208 169.004 93.0331 168.89 92.8842C168.835 92.8071 168.765 92.7423 168.684 92.694C168.603 92.6457 168.512 92.6149 168.418 92.6036C168.324 92.5923 168.229 92.6008 168.139 92.6286C168.048 92.6563 167.965 92.7026 167.893 92.7646C166.008 94.2893 163.831 95.412 161.495 96.0635C159.16 96.7151 156.716 96.8818 154.314 96.5534C142.111 94.8783 131.902 81.4781 131.802 81.3385C131.68 81.214 131.517 81.1382 131.343 81.1252C131.169 81.1122 130.996 81.163 130.857 81.268C130.718 81.373 130.622 81.5251 130.586 81.6958C130.551 81.8666 130.579 82.0444 130.666 82.196C131.084 82.7743 141.313 96.1545 154.115 97.9691C155.007 98.0951 155.906 98.1618 156.807 98.1686Z" fill="#273A8E"/>
<path d="M171.064 14.3574C173.124 16.5321 174.376 19.3473 174.613 22.3337C175.934 24.9759 176.532 27.9203 176.348 30.8684C175.757 33.9643 174.89 37.0008 173.755 39.9414C173.755 39.9414 170.426 21.2569 166.138 20.2997C162.786 19.3442 159.57 17.9637 156.567 16.1919C156.567 16.1919 158.82 11.1868 171.064 14.3574Z" fill="#122052"/>
<path d="M125.92 30.1704C125.92 30.1704 124.444 34.7568 126.538 37.0101C128.632 39.2634 126.359 42.9924 129.15 45.146C131.942 47.2996 136.388 45.9835 136.388 45.9835C136.388 45.9835 137.565 22.573 139.658 20.3795C139.658 20.3795 131.902 20.4393 125.92 30.1704Z" fill="#122052"/>
<path d="M161.812 71.8666V78.5667C161.052 79.178 160.253 79.7376 159.419 80.2418C147.734 87.2609 135.112 78.5667 135.112 78.5667V55.256L158.621 69.8925L161.812 71.8666Z" fill="#EAAD91"/>
<path d="M161.812 71.6872V78.5668C161.052 79.178 160.253 79.7376 159.419 80.2418C149.449 76.2536 142.211 65.8445 142.211 65.8445L158.621 69.8327L161.812 71.6872Z" fill="#122052"/>
<path d="M170.226 42.0153C170.226 42.0153 174.055 37.5087 176.208 42.0153C178.362 46.5219 176.707 55.6947 170.884 54.1991L170.226 42.0153Z" fill="#E2806D"/>
<path d="M174.294 57.8682C174.294 57.8682 174.294 71.8268 159.838 71.8268C145.381 71.8268 135.631 60.5004 135.132 59.8623L134.973 56.931L134.155 41.7361L133.716 33.6202C133.716 33.6202 131.882 19.0036 145.68 16.3315C155.83 14.3374 165.341 16.0723 170.146 21.3766C170.303 21.5402 170.45 21.7133 170.585 21.895C172.157 23.836 173.109 26.2054 173.317 28.6948L173.775 43.2915V46.8609L174.294 57.8682Z" fill="#EAAD91"/>
<path d="M154.972 45.126C154.972 46.1231 152.978 46.9606 150.306 46.9606C147.634 46.9606 145.64 46.1231 145.64 45.126C145.64 44.129 147.634 43.2915 150.306 43.2915C152.978 43.2915 154.972 44.109 154.972 45.126Z" fill="#E2806D"/>
<path d="M173.975 46.9007C173.596 46.9211 173.217 46.9211 172.838 46.9007C170.266 46.9007 168.172 46.0632 168.172 45.0662C168.172 44.0692 170.266 43.2117 172.838 43.2117C173.177 43.1907 173.516 43.1907 173.855 43.2117L173.975 46.9007Z" fill="#E2806D"/>
<path d="M140.057 40.6792C140.057 40.6792 144.344 49.4731 148.91 47.8779C153.529 46.202 158.589 46.202 163.207 47.8779C163.207 47.8779 169.987 43.4111 174.314 46.1031C177.225 47.9377 176.487 67.2603 166.697 70.4708C156.906 73.6813 143.367 70.8297 139.718 61.6171C137.531 56.1301 136.245 50.3256 135.91 44.4281L140.057 40.6792Z" fill="#122052"/>
<path d="M164.144 53.5012C158.84 53.7404 154.294 49.3934 154.175 49.3335C154.065 49.2217 154.004 49.0714 154.004 48.9148C154.004 48.7582 154.065 48.6078 154.175 48.496C154.29 48.3851 154.443 48.3232 154.603 48.3232C154.763 48.3232 154.917 48.3851 155.032 48.496C155.331 48.7951 162.37 55.5152 168.711 50.4901C168.822 50.3805 168.973 50.3191 169.129 50.3191C169.286 50.3191 169.436 50.3805 169.548 50.4901C169.647 50.6178 169.691 50.7789 169.673 50.9391C169.654 51.0993 169.574 51.2459 169.448 51.3476C167.951 52.6058 166.095 53.3594 164.144 53.5012Z" fill="#415999"/>
<path d="M147.176 32.3639C147.525 33.1468 148.169 33.761 148.967 34.0743C149.765 34.3876 150.654 34.3749 151.443 34.0389C152.502 33.5733 153.604 33.2126 154.733 32.9621C155.135 32.8764 155.514 32.7095 155.849 32.4716C156.184 32.2336 156.466 31.9297 156.679 31.5786C156.892 31.2275 157.031 30.8365 157.087 30.4297C157.143 30.023 157.116 29.609 157.006 29.2133C157.006 29.2133 150.187 28.5951 147.176 32.3639Z" fill="#122052"/>
<path d="M173.357 32.3639C173.007 33.1468 172.364 33.761 171.566 34.0743C170.768 34.3876 169.878 34.3749 169.089 34.0389C168.031 33.5733 166.929 33.2126 165.799 32.9621C165.399 32.8738 165.021 32.7053 164.688 32.4667C164.355 32.2281 164.073 31.9243 163.861 31.5739C163.649 31.2235 163.509 30.8336 163.452 30.4279C163.394 30.0221 163.42 29.6089 163.526 29.2133C163.526 29.2133 170.266 28.5951 173.357 32.3639Z" fill="#122052"/>
<path d="M170.665 21.9349C168.392 21.1372 166.677 21.9349 163.227 23.4304C158.103 25.6837 152.38 23.6498 147.275 21.0774C142.171 18.505 139.18 22.0745 140.915 24.4474C142.649 26.8204 142.45 28.7147 140.536 31.7258C138.621 34.7368 144.145 36.1327 141.094 38.4857C140.56 38.9585 140.202 39.5987 140.079 40.3014C139.955 41.0042 140.074 41.7279 140.416 42.3542C140.542 42.7013 140.574 43.0754 140.508 43.4387C140.443 43.8019 140.283 44.1415 140.044 44.4229C139.805 44.7043 139.496 44.9175 139.148 45.041C138.8 45.1645 138.426 45.1938 138.063 45.126C136.408 44.7072 134.075 41.776 134.075 41.776L133.637 33.66C133.637 33.66 131.802 19.0434 145.6 16.3714C155.75 14.3773 165.261 16.1121 170.067 21.4164C170.278 21.5746 170.478 21.7479 170.665 21.9349Z" fill="#122052"/>
<path d="M154.713 39.5426C154.713 40.9384 154.075 42.0552 153.297 42.0552C152.52 42.0552 151.881 40.9384 151.881 39.5426C151.881 38.1467 152.52 37.0101 153.297 37.0101C154.075 37.0101 154.713 38.1467 154.713 39.5426Z" fill="#122052"/>
<path d="M168.691 39.5426C168.691 40.9384 168.073 42.0552 167.275 42.0552C166.477 42.0552 165.879 40.9384 165.879 39.5426C165.879 38.1467 166.497 37.0101 167.275 37.0101C168.053 37.0101 168.691 38.1467 168.691 39.5426Z" fill="#122052"/>
<path d="M139.658 54.2589C139.658 54.4184 137.664 58.6658 135.132 59.9022L134.973 56.9709C136.755 56.5164 138.376 55.5778 139.658 54.2589Z" fill="#122052"/>
<path d="M137.106 44.6674C137.106 44.6674 131.543 37.1896 127.455 43.0721C124.105 47.9177 130.466 60.5403 137.106 56.2131V44.6674Z" fill="#EAAD91"/>
<path d="M136.348 53.88C136.206 53.8766 136.07 53.8224 135.964 53.7274C135.858 53.6324 135.789 53.5027 135.77 53.3616C135.598 51.704 134.996 50.1201 134.024 48.7666C133.051 47.4131 131.743 46.3369 130.227 45.6445C130.157 45.6181 130.092 45.5779 130.038 45.5261C129.984 45.4744 129.94 45.4122 129.911 45.3434C129.881 45.2745 129.865 45.2004 129.865 45.1253C129.864 45.0503 129.879 44.9759 129.908 44.9067C129.934 44.8364 129.974 44.7722 130.026 44.7179C130.078 44.6635 130.14 44.6202 130.209 44.5904C130.278 44.5606 130.352 44.545 130.427 44.5446C130.502 44.5441 130.576 44.5587 130.646 44.5877C132.358 45.3549 133.839 46.5578 134.941 48.0764C136.043 49.595 136.728 51.3761 136.927 53.242C136.938 53.3944 136.891 53.5455 136.794 53.6642C136.698 53.7829 136.56 53.8601 136.408 53.88H136.348Z" fill="#122052"/>
<path d="M131.005 50.4104C130.92 50.4096 130.836 50.3894 130.76 50.3514C130.684 50.3134 130.617 50.2585 130.566 50.191C130.513 50.139 130.471 50.077 130.442 50.0085C130.413 49.94 130.398 49.8665 130.398 49.7922C130.398 49.7179 130.413 49.6444 130.442 49.5759C130.471 49.5074 130.513 49.4453 130.566 49.3934C131.104 48.9083 131.735 48.5365 132.42 48.3001C133.105 48.0638 133.831 47.9676 134.554 48.0174C134.701 48.0551 134.828 48.1496 134.907 48.2803C134.985 48.411 135.009 48.5673 134.973 48.7154C134.935 48.8631 134.84 48.9899 134.71 49.0683C134.579 49.1468 134.423 49.1704 134.275 49.1341C133.298 48.8749 131.782 49.8719 131.284 50.2708C131.204 50.3404 131.108 50.3885 131.005 50.4104Z" fill="#122052"/>
<path d="M161.512 46.5418C161.429 46.5576 161.343 46.5546 161.261 46.5334C161.178 46.5121 161.102 46.4729 161.036 46.4186C160.971 46.3644 160.918 46.2963 160.882 46.2194C160.846 46.1425 160.827 46.0585 160.827 45.9735C160.827 45.8885 160.846 45.8046 160.882 45.7276C160.918 45.6507 160.971 45.5827 161.036 45.5284C161.102 45.4741 161.178 45.435 161.261 45.4137C161.343 45.3924 161.429 45.3895 161.512 45.4052C162.168 45.4406 162.822 45.3135 163.417 45.0352C164.012 44.7569 164.529 44.3361 164.922 43.81C162.629 39.1039 160.376 34.358 160.336 34.2982C160.279 34.1598 160.277 34.0053 160.328 33.8651C160.38 33.7249 160.482 33.609 160.615 33.5404C160.682 33.5066 160.754 33.4865 160.829 33.4813C160.903 33.476 160.978 33.4857 161.049 33.5099C161.119 33.5341 161.184 33.5722 161.24 33.6219C161.296 33.6717 161.341 33.7322 161.373 33.7997L166.079 43.5906C166.113 43.6658 166.13 43.7473 166.13 43.8299C166.13 43.9124 166.113 43.994 166.079 44.0692C165.623 44.8657 164.955 45.5193 164.148 45.9562C163.341 46.3931 162.428 46.5959 161.512 46.5418Z" fill="#122052"/>
<path d="M125.481 34.2184L132.52 27.8972L133.437 27.0796L135.431 25.2849C149.549 17.6077 167.694 17.7872 167.694 17.7872C167.694 17.7872 163.506 3.82865 146.478 3.98818C141.188 3.90985 136.011 5.52375 131.702 8.5945C131.084 9.07308 130.486 9.5716 129.928 10.0901C126.806 13.0119 124.749 16.8931 124.085 21.1173C122.809 29.5922 125.481 34.2184 125.481 34.2184Z" fill="#DE7061"/>
<path d="M132.52 27.8972L133.437 27.0796C131.938 25.4088 130.856 23.4062 130.281 21.2363C129.705 19.0664 129.653 16.7909 130.127 14.5967C130.444 12.5535 130.972 10.5487 131.702 8.61443C131.084 9.093 130.486 9.59152 129.928 10.11C129.504 11.5284 129.177 12.9741 128.951 14.4371C128.464 16.8039 128.532 19.2515 129.152 21.5871C129.771 23.9228 130.924 26.0828 132.52 27.8972Z" fill="#BD493F"/>
<path d="M154.334 7.03911C149.337 6.05207 144.151 6.9318 139.758 9.51175L141.333 14.138C145.702 12.3895 150.292 11.2553 154.972 10.768L154.334 7.03911Z" fill="#BD493F"/>
<path d="M174.613 22.4135C174.613 22.4135 194.054 10.3293 183.845 2.47266C173.636 -5.38401 149.947 5.96231 135.989 24.946C135.989 24.9858 162.789 12.3832 174.613 22.4135Z" fill="#BD493F"/>
<path d="M154.514 177.014L153.317 177.812L152.221 178.55L150.027 179.966C148.571 180.883 147.096 181.78 145.62 182.678C142.669 184.446 139.672 186.147 136.628 187.783C130.403 191.196 123.947 194.167 117.306 196.676C113.715 198.01 110.046 199.122 106.319 200.006C102.137 201.004 97.8567 201.533 93.5575 201.582C91.0285 201.592 88.5044 201.358 86.0203 200.884C83.1409 200.316 80.3508 199.364 77.7253 198.052C76.2866 197.319 74.9125 196.465 73.6177 195.5C72.9796 195.021 72.3416 194.503 71.6237 193.964C71.3047 193.705 71.0256 193.406 70.7265 193.127L70.5869 193.007L70.0884 192.469C69.7694 192.13 69.4304 191.731 69.1712 191.392C68.677 190.761 68.2305 190.095 67.8352 189.398L67.3168 188.421L66.9379 187.563L66.7584 187.124L66.6388 186.726C66.6388 186.486 66.4593 186.227 66.3796 185.968C66.2998 185.709 66.1403 185.051 66.0207 184.592C65.901 184.133 65.8612 183.814 65.8013 183.415C65.6233 182.261 65.5366 181.094 65.5421 179.926C65.5421 178.969 65.5421 178.131 65.6617 177.413C65.7814 176.695 65.8213 175.998 65.901 175.419C66.2363 173.263 66.689 171.126 67.2569 169.018C67.7554 167.024 68.2939 165.349 68.8522 163.614C69.9688 160.184 71.1253 156.934 72.3417 153.644C74.0831 149.137 75.871 144.724 77.7055 140.403L79.5 136.236C79.6595 135.837 79.839 135.458 80.0184 135.059C82.6704 128.977 85.4022 122.995 88.1739 117.112C89.5497 114.121 90.9654 111.13 92.3811 108.199L94.5147 103.752L96.708 99.2653C98.5775 95.4416 101.889 92.5172 105.915 91.1354C109.94 89.7536 114.35 90.0276 118.173 91.8972C121.997 93.7667 124.921 97.0786 126.303 101.104C127.685 105.13 127.41 109.54 125.541 113.363L125.262 113.902L125.142 114.121L122.909 118.249L120.656 122.437C119.18 125.255 117.711 128.066 116.249 130.871C113.717 135.797 111.224 140.842 108.812 145.687C108.473 146.425 108.114 147.143 107.775 147.861C106.857 149.735 105.98 151.63 105.103 153.504C103.328 157.293 101.613 161.062 100.038 164.811C98.8416 167.622 97.725 170.414 96.748 173.086V173.226C97.9456 173.113 99.1368 172.94 100.317 172.707C102.917 172.214 105.482 171.547 107.994 170.713C113.516 168.856 118.9 166.61 124.105 163.993C126.797 162.677 129.469 161.261 132.081 159.786C133.397 159.048 134.713 158.29 136.069 157.532L138.063 156.376L139.818 155.279L140.197 155.04C143.131 153.314 146.619 152.79 149.932 153.575C153.244 154.36 156.125 156.395 157.973 159.255C159.821 162.114 160.493 165.577 159.848 168.919C159.203 172.262 157.292 175.227 154.514 177.194V177.014Z" fill="#EAAD91"/>
<path d="M108.971 145.568C108.632 146.306 108.273 147.024 107.934 147.741C107.017 149.616 106.14 151.51 105.262 153.385L77.8649 140.383L79.6595 136.216L108.971 145.568Z" fill="#E2806D"/>
<path d="M173.097 163.574C168.451 170.414 157.624 171.91 157.624 171.91C154.306 171.839 151.091 170.746 148.418 168.78C145.745 166.813 143.744 164.069 142.689 160.922C141.68 158.593 141.429 156.004 141.971 153.524C143.766 146.365 138.482 135.338 142.39 133.005C145.401 131.191 149.768 144.112 149.768 144.112C149.768 144.112 160.475 133.803 162.888 133.524C165.301 133.244 167.235 136.654 166.517 139.326C167.271 139.524 167.978 139.871 168.596 140.347C169.214 140.822 169.731 141.417 170.116 142.095C170.5 142.774 170.745 143.522 170.836 144.296C170.927 145.071 170.862 145.856 170.645 146.605C171.91 147.271 172.937 148.314 173.583 149.589C174.23 150.865 174.464 152.309 174.254 153.724C174.254 153.724 176.387 154.422 176.387 158.071C176.387 159.566 173.097 163.574 173.097 163.574Z" fill="#EAAD91"/>
<path d="M85.2227 178.809C85.0641 178.812 84.9089 178.763 84.7814 178.668C84.6539 178.574 84.5613 178.44 84.518 178.287C84.4747 178.135 84.4832 177.972 84.5421 177.825C84.6011 177.677 84.7072 177.554 84.8438 177.473C88.3787 175.503 92.1246 173.938 96.0102 172.807C96.1004 172.776 96.1959 172.765 96.2908 172.772C96.3858 172.78 96.4782 172.807 96.5622 172.852C96.6463 172.897 96.7204 172.959 96.7797 173.033C96.8391 173.108 96.8826 173.194 96.9075 173.286C96.964 173.471 96.9454 173.671 96.8559 173.842C96.7664 174.014 96.613 174.143 96.4289 174.203C92.6701 175.299 89.0452 176.81 85.6215 178.709C85.4978 178.772 85.3615 178.807 85.2227 178.809Z" fill="#E2806D"/>
<path d="M95.4717 174.283C95.3304 174.28 95.1925 174.238 95.0729 174.163C92.6279 173.021 89.9243 172.546 87.2366 172.787C87.1341 172.811 87.0277 172.813 86.9245 172.792C86.8213 172.772 86.7238 172.729 86.6383 172.668C86.5528 172.607 86.4814 172.528 86.429 172.436C86.3765 172.345 86.3442 172.244 86.3342 172.139C86.3241 172.034 86.3366 171.929 86.3708 171.829C86.405 171.73 86.4599 171.638 86.5322 171.562C86.6044 171.485 86.6923 171.425 86.7897 171.386C86.8871 171.346 86.9918 171.327 87.097 171.331C90.1144 171.052 93.1503 171.611 95.8706 172.947C95.9508 172.997 96.0202 173.063 96.0748 173.141C96.1293 173.219 96.1679 173.307 96.1883 173.399C96.2087 173.492 96.2106 173.588 96.1937 173.681C96.1768 173.775 96.1415 173.864 96.0899 173.944C96.0233 174.047 95.9319 174.132 95.8239 174.192C95.716 174.251 95.5949 174.282 95.4717 174.283Z" fill="#E2806D"/>
<path d="M134.813 158.589C134.813 158.589 139.658 172.767 148.771 180.524C150.993 180.245 153.015 179.098 154.394 177.334C147.871 171.07 142.954 163.327 140.057 154.761C138.963 154.995 137.931 155.457 137.028 156.117C136.124 156.777 135.37 157.619 134.813 158.589Z" fill="#33062B"/>
<path d="M148.193 161.919C149.155 163.253 149.695 164.845 149.743 166.488C149.791 168.132 149.344 169.753 148.461 171.14C147.578 172.527 146.298 173.618 144.789 174.27C143.279 174.922 141.608 175.106 139.993 174.798C138.377 174.49 136.891 173.704 135.728 172.542C134.564 171.38 133.775 169.896 133.464 168.281C133.153 166.666 133.334 164.995 133.983 163.484C134.633 161.973 135.721 160.691 137.106 159.806C137.973 159.216 138.947 158.803 139.973 158.59C141 158.377 142.058 158.368 143.087 158.564C144.117 158.761 145.098 159.158 145.974 159.734C146.85 160.309 147.604 161.052 148.193 161.919Z" fill="#33062B"/>
<path d="M144.205 171.032C143.252 171.55 142.17 171.78 141.089 171.693C140.008 171.606 138.976 171.207 138.119 170.543C137.262 169.879 136.616 168.98 136.261 167.956C135.906 166.931 135.857 165.825 136.12 164.774C136.383 163.722 136.947 162.769 137.742 162.032C138.537 161.295 139.53 160.806 140.599 160.624C141.667 160.441 142.766 160.574 143.761 161.006C144.755 161.438 145.602 162.15 146.199 163.056C146.601 163.708 146.869 164.434 146.986 165.191C147.104 165.948 147.068 166.721 146.883 167.464C146.697 168.208 146.364 168.906 145.904 169.519C145.444 170.132 144.867 170.646 144.205 171.032Z" fill="white"/>
<path d="M129.928 103.293C129.928 103.872 130.067 104.45 130.107 105.068C130.885 120.383 112.261 151.052 112.261 151.052L109.888 150.114L108.951 149.735L93.2186 143.474L92.2615 143.095L75.0135 136.236C76.5602 131.526 78.46 126.94 80.6964 122.516C80.9756 121.938 81.2548 121.34 81.5738 120.702C83.5678 116.714 86.0004 111.589 89.3502 104.849C91.1162 101.054 93.4792 97.5663 96.3491 94.5194L97.0869 93.8015C98.5362 92.4651 100.12 91.2823 101.813 90.272C104.742 88.4673 108.11 87.4985 111.551 87.4704C114.992 87.4423 118.375 88.3559 121.334 90.1125C124.911 93.9977 127.816 98.4524 129.928 103.293Z" fill="#5B6BC8"/>
<path d="M112.301 151.789C112.181 151.787 112.064 151.752 111.962 151.69C111.876 151.647 111.799 151.588 111.737 151.516C111.674 151.444 111.626 151.359 111.597 151.268C111.567 151.177 111.556 151.081 111.564 150.986C111.572 150.89 111.599 150.797 111.643 150.713L127.455 121.001C127.545 120.832 127.699 120.705 127.882 120.649C128.065 120.593 128.263 120.612 128.432 120.702C128.602 120.792 128.728 120.945 128.784 121.128C128.84 121.312 128.821 121.51 128.731 121.679L112.939 151.391C112.88 151.51 112.789 151.61 112.676 151.68C112.564 151.751 112.434 151.788 112.301 151.789Z" fill="#273A8E"/>
<path d="M124.265 129.216C124.099 129.219 123.937 129.162 123.809 129.056C123.681 128.95 123.595 128.802 123.567 128.638C123.547 128.545 123.545 128.449 123.562 128.355C123.579 128.262 123.615 128.172 123.667 128.092C123.718 128.013 123.786 127.944 123.865 127.89C123.943 127.837 124.032 127.8 124.125 127.781L128.991 126.784C129.089 126.751 129.194 126.74 129.297 126.751C129.4 126.762 129.5 126.794 129.59 126.846C129.679 126.898 129.757 126.969 129.818 127.053C129.879 127.137 129.921 127.233 129.942 127.334C129.963 127.436 129.963 127.541 129.941 127.642C129.919 127.744 129.875 127.839 129.814 127.923C129.752 128.006 129.674 128.076 129.583 128.127C129.493 128.178 129.393 128.21 129.29 128.219L124.424 129.196L124.265 129.216Z" fill="#273A8E"/>
<path d="M28.4342 195.659C28.4303 194.392 28.8023 193.153 29.5032 192.098C30.2042 191.042 31.2023 190.219 32.3715 189.731C33.5408 189.244 34.8284 189.114 36.0713 189.359C37.3142 189.604 38.4566 190.212 39.3538 191.106C40.2509 192 40.8624 193.141 41.111 194.383C41.3596 195.625 41.234 196.913 40.7502 198.084C40.2663 199.255 39.4459 200.256 38.3929 200.96C37.3399 201.664 36.1017 202.04 34.8349 202.04C33.1408 202.04 31.5158 201.369 30.316 200.172C29.1162 198.976 28.4395 197.353 28.4342 195.659ZM30.2288 195.659C30.2288 196.57 30.4989 197.461 31.0051 198.218C31.5112 198.976 32.2305 199.566 33.0722 199.915C33.9138 200.263 34.84 200.355 35.7335 200.177C36.627 199.999 37.4476 199.561 38.0918 198.916C38.736 198.272 39.1747 197.451 39.3524 196.558C39.5301 195.664 39.439 194.738 39.0904 193.896C38.7418 193.055 38.1513 192.335 37.3939 191.829C36.6364 191.323 35.7459 191.053 34.8349 191.053C33.6133 191.053 32.4417 191.538 31.5779 192.402C30.7141 193.266 30.2288 194.437 30.2288 195.659Z" fill="#5B6BC8"/>
<path d="M13.579 202.2C13.7958 202.2 14.0038 202.114 14.1571 201.96C14.3104 201.807 14.3966 201.599 14.3966 201.382V196.397C14.3966 196.18 14.3104 195.972 14.1571 195.819C14.0038 195.665 13.7958 195.579 13.579 195.579C13.3622 195.579 13.1542 195.665 13.0009 195.819C12.8476 195.972 12.7615 196.18 12.7615 196.397V201.382C12.7615 201.49 12.7826 201.596 12.8237 201.695C12.8648 201.794 12.925 201.884 13.0009 201.96C13.0768 202.036 13.167 202.096 13.2662 202.137C13.3654 202.179 13.4716 202.2 13.579 202.2Z" fill="#DE7061"/>
<path d="M15.2141 203.915H20.199C20.4158 203.915 20.6238 203.828 20.7771 203.675C20.9304 203.522 21.0165 203.314 21.0165 203.097C21.0165 202.88 20.9304 202.672 20.7771 202.519C20.6238 202.366 20.4158 202.279 20.199 202.279H15.2141C14.9972 202.279 14.7893 202.366 14.636 202.519C14.4827 202.672 14.3966 202.88 14.3966 203.097C14.3966 203.314 14.4827 203.522 14.636 203.675C14.7893 203.828 14.9972 203.915 15.2141 203.915Z" fill="#DE7061"/>
<path d="M6.95896 203.915H11.9439C12.1607 203.915 12.3687 203.828 12.522 203.675C12.6753 203.522 12.7615 203.314 12.7615 203.097C12.7615 202.88 12.6753 202.672 12.522 202.519C12.3687 202.366 12.1607 202.279 11.9439 202.279H6.95896C6.74213 202.279 6.53419 202.366 6.38087 202.519C6.22755 202.672 6.14148 202.88 6.14148 203.097C6.14148 203.314 6.22755 203.522 6.38087 203.675C6.53419 203.828 6.74213 203.915 6.95896 203.915Z" fill="#DE7061"/>
<path d="M13.579 210.176C13.7958 210.176 14.0038 210.09 14.1571 209.937C14.3104 209.783 14.3966 209.575 14.3966 209.358V204.373C14.3966 204.156 14.3104 203.948 14.1571 203.795C14.0038 203.642 13.7958 203.556 13.579 203.556C13.3622 203.556 13.1542 203.642 13.0009 203.795C12.8476 203.948 12.7615 204.156 12.7615 204.373V209.358C12.7615 209.466 12.7826 209.572 12.8237 209.671C12.8648 209.771 12.925 209.861 13.0009 209.937C13.0768 210.012 13.167 210.073 13.2662 210.114C13.3654 210.155 13.4716 210.176 13.579 210.176Z" fill="#DE7061"/>
<path d="M34.8349 217.454C35.0517 217.454 35.2597 217.368 35.413 217.215C35.5663 217.062 35.6524 216.854 35.6524 216.637V211.652C35.6524 211.435 35.5663 211.227 35.413 211.074C35.2597 210.92 35.0517 210.834 34.8349 210.834C34.7259 210.831 34.6174 210.851 34.5159 210.891C34.4144 210.93 34.3218 210.99 34.2438 211.066C34.1657 211.143 34.1038 211.234 34.0615 211.334C34.0191 211.435 33.9973 211.543 33.9973 211.652V216.637C33.9973 216.746 34.0191 216.854 34.0615 216.954C34.1038 217.055 34.1657 217.146 34.2438 217.222C34.3218 217.298 34.4144 217.358 34.5159 217.398C34.6174 217.438 34.7259 217.457 34.8349 217.454Z" fill="#E9A65F"/>
<path d="M36.5297 219.09H41.4947C41.7115 219.09 41.9195 219.003 42.0728 218.85C42.2261 218.697 42.3123 218.489 42.3123 218.272C42.3123 218.055 42.2261 217.847 42.0728 217.694C41.9195 217.541 41.7115 217.454 41.4947 217.454H36.5297C36.3129 217.454 36.105 217.541 35.9516 217.694C35.7983 217.847 35.7122 218.055 35.7122 218.272C35.7122 218.489 35.7983 218.697 35.9516 218.85C36.105 219.003 36.3129 219.09 36.5297 219.09Z" fill="#E9A65F"/>
<path d="M28.2149 219.09H33.1998C33.4166 219.09 33.6246 219.003 33.7779 218.85C33.9312 218.697 34.0173 218.489 34.0173 218.272C34.0173 218.055 33.9312 217.847 33.7779 217.694C33.6246 217.541 33.4166 217.454 33.1998 217.454H28.2149C27.998 217.454 27.7901 217.541 27.6368 217.694C27.4835 217.847 27.3973 218.055 27.3973 218.272C27.3973 218.489 27.4835 218.697 27.6368 218.85C27.7901 219.003 27.998 219.09 28.2149 219.09Z" fill="#E9A65F"/>
<path d="M34.8349 225.371C34.9439 225.371 35.0519 225.349 35.1524 225.307C35.2529 225.265 35.3439 225.202 35.42 225.124C35.4962 225.046 35.5561 224.954 35.596 224.852C35.6359 224.751 35.655 224.642 35.6524 224.533V219.568C35.655 219.459 35.6359 219.351 35.596 219.249C35.5561 219.148 35.4962 219.055 35.42 218.977C35.3439 218.899 35.2529 218.837 35.1524 218.795C35.0519 218.752 34.9439 218.731 34.8349 218.731C34.6128 218.731 34.3997 218.819 34.2427 218.976C34.0856 219.133 33.9973 219.346 33.9973 219.568V224.533C33.9973 224.756 34.0856 224.969 34.2427 225.126C34.3997 225.283 34.6128 225.371 34.8349 225.371Z" fill="#E9A65F"/>
<path d="M211.222 26.0427C209.955 26.0466 208.714 25.6741 207.659 24.9722C206.603 24.2704 205.78 23.2709 205.293 22.1005C204.806 20.93 204.677 19.6414 204.924 18.3978C205.17 17.1543 205.78 16.0119 206.676 15.1155C207.573 14.2192 208.715 13.6091 209.959 13.3628C211.202 13.1164 212.491 13.2449 213.661 13.7318C214.831 14.2188 215.831 15.0423 216.533 16.098C217.234 17.1536 217.607 18.394 217.603 19.6617C217.598 21.3524 216.924 22.9724 215.728 24.1679C214.533 25.3635 212.913 26.0374 211.222 26.0427ZM211.222 15.0553C210.311 15.0553 209.421 15.3255 208.663 15.8316C207.906 16.3378 207.315 17.0572 206.967 17.8989C206.618 18.7406 206.527 19.6667 206.705 20.5603C206.882 21.4538 207.321 22.2746 207.965 22.9188C208.609 23.563 209.43 24.0017 210.324 24.1795C211.217 24.3572 212.143 24.266 212.985 23.9173C213.827 23.5687 214.546 22.9783 215.052 22.2208C215.558 21.4633 215.828 20.5727 215.828 19.6617C215.831 19.056 215.714 18.4558 215.483 17.8957C215.253 17.3357 214.913 16.8269 214.485 16.3986C214.057 15.9703 213.548 15.6311 212.988 15.4006C212.428 15.17 211.828 15.0527 211.222 15.0553Z" fill="#E9A65F"/>
<path d="M232.458 26.282C232.241 26.282 232.033 26.1958 231.88 26.0425C231.727 25.8892 231.641 25.6812 231.641 25.4644V20.4792C231.671 20.2818 231.772 20.1019 231.923 19.9719C232.075 19.842 232.268 19.7705 232.468 19.7705C232.668 19.7705 232.861 19.842 233.013 19.9719C233.165 20.1019 233.265 20.2818 233.296 20.4792V25.4644C233.296 25.5735 233.274 25.6814 233.232 25.782C233.189 25.8825 233.127 25.9735 233.049 26.0497C232.971 26.1259 232.879 26.1857 232.777 26.2256C232.676 26.2655 232.567 26.2846 232.458 26.282Z" fill="#DE7061"/>
<path d="M230.843 27.9171H225.958C225.76 27.8864 225.581 27.7861 225.451 27.6343C225.321 27.4826 225.249 27.2894 225.249 27.0896C225.249 26.8898 225.321 26.6966 225.451 26.5448C225.581 26.3931 225.76 26.2928 225.958 26.262H230.943C231.14 26.2928 231.32 26.3931 231.45 26.5448C231.58 26.6966 231.651 26.8898 231.651 27.0896C231.651 27.2894 231.58 27.4826 231.45 27.6343C231.32 27.7861 231.14 27.8864 230.943 27.9171H230.843Z" fill="#DE7061"/>
<path d="M239.078 27.9171H234.093C233.896 27.8864 233.716 27.7861 233.586 27.6343C233.456 27.4826 233.385 27.2894 233.385 27.0896C233.385 26.8898 233.456 26.6966 233.586 26.5448C233.716 26.3931 233.896 26.2928 234.093 26.262H239.078C239.276 26.2928 239.456 26.3931 239.586 26.5448C239.715 26.6966 239.787 26.8898 239.787 27.0896C239.787 27.2894 239.715 27.4826 239.586 27.6343C239.456 27.7861 239.276 27.8864 239.078 27.9171Z" fill="#DE7061"/>
<path d="M232.458 34.1785C232.241 34.1785 232.033 34.0924 231.88 33.9391C231.727 33.7858 231.641 33.5778 231.641 33.361V28.3758C231.671 28.1784 231.772 27.9984 231.923 27.8685C232.075 27.7385 232.268 27.6671 232.468 27.6671C232.668 27.6671 232.861 27.7385 233.013 27.8685C233.165 27.9984 233.265 28.1784 233.296 28.3758V33.361C233.296 33.47 233.274 33.578 233.232 33.6785C233.189 33.779 233.127 33.87 233.049 33.9462C232.971 34.0224 232.879 34.0822 232.777 34.1221C232.676 34.162 232.567 34.1812 232.458 34.1785Z" fill="#DE7061"/>
<path d="M211.222 41.4569C211.113 41.4596 211.005 41.4404 210.903 41.4005C210.802 41.3606 210.709 41.3008 210.631 41.2246C210.553 41.1485 210.491 41.0574 210.449 40.9569C210.407 40.8564 210.385 40.7484 210.385 40.6393V35.6541C210.416 35.4567 210.516 35.2768 210.668 35.1469C210.819 35.0169 211.013 34.9455 211.212 34.9455C211.412 34.9455 211.605 35.0169 211.757 35.1469C211.909 35.2768 212.009 35.4567 212.04 35.6541V40.6792C212.03 40.8891 211.939 41.0869 211.787 41.2317C211.635 41.3765 211.432 41.4572 211.222 41.4569Z" fill="#5B6BC8"/>
<path d="M209.587 43.0921H204.602C204.385 43.0921 204.178 43.0059 204.024 42.8526C203.871 42.6993 203.785 42.4913 203.785 42.2745C203.785 42.0577 203.871 41.8497 204.024 41.6964C204.178 41.5431 204.385 41.4569 204.602 41.4569H209.587C209.804 41.4569 210.012 41.5431 210.165 41.6964C210.319 41.8497 210.405 42.0577 210.405 42.2745C210.405 42.4913 210.319 42.6993 210.165 42.8526C210.012 43.0059 209.804 43.0921 209.587 43.0921Z" fill="#5B6BC8"/>
<path d="M217.822 43.0921H212.857C212.641 43.0921 212.433 43.0059 212.279 42.8526C212.126 42.6993 212.04 42.4913 212.04 42.2745C212.04 42.0577 212.126 41.8497 212.279 41.6964C212.433 41.5431 212.641 41.4569 212.857 41.4569H217.822C218.039 41.4569 218.247 41.5431 218.4 41.6964C218.554 41.8497 218.64 42.0577 218.64 42.2745C218.64 42.4913 218.554 42.6993 218.4 42.8526C218.247 43.0059 218.039 43.0921 217.822 43.0921Z" fill="#5B6BC8"/>
<path d="M211.222 49.3535C211.113 49.3561 211.005 49.3369 210.903 49.297C210.802 49.2572 210.709 49.1974 210.631 49.1212C210.553 49.045 210.491 48.954 210.449 48.8534C210.407 48.7529 210.385 48.645 210.385 48.5359V43.5507C210.416 43.3533 210.516 43.1734 210.668 43.0434C210.819 42.9135 211.013 42.842 211.212 42.842C211.412 42.842 211.605 42.9135 211.757 43.0434C211.909 43.1734 212.009 43.3533 212.04 43.5507V48.5359C212.04 48.7527 211.954 48.9607 211.8 49.114C211.647 49.2673 211.439 49.3535 211.222 49.3535Z" fill="#5B6BC8"/>
</g>
<defs>
<clipPath id="clip0_13_1426">
<rect width="318" height="256" fill="white"/>
</clipPath>
</defs>
</svg>
