<svg width="11" height="11" viewBox="0 0 11 11" fill="none" xmlns="http://www.w3.org/2000/svg">
<path d="M7.4888 9.14937L7.35501 9.681C6.95364 9.83499 6.63302 9.9522 6.39428 10.0328C6.15527 10.1136 5.87756 10.1538 5.56115 10.1538C5.07524 10.1538 4.6973 10.0381 4.42774 9.8083C4.15819 9.57756 4.02337 9.28518 4.02337 8.93048C4.02337 8.79317 4.03315 8.65194 4.05349 8.50804C4.074 8.36397 4.10661 8.20172 4.15124 8.02037L4.65285 6.29459C4.69747 6.12933 4.7354 5.97276 4.76578 5.82469C4.79659 5.67753 4.81144 5.54214 4.81144 5.42027C4.81144 5.19987 4.7645 5.04572 4.67104 4.95904C4.57758 4.87262 4.39925 4.82874 4.1345 4.82874C4.00483 4.82874 3.87155 4.84893 3.7357 4.88797C3.59925 4.92718 3.48262 4.96505 3.3847 5.00025L3.51884 4.4682C3.84744 4.33815 4.16153 4.22679 4.46198 4.13436C4.76244 4.04168 5.04632 3.9953 5.31485 3.9953C5.79741 3.9953 6.16977 4.10866 6.43126 4.3354C6.69275 4.5623 6.82345 4.85644 6.82345 5.21889C6.82345 5.29389 6.81487 5.42602 6.79642 5.61489C6.7784 5.80417 6.74484 5.97759 6.69593 6.13534L6.19646 7.8542C6.15553 7.99226 6.11871 8.15009 6.0867 8.32769C6.05366 8.50412 6.03787 8.63893 6.03787 8.72935C6.03787 8.95759 6.09022 9.11341 6.19518 9.19625C6.3009 9.27909 6.48301 9.3203 6.74167 9.3203C6.8631 9.3203 7.00127 9.29936 7.1548 9.25823C7.3079 9.21711 7.41955 9.18098 7.4888 9.14937ZM7.61547 1.93309C7.61547 2.23256 7.49936 2.48833 7.26602 2.69863C7.03328 2.90968 6.75283 3.01529 6.42474 3.01529C6.09563 3.01529 5.81449 2.90968 5.57908 2.69863C5.34411 2.48824 5.22637 2.23256 5.22637 1.93309C5.22637 1.63419 5.34411 1.37801 5.57908 1.16504C5.81406 0.952407 6.09571 0.84613 6.42474 0.84613C6.75274 0.84613 7.03328 0.952657 7.26602 1.16504C7.49953 1.37801 7.61547 1.63428 7.61547 1.93309Z" fill="#3E3E3E"/>
</svg>
