<svg width="76" height="76" viewBox="0 0 76 76" fill="none" xmlns="http://www.w3.org/2000/svg">
<path d="M58.4858 74.5156H4.45459C2.81495 74.5156 1.48584 73.1865 1.48584 71.5469V4.45312C1.48584 2.81348 2.81495 1.48438 4.45459 1.48438H58.4858C60.1255 1.48438 61.4546 2.81348 61.4546 4.45312V71.5469C61.4546 73.1865 60.1255 74.5156 58.4858 74.5156Z" fill="white"/>
<path d="M31.4707 33.8438C38.193 33.8438 43.6426 28.3942 43.6426 21.6719C43.6426 14.9495 38.193 9.5 31.4707 9.5C24.7484 9.5 19.2988 14.9495 19.2988 21.6719C19.2988 28.3942 24.7484 33.8438 31.4707 33.8438Z" fill="#FE6663"/>
<path d="M35.3296 20.1133V21.0781C35.3296 23.2095 33.6016 24.9375 31.4702 24.9375C29.3388 24.9375 27.6108 23.2095 27.6108 21.0781V20.1133C27.6108 17.9819 29.3388 16.2539 31.4702 16.2539C33.6016 16.2539 35.3296 17.9819 35.3296 20.1133Z" fill="#FFCDAC"/>
<path d="M31.4702 24.9375C27.7028 24.9375 24.4841 27.2779 23.1826 30.583C25.3557 32.605 28.2676 33.8438 31.4702 33.8438C34.6727 33.8438 37.5846 32.605 39.7577 30.583C38.4562 27.2779 35.2375 24.9375 31.4702 24.9375Z" fill="#A5DDFF"/>
<path d="M64.804 23.8376L65.6522 22.3685C66.9639 20.0967 69.8688 19.3182 72.1408 20.6298C74.4127 21.9416 75.1911 24.8465 73.8795 27.1185L55.2 59.4724L46.9727 54.7224L55.0301 40.7663L64.804 23.8376Z" fill="#FFBC53"/>
<path d="M72.1413 20.6298C69.8694 19.3181 66.9643 20.0965 65.6526 22.3685L63.4473 26.1882L71.6746 30.9382L73.8799 27.1185C75.1915 24.8467 74.4131 21.9416 72.1413 20.6298Z" fill="#FE6663"/>
<path d="M55.2004 59.4724L45.6582 66.5L46.9731 54.7224L55.2004 59.4724Z" fill="#9AD8FF"/>
<path d="M61.4546 59.1268C60.6349 59.1268 59.9702 59.7914 59.9702 60.6112V71.5469C59.9702 72.3654 59.3043 73.0312 58.4858 73.0312H4.45459C3.63611 73.0312 2.97021 72.3654 2.97021 71.5469V4.45312C2.97021 3.63464 3.63611 2.96875 4.45459 2.96875H58.4858C59.3043 2.96875 59.9702 3.63464 59.9702 4.45312V20.5957C59.9702 21.4155 60.6349 22.0801 61.4546 22.0801C62.2743 22.0801 62.939 21.4155 62.939 20.5957V4.45312C62.939 1.99767 60.9413 0 58.4858 0H4.45459C1.99914 0 0.00146484 1.99767 0.00146484 4.45312V71.5469C0.00146484 74.0023 1.99914 76 4.45459 76H58.4858C60.9413 76 62.939 74.0023 62.939 71.5469V60.6112C62.939 59.7914 62.2743 59.1268 61.4546 59.1268Z" fill="black"/>
<path d="M45.1265 21.6719C45.1265 14.1418 39.0003 8.01562 31.4702 8.01562C23.9401 8.01562 17.814 14.1418 17.814 21.6719C17.814 25.5783 19.4631 29.1064 22.1011 31.5977C22.1506 31.6506 22.2031 31.7006 22.2606 31.7462C24.6906 33.9696 27.9246 35.328 31.4701 35.328C35.0155 35.328 38.2495 33.9695 40.6796 31.7462C40.737 31.7006 40.7896 31.6504 40.839 31.5977C43.4773 29.1064 45.1265 25.5783 45.1265 21.6719ZM31.4702 10.9844C37.3633 10.9844 42.1577 15.7788 42.1577 21.6719C42.1577 24.042 41.3812 26.2334 40.0707 28.0076C38.976 26.384 37.4588 25.1213 35.6973 24.3417C36.3964 23.4381 36.814 22.3063 36.814 21.0781V20.1133C36.814 17.1666 34.4168 14.7695 31.4702 14.7695C28.5236 14.7695 26.1265 17.1666 26.1265 20.1133V21.0781C26.1265 22.3063 26.544 23.4381 27.2432 24.3417C25.4817 25.1213 23.9645 26.384 22.8697 28.0076C21.5592 26.2334 20.7827 24.042 20.7827 21.6719C20.7827 15.7788 25.5771 10.9844 31.4702 10.9844ZM29.0952 21.0781V20.1133C29.0952 18.8038 30.1607 17.7383 31.4702 17.7383C32.7797 17.7383 33.8452 18.8038 33.8452 20.1133V21.0781C33.8452 22.3876 32.7797 23.4531 31.4702 23.4531C30.1607 23.4531 29.0952 22.3876 29.0952 21.0781ZM25.0145 30.1821C26.3191 27.8687 28.7537 26.4219 31.4702 26.4219C34.1868 26.4219 36.6213 27.8687 37.9259 30.1821C36.1309 31.5471 33.8941 32.3594 31.4702 32.3594C29.0464 32.3594 26.8094 31.5471 25.0145 30.1821Z" fill="black"/>
<path d="M39.4858 65.0156H31.4702C30.6505 65.0156 29.9858 65.6802 29.9858 66.5C29.9858 67.3198 30.6505 67.9844 31.4702 67.9844H39.4858C40.3055 67.9844 40.9702 67.3198 40.9702 66.5C40.9702 65.6802 40.3055 65.0156 39.4858 65.0156Z" fill="black"/>
<path d="M39.4858 56.7031H18.4077C17.588 56.7031 16.9233 57.3677 16.9233 58.1875C16.9233 59.0073 17.588 59.6719 18.4077 59.6719H39.4858C40.3055 59.6719 40.9702 59.0073 40.9702 58.1875C40.9702 57.3677 40.3055 56.7031 39.4858 56.7031Z" fill="black"/>
<path d="M39.4858 48.3906H18.4077C17.588 48.3906 16.9233 49.0552 16.9233 49.875C16.9233 50.6948 17.588 51.3594 18.4077 51.3594H39.4858C40.3055 51.3594 40.9702 50.6948 40.9702 49.875C40.9702 49.0552 40.3055 48.3906 39.4858 48.3906Z" fill="black"/>
<path d="M13.1172 40.513C12.8412 40.237 12.4583 40.0781 12.0664 40.0781C11.6759 40.0781 11.2929 40.237 11.017 40.513C10.7409 40.7891 10.582 41.1721 10.582 41.5625C10.582 41.9529 10.7407 42.3359 11.017 42.612C11.2945 42.888 11.6759 43.0469 12.0664 43.0469C12.4583 43.0469 12.8398 42.888 13.1172 42.612C13.3933 42.3359 13.5523 41.9529 13.5523 41.5625C13.5523 41.1721 13.3934 40.7891 13.1172 40.513Z" fill="black"/>
<path d="M13.1172 48.8255C12.8398 48.5495 12.4583 48.3906 12.0664 48.3906C11.6759 48.3906 11.2945 48.5495 11.017 48.8255C10.7409 49.1016 10.582 49.4846 10.582 49.875C10.582 50.2654 10.7407 50.6484 11.017 50.9245C11.2945 51.2005 11.6759 51.3594 12.0664 51.3594C12.4583 51.3594 12.8398 51.2005 13.1172 50.9245C13.3933 50.6484 13.5523 50.2654 13.5523 49.875C13.5523 49.4846 13.3934 49.1016 13.1172 48.8255Z" fill="black"/>
<path d="M12.0664 56.7031C11.6759 56.7031 11.2945 56.862 11.017 57.138C10.7409 57.4141 10.582 57.7971 10.582 58.1875C10.582 58.5779 10.7407 58.9609 11.017 59.237C11.2929 59.513 11.6759 59.6719 12.0664 59.6719C12.4583 59.6719 12.8412 59.513 13.1172 59.237C13.3933 58.9609 13.5523 58.5779 13.5523 58.1875C13.5523 57.7971 13.3934 57.4141 13.1172 57.138C12.8398 56.862 12.4583 56.7031 12.0664 56.7031Z" fill="black"/>
<path d="M39.4858 40.0781H18.4077C17.588 40.0781 16.9233 40.7427 16.9233 41.5625C16.9233 42.3823 17.588 43.0469 18.4077 43.0469H39.4858C40.3055 43.0469 40.9702 42.3823 40.9702 41.5625C40.9702 40.7427 40.3055 40.0781 39.4858 40.0781Z" fill="black"/>
<path d="M72.8835 19.3444C71.4415 18.5118 69.7615 18.2906 68.1527 18.7215C66.5442 19.1526 65.1997 20.1842 64.3672 21.6263L45.6876 53.9802C45.5853 54.1576 45.5206 54.3542 45.4979 54.5578L44.183 66.3354C44.1177 66.9214 44.4054 67.4907 44.916 67.7856C45.1465 67.9186 45.4026 67.9845 45.658 67.9845C45.9686 67.9845 46.2779 67.8873 46.5384 67.6954L56.0806 60.6677C56.2455 60.5463 56.3835 60.3921 56.4858 60.2147L75.1653 27.8608C76.8842 24.8838 75.8606 21.0633 72.8835 19.3444ZM48.1964 57.1428L52.4925 59.6232L47.5098 63.2929L48.1964 57.1428ZM54.657 57.4447L49.0008 54.1791L63.9908 28.2159L69.647 31.4815L54.657 57.4447ZM72.5944 26.3763L71.1312 28.9106L65.475 25.645L66.9382 23.1107C67.3743 22.3553 68.0785 21.815 68.921 21.5892C69.7638 21.3633 70.6438 21.4793 71.399 21.9155C72.1544 22.3516 72.6947 23.0558 72.9205 23.8983C73.1463 24.7408 73.0305 25.6209 72.5944 26.3763Z" fill="black"/>
</svg>
