<svg width="74" height="72" viewBox="0 0 74 72" fill="none" xmlns="http://www.w3.org/2000/svg">
<path d="M39.1874 16.9858L36.113 13.9125C34.8777 12.6772 33.9834 11.1431 33.5171 9.45956C33.0507 7.77603 33.0282 6.00043 33.4518 4.30563C33.5507 3.91068 33.7526 3.54903 34.0369 3.25759C34.3211 2.96615 34.6777 2.75535 35.07 2.64669C35.4624 2.53804 35.8766 2.53541 36.2703 2.6391C36.664 2.74278 37.0232 2.94906 37.3111 3.23688C37.5443 3.46984 37.8248 3.65 38.1337 3.76516C38.4425 3.88032 38.7725 3.92779 39.1012 3.90438C39.43 3.88096 39.7499 3.78719 40.0393 3.62941C40.3287 3.47164 40.5809 3.25354 40.7786 2.98988L41.1575 2.48519C41.3553 2.22153 41.6074 2.00343 41.8968 1.84565C42.1862 1.68788 42.5061 1.59411 42.8349 1.57069C43.1636 1.54727 43.4936 1.59475 43.8025 1.70991C44.1113 1.82507 44.3918 2.00523 44.625 2.23819L45.8718 3.48506C46.3034 3.91638 46.8886 4.15868 47.4987 4.15868C48.1089 4.15868 48.694 3.91638 49.1256 3.48506L49.375 3.23569C49.6629 2.94787 50.0221 2.74159 50.4158 2.63791C50.8095 2.53423 51.2237 2.53685 51.6161 2.64551C52.0084 2.75416 52.365 2.96497 52.6493 3.25641C52.9336 3.54785 53.1354 3.90949 53.2343 4.30444C53.6579 5.99924 53.6354 7.77484 53.169 9.45837C52.7027 11.1419 51.8084 12.676 50.5732 13.9113L47.4999 16.9858H39.1874Z" fill="#FCEA42"/>
<path d="M42.75 59.75C38.3408 59.75 34.1121 57.9984 30.9944 54.8807C27.8766 51.7629 26.125 47.5342 26.125 43.125C26.1247 37.7538 28.0077 32.5525 31.4462 28.4261L38 20.5625H47.5L54.0538 28.4261C57.4923 32.5525 59.3753 37.7538 59.375 43.125C59.375 47.5342 57.6234 51.7629 54.5056 54.8807C51.3879 57.9984 47.1592 59.75 42.75 59.75Z" fill="#FCEA42"/>
<path d="M47.5 15.8125H38C36.6883 15.8125 35.625 16.8758 35.625 18.1875C35.625 19.4992 36.6883 20.5625 38 20.5625H47.5C48.8117 20.5625 49.875 19.4992 49.875 18.1875C49.875 16.8758 48.8117 15.8125 47.5 15.8125Z" fill="#48CAE4"/>
<path d="M58.0688 49.585C57.2297 51.5613 56.0205 53.359 54.5063 54.8813C52.1812 57.2065 49.2188 58.7901 45.9937 59.4317C42.7686 60.0733 39.4257 59.744 36.3877 58.4856C33.3498 57.2272 30.7532 55.0962 28.9264 52.362C27.0997 49.6278 26.1248 46.4133 26.125 43.125C26.1348 37.755 28.016 32.5564 31.445 28.4238L38 20.5625H47.5L49.4831 22.9375H48.6162C46.0059 22.9391 43.471 23.8129 41.4142 25.4201C39.3573 27.0272 37.8965 29.2757 37.2637 31.8081C37.0271 32.7396 36.9074 33.697 36.9075 34.6581C36.9039 35.3031 36.9595 35.9471 37.0737 36.5819C37.7964 40.5688 39.9493 44.1548 43.1284 46.667C46.3074 49.1792 50.294 50.4448 54.34 50.2263C55.6041 50.1626 56.856 49.9473 58.0688 49.585Z" fill="#FDC741"/>
<path d="M49.875 18.1875C49.8703 18.816 49.6186 19.4173 49.1742 19.8617C48.7298 20.3061 48.1284 20.5578 47.5 20.5625H38C37.3707 20.5606 36.7677 20.3098 36.3227 19.8648C35.8777 19.4198 35.6269 18.8168 35.625 18.1875C35.6297 17.5591 35.8814 16.9577 36.3258 16.5133C36.7702 16.0689 37.3716 15.8172 38 15.8125C38.0019 16.4418 38.2527 17.0448 38.6977 17.4898C39.1427 17.9348 39.7457 18.1856 40.375 18.1875H49.875Z" fill="#00B4D8"/>
<path d="M52.0479 12.0481C51.6331 12.726 51.1387 13.3519 50.5754 13.9125L47.4998 16.9881H39.1873L36.1116 13.9125C34.8747 12.6784 33.9792 11.1443 33.513 9.46034C33.0467 7.77637 33.0256 6.00021 33.4516 4.30563C33.5748 3.80459 33.8633 3.35973 34.2706 3.04296C34.6779 2.7262 35.1801 2.55604 35.696 2.56C36.0531 2.55918 36.4045 2.64908 36.7173 2.82125C36.664 4.21405 36.8992 5.60283 37.408 6.90044C37.9168 8.19806 38.6883 9.37652 39.6741 10.3619C40.65 11.3377 41.8079 12.1123 43.0823 12.6419C44.3549 13.1684 45.7188 13.4387 47.096 13.4375C48.8428 13.437 50.5558 12.9563 52.0479 12.0481Z" fill="#FDC741"/>
<path d="M26.4185 56.8193V65.6875H48.7826C50.5651 65.6874 52.2828 65.0192 53.5968 63.8148L64.0468 54.2317C64.7504 53.6123 65.1926 52.749 65.2841 51.8161C65.3756 50.8832 65.1095 49.9504 64.5396 49.2062C64.2322 48.8323 63.8518 48.5249 63.4217 48.3029C62.9916 48.0809 62.5207 47.9488 62.0379 47.9148C61.555 47.8808 61.0703 47.9456 60.6133 48.1051C60.1563 48.2647 59.7367 48.5157 59.3799 48.8428L52.3428 55.2933C52.1 55.5158 51.8137 55.6853 51.502 55.7912C51.1902 55.8971 50.8598 55.937 50.5318 55.9084L46.8933 55.5938C46.9311 55.4818 46.9632 55.3681 46.9895 55.2529C47.1535 54.3226 46.9412 53.3653 46.3994 52.5914C45.8576 51.8176 45.0306 51.2906 44.1003 51.1264L32.4046 49.0625H26.4185V56.8193Z" fill="#F9DBAF"/>
<path d="M46.9892 55.2518C47.0379 54.9523 47.0479 54.6477 47.0189 54.3457C46.5311 53.9082 45.9312 53.615 45.2863 53.499L33.5918 51.4375L34.7294 53.8125C35.0812 55.3736 35.8866 56.7959 37.0445 57.9006C38.2024 59.0052 39.661 59.7428 41.2369 60.0208L43.8637 60.4839C44.6979 60.6482 45.5633 60.5205 46.3145 60.1222C47.0657 59.7239 47.657 59.0792 47.989 58.2965C48.3173 57.455 48.3088 56.5194 47.9653 55.684L46.8965 55.5902C46.9331 55.479 46.964 55.366 46.9892 55.2518Z" fill="#EDB88E"/>
<path d="M3.5625 44.3125H19V70.4375H3.5625V44.3125Z" fill="#00B4D8"/>
<path d="M19 46.6875H26.4183V68.0625H19V46.6875Z" fill="#ADE8F4"/>
<path d="M34.731 56.7076L42.863 58.1421C43.7935 58.3062 44.751 58.0939 45.525 57.552C46.299 57.0101 46.826 56.1828 46.9901 55.2523C47.1542 54.3218 46.9419 53.3643 46.4 52.5903C45.858 51.8163 45.0308 51.2893 44.1003 51.1252L32.4046 49.0625H26.4185L34.731 56.7076Z" fill="#F9DBAF"/>
<path d="M64.0537 54.2281L53.5919 63.8112C52.2825 65.0204 50.5648 65.6905 48.7825 65.6875H26.4219V49.0625H29.6875V52.625C29.6875 55.1446 30.6884 57.5609 32.47 59.3425C34.2516 61.1241 36.6679 62.125 39.1875 62.125H48.4856C50.271 62.1257 51.9916 61.4561 53.3069 60.2487L63.7569 50.6656C64.1453 50.309 64.4565 49.8766 64.6712 49.395C65.172 50.1385 65.3854 51.0386 65.2718 51.9277C65.1582 52.8169 64.7253 53.6344 64.0537 54.2281Z" fill="#EDB88E"/>
<path d="M26.4219 65.6162V68.0625H19V46.6875H21.375V59.75C21.376 61.1697 21.8856 62.542 22.8115 63.6182C23.7374 64.6945 25.0183 65.4033 26.4219 65.6162Z" fill="#48CAE4"/>
<path d="M19 63.3125V70.4375H3.5625V44.3125H8.3125V53.8125C8.3125 56.3321 9.31339 58.7484 11.095 60.53C12.8766 62.3116 15.2929 63.3125 17.8125 63.3125H19Z" fill="#0096C7"/>
<path d="M11.875 65.6875C13.1867 65.6875 14.25 64.6242 14.25 63.3125C14.25 62.0008 13.1867 60.9375 11.875 60.9375C10.5633 60.9375 9.5 62.0008 9.5 63.3125C9.5 64.6242 10.5633 65.6875 11.875 65.6875Z" fill="#ADE8F4"/>
<path d="M14.0364 64.2863C13.8798 64.6384 13.6399 64.9472 13.3373 65.186C13.0348 65.4247 12.6786 65.5862 12.2997 65.6566C11.9207 65.7269 11.5303 65.704 11.1622 65.5897C10.7941 65.4755 10.4594 65.2734 10.1868 65.0008C9.9143 64.7283 9.71218 64.3935 9.59794 64.0254C9.4837 63.6573 9.46076 63.267 9.5311 62.888C9.60144 62.5091 9.76296 62.1529 10.0017 61.8503C10.2404 61.5478 10.5492 61.3078 10.9014 61.1513C10.7581 61.4557 10.6851 61.7885 10.6877 62.125C10.6895 62.7543 10.9404 63.3573 11.3854 63.8023C11.8304 64.2473 12.4334 64.4981 13.0627 64.5C13.3992 64.5026 13.732 64.4296 14.0364 64.2863Z" fill="#48CAE4"/>
<path d="M30.2575 36.5736C35.8216 31.0094 35.8216 21.9882 30.2575 16.4241C24.6933 10.8599 15.6721 10.8599 10.108 16.4241C4.54382 21.9882 4.54382 31.0094 10.108 36.5736C15.6721 42.1377 24.6933 42.1377 30.2575 36.5736Z" fill="#EF5350"/>
<path d="M33.1789 32.3663C32.2308 34.4702 30.786 36.3126 28.9689 37.7352C27.1517 39.1577 25.0164 40.118 22.7463 40.5334C20.4763 40.9488 18.1393 40.807 15.9361 40.1202C13.7329 39.4333 11.7294 38.222 10.0976 36.5901C8.46572 34.9583 7.25436 32.9548 6.56752 30.7516C5.88068 28.5484 5.73888 26.2114 6.1543 23.9413C6.56972 21.6713 7.52995 19.536 8.95251 17.7188C10.3751 15.9016 12.2175 14.4569 14.3214 13.5088C13.1272 16.1478 12.7656 19.0882 13.2849 21.938C13.8041 24.7878 15.1795 27.4116 17.2278 29.4599C19.2761 31.5082 21.8999 32.8836 24.7497 33.4028C27.5995 33.9221 30.5399 33.5605 33.1789 32.3663Z" fill="#E53935"/>
<path d="M64.125 8.6875L55.8125 15.8125H60.5625V27.6875H67.6875V15.8125H72.4375L64.125 8.6875Z" fill="#EF5350"/>
<path d="M67.6875 25.3125V27.6875H60.5625V15.8125H55.8125L62.9375 9.70875V20.5625C62.9375 21.8223 63.4379 23.0305 64.3287 23.9213C65.2195 24.8121 66.4277 25.3125 67.6875 25.3125Z" fill="#E53935"/>
<path d="M35.8722 15.3482C35.2717 15.7938 34.8273 16.4177 34.6022 17.1308C34.3772 17.8439 34.383 18.6098 34.6189 19.3194C34.8547 20.029 35.3086 20.646 35.9158 21.0824C36.523 21.5189 37.2524 21.7525 38.0002 21.75H46.9444L53.1396 29.1802C54.1048 30.3441 54.9469 31.6048 55.6524 32.9422C55.7241 33.0817 55.8228 33.2056 55.9427 33.3067C56.0626 33.4079 56.2013 33.4843 56.3509 33.5315C56.5005 33.5787 56.658 33.5958 56.8142 33.5819C56.9705 33.5679 57.1224 33.5231 57.2612 33.4501C57.4 33.377 57.523 33.2772 57.6231 33.1564C57.7231 33.0356 57.7982 32.8961 57.8441 32.7461C57.8899 32.5961 57.9056 32.4385 57.8902 32.2824C57.8747 32.1263 57.8286 31.9748 57.7543 31.8366C56.9721 30.3524 56.0376 28.9535 54.966 27.6626L49.513 21.1218C49.9219 20.8445 50.2679 20.4845 50.5288 20.0649C50.7896 19.6454 50.9594 19.1757 51.0271 18.6864C51.0948 18.197 51.059 17.6989 50.9219 17.2243C50.7849 16.7497 50.5496 16.3092 50.2314 15.9313L51.4118 14.7509C52.7867 13.367 53.782 11.6523 54.302 9.77215C54.8219 7.89196 54.849 5.90956 54.3806 4.01588C54.2305 3.41815 53.9247 2.87085 53.4944 2.42971C53.0641 1.98857 52.5245 1.66933 51.9307 1.50449C51.3369 1.33965 50.71 1.33511 50.1138 1.49131C49.5177 1.64752 48.9736 1.9589 48.5369 2.39375L48.2875 2.64194C48.0785 2.85035 47.7954 2.96738 47.5002 2.96738C47.205 2.96738 46.9219 2.85035 46.7129 2.64194L45.466 1.39625C45.1124 1.04286 44.6871 0.769572 44.2187 0.594898C43.7503 0.420223 43.2499 0.34824 42.7512 0.383824C42.2526 0.419408 41.7675 0.561727 41.3286 0.801144C40.8898 1.04056 40.5076 1.37148 40.2078 1.7715L39.8301 2.275C39.7348 2.40344 39.6127 2.50959 39.4722 2.58608C39.3317 2.66257 39.1763 2.70756 39.0167 2.71794C38.8578 2.72825 38.6985 2.7048 38.5493 2.64913C38.4001 2.59346 38.2643 2.50683 38.151 2.39494C37.7146 1.95823 37.1702 1.64518 36.5733 1.48775C35.9763 1.33032 35.3483 1.33416 34.7533 1.49887C34.1584 1.66358 33.6178 1.98327 33.1868 2.42527C32.7558 2.86727 32.4498 3.41575 32.3002 4.01469C31.8317 5.90837 31.8588 7.89077 32.3788 9.77096C32.8987 11.6511 33.8941 13.3658 35.2689 14.7497L35.8722 15.3482ZM36.8127 18.1875C36.8127 17.8726 36.9378 17.5705 37.1605 17.3478C37.3832 17.1251 37.6852 17 38.0002 17H47.5002C47.8151 17 48.1172 17.1251 48.3399 17.3478C48.5626 17.5705 48.6877 17.8726 48.6877 18.1875C48.6877 18.5024 48.5626 18.8045 48.3399 19.0272C48.1172 19.2499 47.8151 19.375 47.5002 19.375H38.0002C37.6852 19.375 37.3832 19.2499 37.1605 19.0272C36.9378 18.8045 36.8127 18.5024 36.8127 18.1875ZM34.6039 4.59181C34.6517 4.40062 34.7494 4.22554 34.887 4.08443C35.0246 3.94332 35.1971 3.84123 35.387 3.78859C35.5769 3.73595 35.7774 3.73464 35.968 3.78479C36.1586 3.83494 36.3325 3.93476 36.4719 4.07406C36.8254 4.42752 37.2507 4.70089 37.719 4.87566C38.1873 5.05044 38.6878 5.12253 39.1864 5.08706C39.685 5.05159 40.1702 4.90938 40.609 4.67007C41.0479 4.43076 41.4302 4.09994 41.7301 3.7L42.1078 3.1965C42.2037 3.06897 42.3258 2.96351 42.466 2.88725C42.6062 2.81099 42.7611 2.7657 42.9203 2.75444C43.0794 2.74318 43.2392 2.76622 43.3887 2.822C43.5382 2.87777 43.674 2.96499 43.7869 3.07775L45.0338 4.32581C45.6885 4.97889 46.5755 5.34564 47.5002 5.34564C48.4249 5.34564 49.3119 4.97889 49.9666 4.32581L50.216 4.07644C50.3554 3.93714 50.5293 3.83732 50.7199 3.78717C50.9105 3.73701 51.1109 3.73832 51.3009 3.79097C51.4908 3.84361 51.6633 3.94569 51.8009 4.0868C51.9385 4.22791 52.0361 4.403 52.0839 4.59419C52.4532 6.0905 52.4309 7.65667 52.0193 9.14188C51.6077 10.6271 50.8206 11.9813 49.7339 13.0741L48.1177 14.6903C47.9142 14.6505 47.7075 14.6286 47.5002 14.625H38.5073L36.9528 13.0706C35.8665 11.9777 35.0797 10.6237 34.6684 9.1387C34.257 7.65372 34.2348 6.08785 34.6039 4.59181Z" fill="#023E8A"/>
<path d="M42.7501 33.625C43.2225 33.625 43.6756 33.8127 44.0096 34.1467C44.3437 34.4808 44.5313 34.9338 44.5313 35.4062C44.5313 35.7212 44.6564 36.0232 44.8791 36.2459C45.1018 36.4686 45.4039 36.5938 45.7188 36.5938C46.0338 36.5938 46.3358 36.4686 46.5585 36.2459C46.7812 36.0232 46.9063 35.7212 46.9063 35.4062C46.9031 34.5144 46.6126 33.6473 46.0778 32.9335C45.5431 32.2198 44.7926 31.6973 43.9376 31.4436V30.0625C43.9376 29.7476 43.8125 29.4455 43.5898 29.2228C43.3671 29.0001 43.065 28.875 42.7501 28.875C42.4351 28.875 42.1331 29.0001 41.9104 29.2228C41.6877 29.4455 41.5626 29.7476 41.5626 30.0625V31.4436C40.6059 31.7262 39.7833 32.3443 39.2456 33.1846C38.708 34.0249 38.4916 35.0309 38.6359 36.0179C38.7803 37.005 39.2758 37.9068 40.0316 38.5579C40.7873 39.209 41.7525 39.5657 42.7501 39.5625C43.1024 39.5625 43.4467 39.667 43.7397 39.8627C44.0326 40.0584 44.2609 40.3366 44.3957 40.6621C44.5305 40.9876 44.5658 41.3457 44.4971 41.6913C44.4284 42.0368 44.2587 42.3542 44.0096 42.6033C43.7605 42.8524 43.4431 43.022 43.0976 43.0908C42.752 43.1595 42.3939 43.1242 42.0684 42.9894C41.7429 42.8546 41.4647 42.6263 41.269 42.3334C41.0733 42.0404 40.9688 41.696 40.9688 41.3438C40.9688 41.0288 40.8437 40.7268 40.621 40.5041C40.3983 40.2814 40.0963 40.1562 39.7813 40.1562C39.4664 40.1562 39.1643 40.2814 38.9416 40.5041C38.7189 40.7268 38.5938 41.0288 38.5938 41.3438C38.597 42.2356 38.8876 43.1027 39.4223 43.8165C39.957 44.5302 40.7075 45.0527 41.5626 45.3064V46.6875C41.5626 47.0024 41.6877 47.3045 41.9104 47.5272C42.1331 47.7499 42.4351 47.875 42.7501 47.875C43.065 47.875 43.3671 47.7499 43.5898 47.5272C43.8125 47.3045 43.9376 47.0024 43.9376 46.6875V45.3064C44.8942 45.0238 45.7169 44.4057 46.2545 43.5654C46.7921 42.7251 47.0086 41.7191 46.8642 40.7321C46.7198 39.745 46.2243 38.8432 45.4686 38.1921C44.7128 37.541 43.7476 37.1843 42.7501 37.1875C42.2776 37.1875 41.8246 36.9998 41.4905 36.6658C41.1565 36.3317 40.9688 35.8787 40.9688 35.4062C40.9688 34.9338 41.1565 34.4808 41.4905 34.1467C41.8246 33.8127 42.2776 33.625 42.7501 33.625Z" fill="#023E8A"/>
<path d="M15.4375 63.3125C15.4375 62.6079 15.2286 61.9191 14.8371 61.3333C14.4457 60.7474 13.8893 60.2908 13.2383 60.0212C12.5873 59.7515 11.871 59.681 11.18 59.8185C10.4889 59.9559 9.85416 60.2952 9.35593 60.7934C8.85771 61.2917 8.51841 61.9264 8.38095 62.6175C8.24349 63.3086 8.31404 64.0249 8.58368 64.6758C8.85332 65.3268 9.30993 65.8832 9.89578 66.2746C10.4816 66.6661 11.1704 66.875 11.875 66.875C12.8198 66.875 13.726 66.4997 14.3941 65.8316C15.0622 65.1635 15.4375 64.2573 15.4375 63.3125ZM10.6875 63.3125C10.6875 63.0776 10.7571 62.8481 10.8876 62.6528C11.0181 62.4575 11.2036 62.3053 11.4206 62.2154C11.6376 62.1255 11.8763 62.102 12.1067 62.1478C12.337 62.1936 12.5486 62.3067 12.7147 62.4728C12.8808 62.6389 12.9939 62.8505 13.0397 63.0808C13.0855 63.3112 13.062 63.55 12.9721 63.7669C12.8822 63.9839 12.73 64.1694 12.5347 64.2999C12.3395 64.4304 12.1099 64.5 11.875 64.5C11.5601 64.5 11.258 64.3749 11.0353 64.1522C10.8126 63.9295 10.6875 63.6274 10.6875 63.3125Z" fill="#023E8A"/>
<path d="M51.5446 54.4193C51.4221 54.5289 51.2786 54.6126 51.123 54.6655C50.9673 54.7183 50.8025 54.7392 50.6386 54.7269L48.2303 54.5179C48.2019 53.4226 47.7965 52.3706 47.0826 51.5395C46.3687 50.7084 45.39 50.1489 44.3116 49.9555L32.6159 47.894C32.5461 47.8813 32.4754 47.8749 32.4045 47.875H28.0915C27.5826 46.3427 27.3197 44.7395 27.3125 43.125C27.3192 42.0986 27.3985 41.074 27.55 40.0589C29.7049 38.8948 31.5518 37.2347 32.9383 35.2158C34.3248 33.1969 35.2111 30.877 35.5238 28.4479C35.8366 26.0188 35.5669 23.5501 34.737 21.2458C33.9072 18.9415 32.5409 16.8677 30.7512 15.1957C28.9615 13.5238 26.7997 12.3017 24.4443 11.6303C22.089 10.959 19.6077 10.8577 17.2054 11.3348C14.8031 11.8119 12.5489 12.8537 10.6288 14.3742C8.70879 15.8947 7.17807 17.8502 6.16313 20.0792C6.04156 20.364 6.03604 20.685 6.14775 20.9738C6.25946 21.2626 6.47956 21.4963 6.76112 21.6252C7.04269 21.754 7.36345 21.7678 7.65503 21.6636C7.9466 21.5593 8.18594 21.3453 8.322 21.0672C9.68978 18.1096 12.1185 15.7735 15.127 14.5217C18.1355 13.2698 21.5045 13.1936 24.5666 14.3079C27.6287 15.4223 30.1606 17.6461 31.6608 20.5388C33.1611 23.4315 33.5202 26.7821 32.6671 29.927C31.814 33.0719 29.8109 35.7818 27.0545 37.5198C24.2981 39.2578 20.9895 39.8973 17.784 39.3115C14.5785 38.7257 11.71 36.9574 9.74643 34.3568C7.78291 31.7563 6.86767 28.5131 7.182 25.2698C7.19914 25.1132 7.18497 24.9548 7.14032 24.8038C7.09566 24.6528 7.02141 24.5121 6.9219 24.3901C6.82238 24.268 6.69957 24.167 6.56063 24.0928C6.42169 24.0187 6.26939 23.9729 6.1126 23.9582C5.95581 23.9435 5.79765 23.9601 5.64733 24.0071C5.49702 24.054 5.35755 24.1304 5.23704 24.2318C5.11653 24.3332 5.0174 24.4576 4.94541 24.5976C4.87341 24.7377 4.83 24.8907 4.81769 25.0477C4.57286 27.6017 4.96954 30.1764 5.97175 32.5382C6.97396 34.9001 8.54998 36.9744 10.5568 38.5729C12.5637 40.1714 14.9379 41.2436 17.4641 41.6922C19.9902 42.1409 22.5885 41.9517 25.023 41.1419C24.9672 41.8069 24.9375 42.4695 24.9375 43.125C24.9436 43.9198 25.0039 44.7134 25.118 45.5H20.1875V44.3125C20.1875 43.9976 20.0624 43.6955 19.8397 43.4728C19.617 43.2501 19.3149 43.125 19 43.125H3.5625C3.24756 43.125 2.94551 43.2501 2.72281 43.4728C2.50011 43.6955 2.375 43.9976 2.375 44.3125C2.375 44.6274 2.50011 44.9295 2.72281 45.1522C2.94551 45.3749 3.24756 45.5 3.5625 45.5H17.8125V52.625C17.8125 52.9399 17.9376 53.242 18.1603 53.4647C18.383 53.6874 18.6851 53.8125 19 53.8125C19.3149 53.8125 19.617 53.6874 19.8397 53.4647C20.0624 53.242 20.1875 52.9399 20.1875 52.625V47.875H25.2308V66.875H20.1875V57.375C20.1875 57.0601 20.0624 56.758 19.8397 56.5353C19.617 56.3126 19.3149 56.1875 19 56.1875C18.6851 56.1875 18.383 56.3126 18.1603 56.5353C17.9376 56.758 17.8125 57.0601 17.8125 57.375V69.25H3.5625C3.24756 69.25 2.94551 69.3751 2.72281 69.5978C2.50011 69.8205 2.375 70.1226 2.375 70.4375C2.375 70.7524 2.50011 71.0545 2.72281 71.2772C2.94551 71.4999 3.24756 71.625 3.5625 71.625H19C19.3149 71.625 19.617 71.4999 19.8397 71.2772C20.0624 71.0545 20.1875 70.7524 20.1875 70.4375V69.25H26.4183C26.7333 69.25 27.0353 69.1249 27.258 68.9022C27.4807 68.6795 27.6058 68.3774 27.6058 68.0625V50.25H32.3L43.8936 52.2937C44.2051 52.3504 44.5021 52.4689 44.7672 52.6422C45.0323 52.8154 45.26 53.0399 45.4371 53.3025C45.6141 53.565 45.7368 53.8604 45.798 54.171C45.8593 54.4817 45.8577 54.8015 45.7936 55.1116L45.7413 55.3016C45.5785 55.8606 45.2154 56.34 44.7214 56.6483C44.2274 56.9565 43.6372 57.0719 43.0635 56.9724L34.9315 55.5379C34.6213 55.4831 34.302 55.5538 34.0439 55.7344C33.7858 55.915 33.61 56.1908 33.5552 56.501C33.5004 56.8112 33.5711 57.1305 33.7517 57.3886C33.9323 57.6467 34.208 57.8225 34.5182 57.8773L42.6502 59.3118C43.6381 59.4867 44.656 59.3427 45.5565 58.9005C46.457 58.4584 47.1934 57.7411 47.6591 56.8525L50.4284 57.09C50.9204 57.134 51.4161 57.0746 51.8838 56.9157C52.3515 56.7568 52.7808 56.5019 53.1442 56.1673L60.1813 49.7156C60.4193 49.497 60.6994 49.3292 61.0045 49.2225C61.3096 49.1159 61.6332 49.0726 61.9556 49.0954C62.278 49.1182 62.5924 49.2066 62.8794 49.3551C63.1665 49.5036 63.4202 49.7091 63.6251 49.9591C64.0003 50.4687 64.1697 51.1011 64.0995 51.7301C64.0293 52.3591 63.7246 52.9385 63.2462 53.3529L52.7962 62.9361C51.7021 63.9427 50.2693 64.501 48.7825 64.5H31.1671C30.8522 64.5 30.5501 64.6251 30.3274 64.8478C30.1047 65.0705 29.9796 65.3726 29.9796 65.6875C29.9796 66.0024 30.1047 66.3045 30.3274 66.5272C30.5501 66.7499 30.8522 66.875 31.1671 66.875H48.7825C50.8622 66.8769 52.8666 66.097 54.3982 64.69L64.8482 55.1081C65.7821 54.2872 66.3656 53.1393 66.4785 51.9011C66.5914 50.6628 66.2251 49.4284 65.455 48.4521C64.8266 47.6838 63.9719 47.1332 63.0124 46.8788C62.053 46.6245 61.0377 46.6793 60.1112 47.0354C60.4077 45.753 60.5591 44.4413 60.5625 43.125C60.5625 40.871 60.2426 38.6284 59.6125 36.4643C59.571 36.3123 59.4996 36.17 59.4025 36.0458C59.3055 35.9216 59.1846 35.818 59.0471 35.741C58.9096 35.664 58.7581 35.6152 58.6015 35.5973C58.4449 35.5794 58.2863 35.5929 58.135 35.637C57.9837 35.681 57.8426 35.7548 57.7201 35.8539C57.5975 35.9531 57.496 36.0756 57.4213 36.2144C57.3466 36.3532 57.3003 36.5055 57.285 36.6623C57.2698 36.8192 57.2859 36.9776 57.3325 37.1281C57.8992 39.0767 58.187 41.0957 58.1875 43.125C58.1892 45.3369 57.7082 47.5224 56.7779 49.5292L51.5446 54.4193Z" fill="#023E8A"/>
<path d="M22.7063 29.0199C22.2081 29.5181 21.8689 30.1529 21.7315 30.8439C21.5941 31.535 21.6647 32.2513 21.9343 32.9022C22.204 33.5531 22.6606 34.1095 23.2464 34.5009C23.8323 34.8923 24.521 35.1012 25.2256 35.1012C25.9302 35.1012 26.6189 34.8923 27.2047 34.5009C27.7906 34.1095 28.2472 33.5531 28.5169 32.9022C28.7865 32.2513 28.8571 31.535 28.7197 30.8439C28.5823 30.1529 28.243 29.5181 27.7449 29.0199C27.4141 28.689 27.0213 28.4265 26.589 28.2475C26.1568 28.0684 25.6935 27.9762 25.2256 27.9762C24.7577 27.9762 24.2944 28.0684 23.8621 28.2475C23.4299 28.4265 23.0371 28.689 22.7063 29.0199ZM26.0657 32.3781C25.8997 32.5442 25.6881 32.6574 25.4577 32.7032C25.2274 32.7491 24.9886 32.7256 24.7716 32.6357C24.5546 32.5458 24.3691 32.3936 24.2386 32.1983C24.1081 32.003 24.0384 31.7734 24.0384 31.5386C24.0384 31.3037 24.1081 31.0741 24.2386 30.8788C24.3691 30.6835 24.5546 30.5313 24.7716 30.4414C24.9886 30.3516 25.2274 30.3281 25.4577 30.3739C25.6881 30.4198 25.8997 30.5329 26.0657 30.699C26.2884 30.9217 26.4134 31.2237 26.4134 31.5386C26.4134 31.8534 26.2884 32.1554 26.0657 32.3781Z" fill="#023E8A"/>
<path d="M26.0655 18.9428L12.6301 32.3781C12.5167 32.4877 12.4262 32.6187 12.364 32.7636C12.3018 32.9085 12.269 33.0643 12.2676 33.222C12.2663 33.3796 12.2963 33.536 12.356 33.6819C12.4157 33.8279 12.5039 33.9605 12.6154 34.072C12.7269 34.1835 12.8595 34.2716 13.0054 34.3314C13.1514 34.3911 13.3077 34.4211 13.4654 34.4197C13.6231 34.4184 13.7789 34.3856 13.9238 34.3234C14.0687 34.2611 14.1997 34.1707 14.3092 34.0573L27.7446 20.6219C27.9609 20.3979 28.0806 20.0979 28.0779 19.7866C28.0752 19.4752 27.9503 19.1774 27.7301 18.9572C27.51 18.737 27.2121 18.6122 26.9008 18.6095C26.5894 18.6067 26.2894 18.7264 26.0655 18.9428Z" fill="#023E8A"/>
<path d="M12.6301 18.9428C12.132 19.441 11.7927 20.0758 11.6553 20.7668C11.5179 21.4579 11.5885 22.1741 11.8582 22.8251C12.1278 23.476 12.5844 24.0323 13.1703 24.4238C13.7561 24.8152 14.4448 25.0241 15.1494 25.0241C15.854 25.0241 16.5427 24.8152 17.1286 24.4238C17.7144 24.0323 18.171 23.476 18.4407 22.8251C18.7103 22.1741 18.7809 21.4579 18.6435 20.7668C18.5061 20.0758 18.1669 19.441 17.6687 18.9428C17.3379 18.6119 16.9451 18.3494 16.5129 18.1703C16.0806 17.9913 15.6173 17.8991 15.1494 17.8991C14.6815 17.8991 14.2182 17.9913 13.786 18.1703C13.3537 18.3494 12.961 18.6119 12.6301 18.9428ZM15.9896 22.301C15.8235 22.4671 15.6119 22.5802 15.3816 22.6261C15.1512 22.6719 14.9124 22.6484 14.6954 22.5586C14.4784 22.4687 14.2929 22.3165 14.1624 22.1212C14.0319 21.9259 13.9623 21.6963 13.9623 21.4614C13.9623 21.2266 14.0319 20.997 14.1624 20.8017C14.2929 20.6064 14.4784 20.4542 14.6954 20.3643C14.9124 20.2744 15.1512 20.2509 15.3816 20.2968C15.6119 20.3426 15.8235 20.4558 15.9896 20.6219C16.2122 20.8446 16.3373 21.1466 16.3373 21.4614C16.3373 21.7763 16.2122 22.0783 15.9896 22.301Z" fill="#023E8A"/>
<path d="M67.6877 19.375C67.3727 19.375 67.0707 19.5001 66.848 19.7228C66.6253 19.9455 66.5002 20.2476 66.5002 20.5625V26.5H61.7502V15.8125C61.7502 15.4976 61.6251 15.1955 61.4024 14.9728C61.1797 14.7501 60.8776 14.625 60.5627 14.625H59.0189L64.1252 10.2514L69.2314 14.625H67.6877C67.3727 14.625 67.0707 14.7501 66.848 14.9728C66.6253 15.1955 66.5002 15.4976 66.5002 15.8125C66.5002 16.1274 66.6253 16.4295 66.848 16.6522C67.0707 16.8749 67.3727 17 67.6877 17H72.4377C72.6802 16.9997 72.9167 16.9252 73.1156 16.7865C73.3145 16.6478 73.4662 16.4516 73.5503 16.2241C73.6343 15.9967 73.6467 15.7489 73.5858 15.5142C73.5249 15.2795 73.3936 15.0691 73.2095 14.9112L64.897 7.78619C64.682 7.60221 64.4082 7.50111 64.1252 7.50111C63.8421 7.50111 63.5684 7.60221 63.3533 7.78619L55.0408 14.9112C54.8567 15.0691 54.7254 15.2795 54.6645 15.5142C54.6036 15.7489 54.616 15.9967 54.7001 16.2241C54.7841 16.4516 54.9358 16.6478 55.1347 16.7865C55.3336 16.9252 55.5702 16.9997 55.8127 17H59.3752V27.6875C59.3752 28.0024 59.5003 28.3045 59.723 28.5272C59.9457 28.7499 60.2477 28.875 60.5627 28.875H67.6877C68.0026 28.875 68.3047 28.7499 68.5274 28.5272C68.7501 28.3045 68.8752 28.0024 68.8752 27.6875V20.5625C68.8752 20.2476 68.7501 19.9455 68.5274 19.7228C68.3047 19.5001 68.0026 19.375 67.6877 19.375Z" fill="#023E8A"/>
<path d="M67.6875 31.25C67.3726 31.25 67.0705 31.3751 66.8478 31.5978C66.6251 31.8205 66.5 32.1226 66.5 32.4375V44.3125C66.5 44.6274 66.6251 44.9295 66.8478 45.1522C67.0705 45.3749 67.3726 45.5 67.6875 45.5C68.0024 45.5 68.3045 45.3749 68.5272 45.1522C68.7499 44.9295 68.875 44.6274 68.875 44.3125V32.4375C68.875 32.1226 68.7499 31.8205 68.5272 31.5978C68.3045 31.3751 68.0024 31.25 67.6875 31.25Z" fill="#023E8A"/>
<path d="M72.4375 39.5625C72.1226 39.5625 71.8205 39.6876 71.5978 39.9103C71.3751 40.133 71.25 40.4351 71.25 40.75V55C71.25 55.3149 71.3751 55.617 71.5978 55.8397C71.8205 56.0624 72.1226 56.1875 72.4375 56.1875C72.7524 56.1875 73.0545 56.0624 73.2772 55.8397C73.4999 55.617 73.625 55.3149 73.625 55V40.75C73.625 40.4351 73.4999 40.133 73.2772 39.9103C73.0545 39.6876 72.7524 39.5625 72.4375 39.5625Z" fill="#023E8A"/>
<path d="M64.125 36V32.4375C64.125 32.1226 63.9999 31.8205 63.7772 31.5978C63.5545 31.3751 63.2524 31.25 62.9375 31.25C62.6226 31.25 62.3205 31.3751 62.0978 31.5978C61.8751 31.8205 61.75 32.1226 61.75 32.4375V36C61.75 36.3149 61.8751 36.617 62.0978 36.8397C62.3205 37.0624 62.6226 37.1875 62.9375 37.1875C63.2524 37.1875 63.5545 37.0624 63.7772 36.8397C63.9999 36.617 64.125 36.3149 64.125 36Z" fill="#023E8A"/>
</svg>
