<svg width="77" height="77" viewBox="0 0 77 77" fill="none" xmlns="http://www.w3.org/2000/svg">
<path d="M66.8701 37.0046C66.8432 36.9249 66.8687 36.8389 66.9304 36.7816C67.6043 36.154 67.8403 35.1241 67.373 34.2155C66.9357 33.365 65.9551 32.9057 65.0206 33.1087C63.939 33.3436 63.2586 34.3206 63.3233 35.3446C63.3451 35.6893 63.1218 36.0026 62.7945 36.1131L58.0918 37.7008L59.4662 41.7718L64.1676 40.1846C64.4971 40.0733 64.8652 40.1906 65.0573 40.4806C65.4497 41.0728 66.1144 41.4533 66.8438 41.436C68.3921 41.399 69.3285 39.9299 68.8778 38.5945C68.5991 37.7689 67.8673 37.2263 67.0531 37.1457C66.9695 37.1371 66.897 37.0843 66.8701 37.0046Z" fill="#FFE4CC"/>
<path d="M62.8551 40.4804C62.663 40.1906 62.2949 40.0733 61.9654 40.1844L59.2407 41.1042L59.466 41.7717L62.9397 40.5989C62.9104 40.5604 62.882 40.521 62.8551 40.4804Z" fill="#F7D4BC"/>
<path d="M68.8774 38.5942C68.5987 37.7686 67.8669 37.226 67.0527 37.1454C66.9689 37.1371 66.8966 37.0842 66.8697 37.0046C66.8428 36.9249 66.8683 36.8389 66.93 36.7816C67.6037 36.154 67.8399 35.1241 67.3726 34.2155C66.9353 33.365 65.9547 32.9057 65.0202 33.1087C64.7812 33.1606 64.5633 33.2506 64.3672 33.3674C64.7023 33.5667 64.9853 33.8556 65.1704 34.2155C65.6377 35.1241 65.4016 36.154 64.7278 36.7816C64.6663 36.8389 64.6406 36.9249 64.6675 37.0046C64.6944 37.0843 64.7669 37.1371 64.8505 37.1454C65.6648 37.226 66.3966 37.7686 66.6752 38.5942C67.0064 39.5752 66.5871 40.6263 65.7284 41.1309C66.057 41.333 66.4402 41.4455 66.8434 41.4359C68.3918 41.3989 69.3283 39.9297 68.8774 38.5942Z" fill="#F7D4BC"/>
<path d="M41.1948 39.2716L51.1714 35.9033C54.7476 34.696 58.6254 36.6161 59.8329 40.1924C61.0402 43.7686 59.12 47.6464 55.5437 48.8539L44.8956 52.449" fill="#FF7B4D"/>
<path d="M38.3551 58.2336L56.9886 58.245C57.1158 57.386 57.1828 56.5113 57.1832 55.6236C57.1904 43.9029 45.8186 34.3944 31.7837 34.3858C17.7488 34.3773 6.36547 43.8717 6.3584 55.5924C6.3578 56.4802 6.42367 57.3549 6.54985 58.214L38.3551 58.2336Z" fill="#FF965C"/>
<path d="M31.7835 34.3858C31.0886 34.3854 30.4005 34.4093 29.7197 34.4546C42.8048 35.3264 53.0958 44.4736 53.0891 55.6236C53.0885 56.5104 53.0219 57.3843 52.8948 58.2425L56.9884 58.245C57.1156 57.386 57.1826 56.5113 57.183 55.6236C57.1901 43.9029 45.8183 34.3944 31.7835 34.3858Z" fill="#FF8955"/>
<path d="M73.0221 50.6259C73.0221 50.5418 73.0738 50.4684 73.1505 50.4339C73.9897 50.0547 74.5428 49.1546 74.3908 48.1442C74.2485 47.1985 73.4663 46.4497 72.516 46.3431C71.416 46.2198 70.4589 46.9277 70.1926 47.9184C70.103 48.252 69.7912 48.4774 69.4459 48.4774H64.4824V52.7742H69.4446C69.7923 52.7742 70.1037 53.0031 70.1929 53.3393C70.3752 54.0258 70.8833 54.5991 71.58 54.8159C73.0587 55.2761 74.416 54.1837 74.416 52.7742C74.416 51.9029 73.8963 51.1547 73.1506 50.8178C73.0739 50.7832 73.0221 50.71 73.0221 50.6259Z" fill="#FFE4CC"/>
<path d="M73.1503 50.8179C73.0736 50.7834 73.0218 50.7101 73.0218 50.6259C73.0218 50.5418 73.0736 50.4684 73.1503 50.4338C73.9894 50.0547 74.5424 49.1546 74.3905 48.1441C74.2483 47.1985 73.4661 46.4497 72.5158 46.3431C72.0465 46.2904 71.604 46.3901 71.2293 46.5974C71.798 46.9129 72.2148 47.4793 72.315 48.1441C72.467 49.1546 71.9141 50.0547 71.0747 50.4338C70.998 50.4684 70.9463 50.5418 70.9463 50.6259C70.9463 50.71 70.998 50.7832 71.0747 50.8179C71.8204 51.1548 72.3401 51.903 72.3401 52.7744C72.3401 53.5878 71.8874 54.295 71.2208 54.6597C71.3344 54.7215 71.4527 54.7764 71.5796 54.8159C73.0584 55.2761 74.4157 54.1837 74.4157 52.7744C74.4157 51.9029 73.8959 51.1547 73.1503 50.8179Z" fill="#F7D4BC"/>
<path d="M47.971 44.5608H58.5009C62.2754 44.5608 65.3353 47.6207 65.3353 51.3952C65.3353 55.1697 62.2754 58.2295 58.5009 58.2295H47.2622" fill="#FF965C"/>
<path d="M58.5005 44.5608H54.6899C58.4644 44.5608 61.5243 47.6207 61.5243 51.3952C61.5243 55.1697 58.4644 58.2295 54.6899 58.2295H58.5005C62.275 58.2295 65.3349 55.1697 65.3349 51.3952C65.3349 47.6207 62.275 44.5608 58.5005 44.5608Z" fill="#FF8955"/>
<path d="M21.3695 58.2448H13.7911C12.5077 58.2448 11.4673 57.2044 11.4673 55.921C11.4673 54.6376 12.5077 53.5972 13.7911 53.5972H21.3695C22.6529 53.5972 23.6933 54.6376 23.6933 55.921C23.6931 57.2044 22.6529 58.2448 21.3695 58.2448Z" fill="#F2CAFF"/>
<path d="M30.6907 58.2295H23.1124C21.829 58.2295 20.7886 57.1891 20.7886 55.9057C20.7886 54.6222 21.829 53.5818 23.1124 53.5818H30.6907C31.9742 53.5818 33.0146 54.6222 33.0146 55.9057C33.0146 57.1891 31.9742 58.2295 30.6907 58.2295Z" fill="#FF6464"/>
<path d="M25.3529 53.582H17.7745C16.4911 53.582 15.4507 52.5416 15.4507 51.2581C15.4507 49.9747 16.4911 48.9343 17.7745 48.9343H25.3529C26.6363 48.9343 27.6767 49.9747 27.6767 51.2581C27.6765 52.5416 26.6361 53.582 25.3529 53.582Z" fill="#FFC82C"/>
<path d="M73.5829 62.7857H3.41728C2.15911 62.7857 1.13916 61.7658 1.13916 60.5076C1.13916 59.2494 2.15911 58.2295 3.41728 58.2295H38.462H73.5828C74.8409 58.2295 75.8609 59.2494 75.8609 60.5076C75.861 61.7658 74.8411 62.7857 73.5829 62.7857Z" fill="#C4D9E8"/>
<path d="M73.5829 58.2295H61.8887C63.1468 58.2295 64.1668 59.2494 64.1668 60.5076C64.1668 61.7658 63.1468 62.7857 61.8887 62.7857H73.5829C74.8411 62.7857 75.861 61.7658 75.861 60.5076C75.861 59.2494 74.8411 58.2295 73.5829 58.2295Z" fill="#B2CAD8"/>
<path d="M75.861 60.5076C75.861 59.2494 74.8411 58.2295 73.5829 58.2295H38.4622H3.41728C2.15911 58.2295 1.13916 59.2494 1.13916 60.5076H38.4578H75.861Z" fill="#E5F2FC"/>
<path d="M73.5829 58.2295H61.8887C63.1468 58.2295 64.1668 59.2494 64.1668 60.5076H75.861C75.861 59.2494 74.8411 58.2295 73.5829 58.2295Z" fill="#D4E9F4"/>
<path d="M38.4999 62.7857H3.94873L5.37519 63.8857C6.45108 64.7152 7.25657 65.8453 7.6897 67.1329C8.15425 68.5133 9.44806 69.4431 10.9044 69.4431H38.4999H66.0954C67.5518 69.4431 68.8457 68.5132 69.3102 67.1329C69.7433 65.8454 70.5488 64.7152 71.6247 63.8857L73.0511 62.7857H38.4999Z" fill="#E5F2FC"/>
<path d="M38.4999 62.7857H3.94873L5.37519 63.8857C5.77823 64.1965 6.14338 64.5495 6.46522 64.9372H33.8423H61.6735C63.8998 64.9372 65.4402 67.1574 64.6665 69.2451C64.6616 69.2584 64.6571 69.2715 64.6527 69.2842C64.6345 69.3382 64.6129 69.3904 64.5921 69.4431H66.0956C67.561 69.4431 68.8459 68.4972 69.3181 67.11C69.7531 65.832 70.5554 64.7104 71.625 63.8857L73.0514 62.7857H38.4999Z" fill="#D4E9F4"/>
<path d="M41.1097 48.0628C41.4261 48.3964 41.6085 48.8313 41.6411 49.2898C41.9962 54.2854 46.1613 58.2279 51.2473 58.2279H56.4076H48.5075C43.7626 58.2279 39.916 54.3813 39.916 49.6363V48.5386C39.916 47.9136 40.6794 47.6092 41.1097 48.0628Z" fill="#FF7B4D"/>
<path d="M73.5827 57.0904H64.0732C64.9691 56.2136 65.6586 55.1283 66.0641 53.9133H69.1797C69.5248 54.8705 70.2783 55.6038 71.2411 55.9034C71.5822 56.0096 71.9282 56.0618 72.2696 56.0618C72.9659 56.0618 73.6422 55.8443 74.2148 55.4227C75.0538 54.8051 75.5547 53.8151 75.5547 52.7741C75.5547 51.9734 75.2609 51.216 74.7562 50.6301C75.3732 49.9215 75.6657 48.9645 75.5168 47.9745C75.2968 46.5126 74.1151 45.3762 72.6426 45.2109C71.1112 45.039 69.7008 45.9221 69.1824 47.3382H65.361C64.4201 45.7531 62.9465 44.5202 61.188 43.8887C61.2881 43.3769 61.337 42.8602 61.3344 42.343L64.2812 41.348C64.9145 42.1445 65.8607 42.5982 66.8711 42.5743C67.9563 42.5483 68.9272 42.0358 69.5348 41.1677C70.1321 40.3141 70.29 39.2158 69.9571 38.2295C69.7008 37.4708 69.1803 36.8473 68.5147 36.4536C68.8726 35.5848 68.8436 34.5844 68.3859 33.6942C67.7099 32.3795 66.2268 31.6812 64.7788 31.9952C63.2721 32.3225 62.219 33.6101 62.1807 35.1176L58.5664 36.3379C58.0642 35.9064 57.505 35.5344 56.8961 35.2328C54.9877 34.2876 52.8251 34.1425 50.8073 34.8238L45.6817 36.5543C41.8231 34.5513 37.3994 33.4076 32.7729 33.2623C32.144 33.2367 31.6184 33.7362 31.5987 34.3649C31.5788 34.9937 32.0725 35.5195 32.7013 35.5392C39.0264 35.738 44.9264 37.9394 49.3145 41.738C50.5397 42.7987 51.6094 43.9528 52.5139 45.1795C52.5333 45.2093 52.554 45.2382 52.576 45.2658C54.8368 48.3672 56.0463 51.928 56.044 55.6223C56.0437 56.1096 56.0213 56.6005 55.978 57.09H47.262H43.4514C43.3903 57.09 43.3308 57.0961 43.2724 57.1055H41.1949C40.5658 57.1055 40.0559 57.6154 40.0559 58.2445C40.0559 58.8736 40.5658 59.3836 41.1949 59.3836H56.9885C57.0504 59.3836 57.1112 59.3777 57.1706 59.3681H58.5008H73.5828C74.211 59.3681 74.7219 59.879 74.7219 60.5071C74.7219 61.1353 74.211 61.6462 73.5828 61.6462H73.0512H3.94865H3.41702C2.78884 61.6462 2.27796 61.1353 2.27796 60.5071C2.27796 59.879 2.78884 59.3681 3.41702 59.3681H13.47C13.5757 59.3779 13.6827 59.3836 13.7909 59.3836H21.3693C21.4742 59.3836 21.5782 59.3774 21.6816 59.3681H23.1121H30.6905H31.7779L35.6594 59.3705C35.6595 59.3705 35.6598 59.3705 35.66 59.3705C36.2886 59.3705 36.7987 58.861 36.799 58.232C36.799 58.2316 36.799 58.231 36.799 58.2305C36.799 58.2301 36.799 58.2295 36.799 58.229C36.799 57.6 36.289 57.09 35.66 57.09H33.9446C34.0797 56.7202 34.1535 56.3212 34.1535 55.9052C34.1535 53.9958 32.6001 52.4423 30.6908 52.4423H28.6069C28.742 52.0725 28.8158 51.6735 28.8158 51.2575C28.8158 49.3482 27.2625 47.7946 25.353 47.7946C24.7239 47.7946 24.2139 48.3046 24.2139 48.9337C24.2139 49.5628 24.7239 50.0728 25.353 50.0728C26.0062 50.0728 26.5377 50.6042 26.5377 51.2575C26.5377 51.9108 26.0062 52.4423 25.353 52.4423H23.1124H17.7746C17.1213 52.4423 16.5899 51.9108 16.5899 51.2575C16.5899 50.6042 17.1213 50.0728 17.7746 50.0728H20.3234C20.9525 50.0728 21.4625 49.5628 21.4625 48.9337C21.4625 48.3046 20.9525 47.7946 20.3234 47.7946H17.7746C15.8653 47.7946 14.3117 49.348 14.3117 51.2575C14.3117 51.6792 14.3878 52.0836 14.5265 52.4577H13.7911C11.8817 52.4577 10.3282 54.011 10.3282 55.9205C10.3282 56.326 10.3989 56.7151 10.5275 57.0769L7.56238 57.0751C7.51876 56.5806 7.49696 56.0846 7.49726 55.5925C7.50012 50.8342 9.55475 46.2189 13.2825 42.5967C17.0168 38.9681 22.1829 36.5498 27.8291 35.7872C28.4525 35.703 28.8897 35.1294 28.8055 34.5059C28.7212 33.8826 28.1484 33.4456 27.5241 33.5295C21.3981 34.357 15.7765 36.9968 11.695 40.9629C7.52222 45.0172 5.22245 50.2123 5.21915 55.5912C5.21884 56.0888 5.24005 56.5898 5.2793 57.0898H3.41717C1.53293 57.0904 0 58.6234 0 60.5076C0 62.3918 1.53293 63.9248 3.41717 63.9248H3.56064L4.6797 64.7877C5.58008 65.4819 6.24767 66.4185 6.61011 67.4961C7.23122 69.342 8.9571 70.5821 10.9045 70.5821H66.0955C68.0431 70.5821 69.7688 69.3418 70.3899 67.4961C70.7525 66.4185 71.4201 65.4821 72.3203 64.7877L73.4394 63.9248H73.5828C75.4671 63.9248 77 62.3918 77 60.5076C76.9998 58.6234 75.4669 57.0904 73.5827 57.0904ZM69.4456 49.6166C70.3109 49.6166 71.0704 49.04 71.2924 48.2142C71.4041 47.7983 71.8177 47.4115 72.3887 47.4751C72.8303 47.5245 73.1984 47.8774 73.2642 48.3136C73.3439 48.8433 73.0288 49.2389 72.6815 49.3957C72.1964 49.6148 71.8828 50.0977 71.8828 50.6259C71.8828 51.1538 72.1961 51.6365 72.6814 51.8559C73.0429 52.0193 73.2766 52.3798 73.2766 52.7742C73.2766 53.0986 73.1262 53.3953 72.8643 53.5883C72.7094 53.7023 72.3805 53.8722 71.918 53.7283C71.6151 53.634 71.3817 53.3794 71.2934 53.047C71.0728 52.2158 70.3123 51.6352 69.4442 51.6352H66.4679C66.4703 51.5553 66.4739 51.4756 66.4739 51.3951C66.4739 50.7837 66.4024 50.1889 66.2715 49.6166H69.4456ZM63.1587 37.1923C63.9786 36.9154 64.5137 36.126 64.4597 35.2729C64.4326 34.8432 64.6996 34.344 65.262 34.2219C65.6959 34.1273 66.1579 34.3439 66.3597 34.7364C66.6047 35.2128 66.4328 35.6882 66.1538 35.9481C65.7642 36.311 65.6218 36.8686 65.7908 37.3694C65.9598 37.8695 66.411 38.2265 66.9407 38.279C67.3355 38.3181 67.6722 38.5849 67.7984 38.9586C67.9021 39.266 67.8546 39.5952 67.6681 39.8617C67.5577 40.0193 67.3004 40.2855 66.8165 40.2971C66.5058 40.3081 66.1967 40.1381 66.0068 39.8515C65.5318 39.1344 64.6257 38.8278 63.8031 39.1052L60.9842 40.0571C60.9609 39.9807 60.9377 39.9041 60.912 39.828C60.7181 39.2537 60.4619 38.7118 60.1533 38.207L63.1587 37.1923ZM50.8055 40.0159C50.0043 39.3223 49.1566 38.6789 48.2699 38.0852L51.5358 36.9825C52.9769 36.4957 54.5216 36.5994 55.885 37.2747C56.4672 37.563 56.9859 37.9414 57.4279 38.3919C57.4444 38.4106 57.4622 38.4277 57.4798 38.4452C58.0474 39.0392 58.483 39.7551 58.7536 40.5567C58.8768 40.9217 58.9614 41.2924 59.0096 41.6649C59.0114 41.6819 59.0141 41.6987 59.0166 41.7157C59.0852 42.2892 59.0641 42.8668 58.9553 43.4356C58.8047 43.427 58.6533 43.4217 58.5006 43.4217H54.0423C53.1063 42.2125 52.025 41.0716 50.8055 40.0159ZM58.263 57.0904C58.3012 56.6011 58.3217 56.1111 58.322 55.6241C58.3241 52.1295 57.3771 48.7495 55.5858 45.6999H58.5006C58.8744 45.6999 59.2395 45.7372 59.5935 45.8062C59.5965 45.8068 59.5997 45.8074 59.6027 45.8078C62.2174 46.3226 64.1959 48.6317 64.1959 51.3951C64.1959 54.5356 61.6411 57.0904 58.5006 57.0904H58.263ZM30.6906 54.7209C31.3439 54.7209 31.8752 55.2524 31.8752 55.9057C31.8752 56.5544 31.3508 57.0826 30.7037 57.0897L23.0061 57.085C22.9273 57.0779 22.8509 57.0632 22.7774 57.0414C22.718 57.0121 22.6565 56.9874 22.593 56.9689C22.1997 56.776 21.9275 56.3725 21.9275 55.9057C21.9275 55.2524 22.459 54.7209 23.1123 54.7209H25.3528H30.6906ZM12.6063 55.9211C12.6063 55.2678 13.1378 54.7364 13.7911 54.7364H19.8532C19.7216 55.1018 19.6495 55.4954 19.6495 55.9057C19.6495 56.3189 19.7225 56.7154 19.856 57.0831L13.5431 57.0791C13.0085 56.9649 12.6063 56.4892 12.6063 55.9211ZM68.2306 66.7695C67.9218 67.6874 67.0637 68.304 66.0953 68.304H10.9044C9.93614 68.304 9.07801 67.6872 8.76911 66.7695C8.41148 65.7064 7.8415 64.7417 7.09466 63.9248H69.905C69.1583 64.7417 68.5882 65.7064 68.2306 66.7695Z" fill="black"/>
<path d="M23.058 42.1565C23.6871 42.1565 24.1971 41.6465 24.1971 41.0175C24.1971 40.3884 23.6871 39.8784 23.058 39.8784C22.4289 39.8784 21.9189 40.3884 21.9189 41.0175C21.9189 41.6465 22.4289 42.1565 23.058 42.1565Z" fill="black"/>
<path d="M19.184 45.4215C19.8131 45.4215 20.323 44.9115 20.323 44.2824C20.323 43.6533 19.8131 43.1434 19.184 43.1434C18.5549 43.1434 18.0449 43.6533 18.0449 44.2824C18.0449 44.9115 18.5549 45.4215 19.184 45.4215Z" fill="black"/>
<path d="M24.6322 46.5599C25.2613 46.5599 25.7713 46.05 25.7713 45.4209C25.7713 44.7918 25.2613 44.2818 24.6322 44.2818C24.0031 44.2818 23.4932 44.7918 23.4932 45.4209C23.4932 46.05 24.0031 46.5599 24.6322 46.5599Z" fill="black"/>
<path d="M28.2017 27.7561C28.2017 28.3852 28.7116 28.8951 29.3407 28.8951C29.9698 28.8951 30.4798 28.3852 30.4798 27.7561C30.4798 27.1838 30.6863 26.9551 31.0977 26.499C31.6061 25.9355 32.3022 25.1638 32.3022 23.7158C32.3022 22.2679 31.6061 21.4962 31.0977 20.9327C30.6863 20.4766 30.4798 20.2478 30.4798 19.6756C30.4798 19.1035 30.6863 18.8748 31.0976 18.4188C31.6059 17.8553 32.3022 17.0838 32.3022 15.636C32.3022 14.1881 31.6059 13.4165 31.0976 12.8531C30.6861 12.3971 30.4798 12.1684 30.4798 11.5965C30.4798 11.0245 30.6863 10.7958 31.0976 10.3398C31.6059 9.77628 32.3022 9.00478 32.3022 7.55697C32.3022 6.92788 31.7922 6.41791 31.1632 6.41791C30.5341 6.41791 30.0241 6.92788 30.0241 7.55697C30.0241 8.1289 29.8176 8.3578 29.4063 8.81378C28.898 9.37729 28.2017 10.1488 28.2017 11.5966C28.2017 13.0444 28.898 13.8161 29.4063 14.3794C29.8178 14.8354 30.0241 15.0642 30.0241 15.6361C30.0241 16.208 29.8176 16.4369 29.4063 16.8929C28.898 17.4564 28.2017 18.2281 28.2017 19.6759C28.2017 21.1239 28.8978 21.8955 29.4061 22.459C29.8176 22.9152 30.0241 23.1439 30.0241 23.7161C30.0241 24.2884 29.8176 24.5171 29.4061 24.9733C28.898 25.5363 28.2017 26.3081 28.2017 27.7561Z" fill="black"/>
<path d="M36.5547 27.7561C36.5547 28.3852 37.0647 28.8951 37.6937 28.8951C38.3228 28.8951 38.8328 28.3852 38.8328 27.7561C38.8328 27.1838 39.0393 26.9551 39.4508 26.499C39.9591 25.9355 40.6552 25.1638 40.6552 23.7158C40.6552 22.2679 39.9591 21.4962 39.4508 20.9327C39.0393 20.4766 38.8328 20.2478 38.8328 19.6756C38.8328 19.1035 39.0393 18.8748 39.4506 18.4188C39.9589 17.8553 40.6552 17.0838 40.6552 15.636C40.6552 14.1881 39.9589 13.4165 39.4506 12.8531C39.0391 12.3971 38.8328 12.1684 38.8328 11.5965C38.8328 11.0245 39.0393 10.7958 39.4506 10.3398C39.9589 9.77628 40.6552 9.00478 40.6552 7.55697C40.6552 6.92788 40.1453 6.41791 39.5162 6.41791C38.8871 6.41791 38.3771 6.92788 38.3771 7.55697C38.3771 8.1289 38.1706 8.3578 37.7593 8.81378C37.251 9.37729 36.5547 10.1488 36.5547 11.5966C36.5547 13.0444 37.251 13.8161 37.7593 14.3794C38.1708 14.8354 38.3771 15.0642 38.3771 15.6361C38.3771 16.208 38.1706 16.4369 37.7593 16.8929C37.251 17.4564 36.5547 18.2281 36.5547 19.6759C36.5547 21.1239 37.2508 21.8955 37.7592 22.459C38.1706 22.9152 38.3771 23.1439 38.3771 23.7161C38.3771 24.2884 38.1706 24.5171 37.7592 24.9733C37.2508 25.5363 36.5547 26.3081 36.5547 27.7561Z" fill="black"/>
</svg>
