<svg width="70" height="70" viewBox="0 0 70 70" fill="none" xmlns="http://www.w3.org/2000/svg">
<path d="M58.9258 1.02539H11.0742V68.9746H58.9258V1.02539Z" fill="#E0F3FC"/>
<path d="M58.9258 1.02539H54.8242V68.9746H58.9258V1.02539Z" fill="#ABBFCF"/>
<path d="M58.9258 1.02539H11.0742V8.13477H58.9258V1.02539Z" fill="#E53366"/>
<path d="M58.9258 1.02539H54.8242V8.13477H58.9258V1.02539Z" fill="#CE2960"/>
<path d="M30.4443 14.6754H22.2139V22.9059H30.4443V14.6754Z" fill="#FAC55A"/>
<path d="M12.7328 59.5878L19.1184 51.4063C19.4378 50.9969 19.5901 50.4818 19.5445 49.9646L20.1584 43.3468C20.1404 43.1428 20.0933 42.9432 20.018 42.7529C19.4565 41.3343 18.9856 35.7306 18.6963 34.732C18.5783 34.3249 17.4139 33.7732 16.9645 33.9573C15.8725 34.4045 14.9099 35.9758 15.0505 37.1473L14.8225 43.2085C13.3642 45.7606 11.0431 44.1878 11.0745 43.1644V26.3134L8.60649 27.786L4.63235 35L2.03223 44.3322C1.99217 44.429 1.98083 44.5352 1.99942 44.6383L4.22684 56.9901L3.26981 62.3905L11.4426 64.6464L12.7328 59.5878Z" fill="#FFC9BD"/>
<path d="M20.1583 43.347C20.1404 43.143 20.0932 42.9434 20.0179 42.7531C19.4563 41.3345 18.9855 35.7308 18.6962 34.7322C18.5923 34.3736 17.6774 33.9037 17.1533 33.9221C17.1109 35.0808 16.996 37.801 17.4218 40.0684C18.1839 44.126 16.3379 47.9883 15.1533 49.911L8.76781 58.0924L7.31641 63.5075L11.4424 64.6464L12.7328 59.5878L19.1181 51.4063C19.4375 50.9969 19.5898 50.4818 19.5443 49.9646L20.1583 43.347Z" fill="#FFB0A2"/>
<path d="M57.2674 59.5878L50.8818 51.4063C50.5624 50.9969 50.4101 50.4818 50.4557 49.9646L49.8418 43.3468C49.8598 43.1428 49.9069 42.9432 49.9822 42.7529C50.5437 41.3343 51.0146 35.7306 51.3039 34.732C51.4219 34.3249 52.5863 33.7732 53.0357 33.9573C54.1277 34.4045 55.0903 35.9758 54.9497 37.1473L55.1777 43.2085C56.636 45.7606 58.9571 44.1878 58.9257 43.1644V26.3134L61.3937 27.786L65.3678 35L67.968 44.3322C68.008 44.429 68.0194 44.5352 68.0008 44.6383L65.7734 56.9901L66.7304 62.3905L58.5576 64.6464L57.2674 59.5878Z" fill="#FFC9BD"/>
<path d="M67.9677 44.3322L65.3676 35L61.3933 27.786L58.9253 26.3134V30.7507L61.1366 34.7647C61.2227 34.9211 61.2904 35.087 61.3384 35.2588L63.8663 44.3322C63.9064 44.429 63.9177 44.5352 63.8991 44.6383L61.7495 56.5588C61.6981 56.8436 61.7029 57.1357 61.7637 57.4187L63.0483 63.4067L66.73 62.3905L65.773 56.9901L68.0004 44.6383C68.0191 44.5352 68.0078 44.429 67.9677 44.3322Z" fill="#FFB0A2"/>
<path d="M15.2716 64.5723V68.4277C15.2716 68.7299 15.0269 68.9746 14.7247 68.9746H1.57238C1.21554 68.9746 0.95441 68.6397 1.04191 68.2938L2.73586 61.6082C2.80968 61.3156 3.105 61.1393 3.39621 61.2104L10.9663 63.0807L14.856 64.0418C15.0993 64.102 15.2716 64.3207 15.2716 64.5723Z" fill="#5A6570"/>
<path d="M15.2715 64.5723V68.4277C15.2715 68.7299 15.0268 68.9746 14.7246 68.9746H10.623C10.9252 68.9746 11.1699 68.6752 11.1699 68.306V63.5975C11.1699 63.391 11.0906 63.2037 10.9662 63.0807L14.8559 64.0418C15.0992 64.1019 15.2715 64.3207 15.2715 64.5723Z" fill="#4A535C"/>
<path d="M55.1448 64.0412L66.6033 61.2109C66.8953 61.1387 67.1908 61.316 67.2646 61.6075L68.9576 68.2935C69.0451 68.6391 68.784 68.9746 68.4274 68.9746H55.2759C54.9739 68.9746 54.729 68.7297 54.729 68.4277V64.5721C54.729 64.3206 54.9006 64.1015 55.1448 64.0412Z" fill="#5A6570"/>
<path d="M68.9577 68.2935L67.2647 61.6075C67.1909 61.3159 66.8954 61.1387 66.6034 61.2109L63.271 62.034L64.856 68.2935C64.9435 68.6391 64.6823 68.9746 64.3259 68.9746H68.4275C68.784 68.9746 69.0453 68.6391 68.9577 68.2935Z" fill="#4A535C"/>
<path d="M30.4438 23.9312C31.0102 23.9312 31.4692 23.4723 31.4692 22.9059V14.6758C31.4692 14.1094 31.0102 13.6504 30.4438 13.6504H22.2139C21.6474 13.6504 21.1885 14.1094 21.1885 14.6758V22.9059C21.1885 23.4723 21.6474 23.9312 22.2139 23.9312H30.4438ZM23.2393 15.7012H29.4185V21.8805H23.2393V15.7012Z" fill="black"/>
<path d="M17.1587 27.6847C17.1587 28.2511 17.6177 28.7101 18.1841 28.7101H51.8162C52.3826 28.7101 52.8416 28.2511 52.8416 27.6847C52.8416 27.1183 52.3826 26.6593 51.8162 26.6593H18.1841C17.6177 26.6593 17.1587 27.1184 17.1587 27.6847Z" fill="black"/>
<path d="M18.1841 32.9563H51.8162C52.3826 32.9563 52.8416 32.4974 52.8416 31.9309C52.8416 31.3645 52.3826 30.9055 51.8162 30.9055H18.1841C17.6177 30.9055 17.1587 31.3645 17.1587 31.9309C17.1587 32.4974 17.6177 32.9563 18.1841 32.9563Z" fill="black"/>
<path d="M33.0404 56.9152H18.1841C17.6177 56.9152 17.1587 57.3742 17.1587 57.9406C17.1587 58.507 17.6177 58.966 18.1841 58.966H33.0405C33.6069 58.966 34.0659 58.507 34.0659 57.9406C34.0659 57.3742 33.6068 56.9152 33.0404 56.9152Z" fill="black"/>
<path d="M33.0404 61.0449H18.1841C17.6177 61.0449 17.1587 61.5039 17.1587 62.0703C17.1587 62.6367 17.6177 63.0957 18.1841 63.0957H33.0405C33.6069 63.0957 34.0659 62.6367 34.0659 62.0703C34.0659 61.5039 33.6068 61.0449 33.0404 61.0449Z" fill="black"/>
<path d="M5.41211 66.7885C5.97842 66.7885 6.4375 66.3294 6.4375 65.7631C6.4375 65.1968 5.97842 64.7377 5.41211 64.7377C4.8458 64.7377 4.38672 65.1968 4.38672 65.7631C4.38672 66.3294 4.8458 66.7885 5.41211 66.7885Z" fill="black"/>
<path d="M68.4271 70C68.9154 70 69.3677 69.7789 69.6678 69.3935C69.9678 69.0081 70.0711 68.5154 69.9512 68.0418L68.2582 61.3558C68.1389 60.8845 67.8154 60.5166 67.4059 60.3222L66.8152 56.9912L67.1317 55.2355C67.2322 54.6782 66.8618 54.1449 66.3045 54.0444C65.747 53.9436 65.2139 54.3143 65.1134 54.8715L64.7642 56.8077C64.7428 56.9271 64.7425 57.0494 64.7637 57.1688L65.3482 60.4644L58.9519 62.0443L58.2603 59.3339C58.2251 59.1966 58.1621 59.0682 58.075 58.9564L51.6896 50.7758C51.5292 50.5701 51.4536 50.3147 51.4767 50.057C51.4823 49.9949 51.4822 49.9324 51.4764 49.8705L50.8725 43.3588C50.885 43.2798 50.9056 43.2033 50.9345 43.1308C51.2946 42.2215 51.5616 40.2851 51.8996 37.6488C52.0214 36.6987 52.1574 35.6375 52.2511 35.175C52.3827 35.086 52.6082 34.9863 52.7514 34.9554C53.3888 35.2987 54.0105 36.3657 53.9312 37.0254C53.9248 37.0788 53.9226 37.1324 53.9245 37.1861L54.1515 43.2469C54.1577 43.4123 54.2038 43.5738 54.2858 43.7173C55.1531 45.2345 56.5101 45.9035 57.915 45.5067C59.0298 45.1921 59.8909 44.2333 59.9456 43.2793C59.9485 43.2482 59.9504 43.2169 59.9504 43.1852V43.153V28.1196L60.6286 28.5247L64.4115 35.3903L66.9702 44.5735L65.9023 50.4967C65.8018 51.0539 66.1722 51.5873 66.7294 51.6878C67.2857 51.7878 67.8199 51.418 67.9205 50.8606L69.0111 44.8115C69.0571 44.543 69.0336 44.269 68.9435 44.0145L66.3551 34.7249C66.3339 34.6484 66.3037 34.5747 66.2655 34.5054L62.2911 27.2921C62.2032 27.1328 62.0748 26.9998 61.9187 26.9065L59.9506 25.731L59.9509 1.02539C59.9509 1.02443 59.9509 1.02635 59.9509 1.02539C59.9509 0.458965 59.492 0 58.9255 0H58.9254H11.0746H11.0745C10.5081 0 10.0491 0.458965 10.0491 1.02539V10.3394C10.0491 10.9058 10.5081 11.3647 11.0745 11.3647C11.6409 11.3647 12.0999 10.9058 12.0999 10.3394V9.16016H52.5168C53.0833 9.16016 53.5422 8.70119 53.5422 8.13477C53.5422 7.56834 53.0833 7.10938 52.5168 7.10938H12.1V2.05078H57.9V7.10938H56.8917C56.3253 7.10938 55.8663 7.56834 55.8663 8.13477C55.8663 8.70119 56.3253 9.16016 56.8917 9.16016H57.9V43.1412C57.8404 43.2655 57.5664 43.5266 57.21 43.5613C56.7842 43.604 56.4336 43.2611 56.1912 42.9006L55.9771 37.1807C56.116 35.5886 54.9202 33.6201 53.4225 33.0072C52.7469 32.7322 51.9537 33.027 51.5409 33.2269C51.0792 33.4508 50.4924 33.8443 50.3184 34.4472C50.2703 34.6138 50.2232 34.8455 50.1729 35.1518H19.8271C19.7767 34.8455 19.7298 34.6139 19.6818 34.4477C19.5076 33.8443 18.9208 33.4508 18.4591 33.2269C18.0463 33.0269 17.253 32.7322 16.5761 33.0077C15.0798 33.6201 13.8842 35.5886 14.023 37.1805L13.8089 42.9004C13.5666 43.2608 13.2173 43.6047 12.7901 43.5612C12.4338 43.5265 12.1596 43.2653 12.1 43.1411V14.7656C12.1 14.1992 11.6411 13.7402 11.0746 13.7402C10.5082 13.7402 10.0493 14.1992 10.0493 14.7656V25.7309L8.08119 26.9064C7.92506 26.9998 7.79668 27.1327 7.70877 27.2919L3.73435 34.5052C3.69621 34.5747 3.66599 34.6484 3.6448 34.7248L1.0563 44.0145C0.966207 44.2691 0.942828 44.5438 0.990269 44.8206L3.18488 56.9913L2.59412 60.3224C2.18478 60.5168 1.86117 60.8847 1.74181 61.356L0.048824 68.042C-0.0710783 68.5155 0.0322811 69.0081 0.332242 69.3937C0.632477 69.7789 1.08461 70 1.57296 70H68.4271ZM56.3266 60.0492L56.9612 62.5362L54.8989 63.0457C54.1951 63.2194 53.7033 63.847 53.7033 64.5721V67.9492H16.2966V64.5721C16.2966 63.847 15.8048 63.2193 15.101 63.0457L13.0387 62.5362L13.6733 60.0492L19.9276 52.0367C20.3875 51.4464 20.6146 50.7183 20.5728 49.9763L21.179 43.4414C21.1847 43.3802 21.1849 43.3185 21.1795 43.257C21.1529 42.9531 21.083 42.6567 20.9719 42.3758C20.8938 42.1788 20.8134 41.8526 20.7331 41.4492H49.2665C49.1864 41.8528 49.1058 42.1791 49.0278 42.3763C48.9166 42.6568 48.8469 42.9532 48.8201 43.257C48.8148 43.3184 48.8149 43.38 48.8206 43.4414L49.4269 49.9763C49.3849 50.7184 49.6121 51.4464 50.0726 52.0373L56.3266 60.0492ZM49.8898 37.2025C49.8819 37.2639 49.8741 37.3246 49.866 37.3881C49.7889 37.9891 49.6978 38.6991 49.5993 39.3981H20.4008C20.3022 38.6991 20.2112 37.9889 20.134 37.3881C20.1258 37.3245 20.118 37.2639 20.1103 37.2025H49.8898ZM3.02943 44.5735L5.58826 35.3902L9.37113 28.5246L10.0494 28.1195V43.153V43.1852C10.0494 43.2169 10.0513 43.2482 10.0542 43.2793C10.1089 44.2333 10.9698 45.1921 12.0847 45.5067C13.4892 45.9028 14.8469 45.2344 15.7139 43.7173C15.7961 43.5736 15.842 43.4123 15.8483 43.2469L16.0753 37.1861C16.0773 37.1324 16.075 37.0788 16.0686 37.0254C15.9893 36.3654 16.6118 35.2974 17.248 34.9554C17.3913 34.9863 17.617 35.0859 17.7488 35.175C17.8424 35.6371 17.9785 36.6986 18.1002 37.6488C18.4383 40.285 18.7053 42.2213 19.0653 43.1304C19.094 43.2033 19.1148 43.2798 19.1272 43.3588L18.5234 49.8705C18.5176 49.9324 18.5175 49.9949 18.5231 50.057C18.5462 50.3147 18.4706 50.5701 18.3108 50.7752L11.9248 58.9564C11.8375 59.0681 11.7745 59.1966 11.7395 59.3339L11.0478 62.0443L4.6516 60.4644L5.23607 57.1688C5.25726 57.0494 5.25699 56.9271 5.23552 56.8077L3.02943 44.5735ZM11.0745 67.9492H2.18765L3.61295 62.3204L11.529 64.2757C11.5314 64.2763 11.5336 64.2774 11.5361 64.2779C11.5387 64.2786 11.5413 64.2787 11.5439 64.2794L14.2458 64.9469V67.9492H11.0745ZM55.7542 67.9492V64.9469C55.7568 64.9462 55.7542 64.9469 55.7568 64.9462C55.7593 64.9456 55.7568 64.9462 55.7593 64.9456L66.3872 62.3204L67.8124 67.9492H55.7542Z" fill="black"/>
<path d="M64.5889 66.7885C65.1552 66.7885 65.6143 66.3294 65.6143 65.7631C65.6143 65.1968 65.1552 64.7377 64.5889 64.7377C64.0226 64.7377 63.5635 65.1968 63.5635 65.7631C63.5635 66.3294 64.0226 66.7885 64.5889 66.7885Z" fill="black"/>
</svg>
