<svg width="71" height="70" viewBox="0 0 71 70" fill="none" xmlns="http://www.w3.org/2000/svg">
<path d="M50.8438 19.5625C53.1392 19.5625 55 17.7017 55 15.4062C55 13.1108 53.1392 11.25 50.8438 11.25C48.5483 11.25 46.6875 13.1108 46.6875 15.4062C46.6875 17.7017 48.5483 19.5625 50.8438 19.5625Z" fill="#D5D5D3"/>
<path d="M58.5625 26.6875H56.1875V23.5415L51.6978 17.9297L53.5523 16.4453L58.3023 22.3828C58.4709 22.5935 58.5626 22.8552 58.5625 23.125V26.6875Z" fill="#D5D5D3"/>
<path d="M37.1875 11.25L34.8125 12.4375V13.625C34.8125 14.2549 34.5623 14.859 34.1169 15.3044C33.6715 15.7498 33.0674 16 32.4375 16H25.3125V4.125H34.8125V7.6875L35.6037 8.875L37.1875 11.25Z" fill="#FDC8A2"/>
<path d="M35.6037 8.875H30.0625V6.5H34.8125V7.6875L35.6037 8.875Z" fill="#FDB683"/>
<path d="M3.9375 49.25H12.25V56.375H3.9375V49.25Z" fill="#C7483C"/>
<path d="M15.8125 69.4375C20.4034 69.4375 24.125 65.7159 24.125 61.125C24.125 56.5341 20.4034 52.8125 15.8125 52.8125C11.2216 52.8125 7.5 56.5341 7.5 61.125C7.5 65.7159 11.2216 69.4375 15.8125 69.4375Z" fill="#34507B"/>
<path d="M15.8125 64.6875C17.78 64.6875 19.375 63.0925 19.375 61.125C19.375 59.1575 17.78 57.5625 15.8125 57.5625C13.845 57.5625 12.25 59.1575 12.25 61.125C12.25 63.0925 13.845 64.6875 15.8125 64.6875Z" fill="#D5D5D3"/>
<path d="M3.9375 17.1875H18.1875C18.8174 17.1875 19.4215 17.4377 19.8669 17.8831C20.3123 18.3285 20.5625 18.9326 20.5625 19.5625V36.1875H1.5625V19.5625C1.5625 18.9326 1.81272 18.3285 2.25812 17.8831C2.70352 17.4377 3.30761 17.1875 3.9375 17.1875Z" fill="#D65246"/>
<path d="M5.125 25.5H7.5V32.625H5.125V25.5Z" fill="#DF6257"/>
<path d="M1.5625 20.75H20.5625V23.125H1.5625V20.75Z" fill="#C7483C"/>
<path d="M44.1684 57.7066L51.5816 50.2934C52.2497 49.6253 52.625 48.7192 52.625 47.7744V38.5625C52.625 37.3027 53.1254 36.0945 54.0162 35.2037C54.907 34.3129 56.1152 33.8125 57.375 33.8125V39.75C57.375 40.5297 57.5286 41.3018 57.827 42.0222C58.1254 42.7426 58.5627 43.3971 59.1141 43.9484C59.6654 44.4998 60.3199 44.9371 61.0403 45.2355C61.7607 45.5339 62.5328 45.6875 63.3125 45.6875V50.4375H60.6638C60.002 50.4375 59.3474 50.5758 58.7422 50.8435C58.1369 51.1113 57.5943 51.5025 57.1491 51.9922L48.1009 61.9453C47.6557 62.435 47.1131 62.8262 46.5078 63.094C45.9026 63.3617 45.248 63.5 44.5862 63.5H1.5625C1.56247 59.8346 2.8489 56.2854 5.19751 53.4712C7.54612 50.6571 10.8079 48.7565 14.4142 48.1008L14.625 48.0625V43.3125H34.8125C34.8125 44.3013 34.4558 45.2569 33.808 46.0038C33.1601 46.7508 32.2646 47.239 31.2858 47.3788C29.9575 47.5686 28.7422 48.2311 27.8631 49.2448C26.984 50.2584 26.5 51.5552 26.5 52.897V53.1759C26.5 54.6542 27.0873 56.072 28.1327 57.1173C29.178 58.1627 30.5958 58.75 32.0741 58.75H41.6494C42.5942 58.75 43.5003 58.3747 44.1684 57.7066Z" fill="#D65246"/>
<path d="M13.48 54.5307L12.5688 52.3375C13.3681 52.0061 14.2005 51.7609 15.0518 51.6061L15.4764 53.9429C14.7919 54.0671 14.1226 54.2642 13.48 54.5307Z" fill="#DF6257"/>
<path d="M8.46807 59.2676L6.33057 58.2324C7.2509 56.3338 8.65097 54.7083 10.3923 53.5168L11.7327 55.4775C10.3331 56.4352 9.20782 57.7416 8.46807 59.2676Z" fill="#DF6257"/>
<path d="M20.5625 36.1875H1.5625C1.24756 36.1875 0.94551 36.3126 0.722811 36.5353C0.500111 36.758 0.375 37.0601 0.375 37.375V38.7584C0.374965 39.3148 0.570174 39.8536 0.926604 40.2808C1.28303 40.708 1.77808 40.9966 2.32547 41.0963L14.4127 43.2932C14.4827 43.3063 14.5538 43.3128 14.625 43.3125H20.5625C20.8774 43.3125 21.1795 43.1874 21.4022 42.9647C21.6249 42.742 21.75 42.4399 21.75 42.125V37.375C21.75 37.0601 21.6249 36.758 21.4022 36.5353C21.1795 36.3126 20.8774 36.1875 20.5625 36.1875ZM19.375 40.9375H14.7319L2.75 38.7584V38.5625H19.375V40.9375Z" fill="#D5D5D3"/>
<path d="M36 6.5H30.0625V9.32031C30.0625 9.87484 29.9147 10.4193 29.6341 10.8977C29.3535 11.376 28.9505 11.7708 28.4664 12.0414C27.9824 12.312 27.435 12.4486 26.8806 12.437C26.3262 12.4255 25.7849 12.2663 25.3125 11.9759C25.1492 11.8757 24.9956 11.7604 24.8538 11.6315C24.2798 11.1136 23.9198 10.4 23.8445 9.63055L23.5906 7.09078C23.5079 6.26533 23.5991 5.43171 23.8584 4.64368C24.1176 3.85564 24.5391 3.1307 25.0958 2.51559C25.6524 1.90048 26.3318 1.40888 27.0901 1.07248C27.8485 0.736075 28.6689 0.562348 29.4984 0.5625H30.0625C31.6372 0.5625 33.1474 1.18806 34.2609 2.30155C35.3744 3.41505 36 4.92528 36 6.5Z" fill="#D65246"/>
<path d="M25.3125 32.625V35C25.3125 35.9448 25.6878 36.851 26.3559 37.5191C27.024 38.1872 27.9302 38.5625 28.875 38.5625H40.75L34.8125 54H40.75L46.3313 40.5639C46.6724 39.7426 46.8179 38.8532 46.7564 37.9659C46.6949 37.0787 46.428 36.2179 45.9768 35.4515C45.4699 34.5907 44.7471 33.8772 43.8799 33.3814C43.0126 32.8857 42.031 32.6249 41.032 32.625H25.3125Z" fill="#7A432A"/>
<path d="M39.5625 24.3125L32.4375 16H25.3125V32.625H34.8125V26.6875L36.1441 28.0191C36.8122 28.6872 37.7183 29.0625 38.6631 29.0625H50.25V24.3125H39.5625Z" fill="#D65246"/>
<path d="M52.625 33.8125H62.125V25.5H60.0304C59.2325 25.5 58.4503 25.7222 57.7716 26.1416C57.0929 26.5611 56.5443 27.1613 56.1875 27.875L52.625 29.0625V33.8125Z" fill="#D65246"/>
<path d="M70.4375 61.125C70.4362 63.2768 69.6001 65.3441 68.1052 66.8917C66.6103 68.4394 64.5733 69.3467 62.4229 69.4226C60.2725 69.4985 58.1765 68.737 56.5762 67.2986C54.9759 65.8601 53.9962 63.8569 53.8433 61.7106C53.6904 59.5643 54.3762 57.4424 55.7563 55.7915C57.1365 54.1407 59.1033 53.0898 61.2428 52.8601C63.3822 52.6303 65.5274 53.2396 67.2266 54.5597C68.9258 55.8798 70.0466 57.8077 70.3529 59.9375C70.4094 60.3308 70.4377 60.7277 70.4375 61.125Z" fill="#34507B"/>
<path d="M70.353 59.9375H60.9376L56.2351 66.9912C55.3068 66.0588 54.6131 64.9193 54.211 63.6664C53.809 62.4136 53.7101 61.0832 53.9225 59.7847C54.1349 58.4861 54.6525 57.2566 55.4328 56.1971C56.213 55.1377 57.2337 54.2786 58.4107 53.6905C59.5877 53.1024 60.8876 52.8021 62.2033 52.8144C63.519 52.8266 64.813 53.151 65.9789 53.7609C67.1448 54.3708 68.1493 55.2487 68.9097 56.3225C69.6701 57.3963 70.1648 58.6353 70.353 59.9375Z" fill="#2F486E"/>
<path d="M65.5392 61.125C65.5401 62.0185 65.2056 62.8798 64.6019 63.5384C63.9982 64.1971 63.1692 64.6051 62.279 64.6818C61.3889 64.7585 60.5023 64.4982 59.7949 63.9525C59.0874 63.4068 58.6105 62.6154 58.4587 61.735C58.3068 60.8545 58.4909 59.9491 58.9747 59.1979C59.4584 58.4467 60.2065 57.9045 61.071 57.6785C61.9354 57.4525 62.8532 57.5592 63.6427 57.9776C64.4322 58.3959 65.0359 59.0953 65.3343 59.9375C65.4707 60.3185 65.54 60.7203 65.5392 61.125Z" fill="#CECECC"/>
<path d="M65.334 59.9375H60.9373L58.923 62.9582C58.6665 62.5314 58.5023 62.0555 58.4411 61.5614C58.3799 61.0672 58.4229 60.5656 58.5675 60.0891C58.7122 59.6126 58.9551 59.1717 59.2806 58.7949C59.6062 58.4181 60.0071 58.1138 60.4576 57.9015C60.9081 57.6893 61.398 57.5739 61.8959 57.5627C62.3937 57.5516 62.8884 57.6449 63.3479 57.8368C63.8074 58.0286 64.2216 58.3147 64.5637 58.6766C64.9058 59.0384 65.1682 59.468 65.334 59.9375Z" fill="#C6C6C4"/>
<path d="M56.7812 59.2177L60.418 62.8544C60.6226 63.0591 60.8656 63.2215 61.1331 63.3323C61.4005 63.443 61.6871 63.5001 61.9766 63.5001C62.266 63.5001 62.5526 63.443 62.8201 63.3323C63.0875 63.2215 63.3305 63.0591 63.5352 62.8544C63.7398 62.6498 63.9022 62.4068 64.013 62.1394C64.1237 61.8719 64.1808 61.5853 64.1808 61.2959C64.1808 61.0064 64.1237 60.7198 64.013 60.4523C63.9022 60.1849 63.7398 59.9419 63.5352 59.7373L59.8984 56.1005L56.7812 59.2177Z" fill="#D5D5D3"/>
<path d="M51.4375 64.6875H56.1875L60.9375 57.5625H70.4375C70.4375 55.6728 69.6868 53.8606 68.3506 52.5244C67.0144 51.1882 65.2022 50.4375 63.3125 50.4375H60.9375C58.4179 50.4375 56.0016 51.4384 54.22 53.22C52.4384 55.0016 51.4375 57.4179 51.4375 59.9375V64.6875Z" fill="#D65246"/>
<path d="M50.25 24.3125V29.0625L52.625 30.25V32.625H57.375V26.6875L50.25 24.3125Z" fill="#FDC8A2"/>
<path d="M52.625 33.8125C53.9367 33.8125 55 32.7492 55 31.4375C55 30.1258 53.9367 29.0625 52.625 29.0625C51.3133 29.0625 50.25 30.1258 50.25 31.4375C50.25 32.7492 51.3133 33.8125 52.625 33.8125Z" fill="#34507B"/>
<path d="M14.625 46.875H22.9375V49.25H14.625V46.875Z" fill="#C7483C"/>
<path d="M39.2744 61.125H17V58.75H41.6494C42.5942 58.75 43.5003 58.3747 44.1684 57.7066L44.3125 57.5625L41.7934 60.0816C41.1253 60.7497 40.2192 61.125 39.2744 61.125Z" fill="#C7483C"/>
<path d="M60.9375 49.25C58.4129 49.2534 55.9709 50.1491 54.0429 51.7789C52.1149 53.4087 50.825 55.6675 50.4014 58.1562H52.8193C53.2275 56.3064 54.2544 54.6512 55.7304 53.4637C57.2063 52.2763 59.0431 51.6277 60.9375 51.625H63.3125V49.25H60.9375Z" fill="#C7483C"/>
<path d="M32.4375 38.5625H22.9375C21.6258 38.5625 20.5625 39.6258 20.5625 40.9375C20.5625 42.2492 21.6258 43.3125 22.9375 43.3125H32.4375C33.7492 43.3125 34.8125 42.2492 34.8125 40.9375C34.8125 39.6258 33.7492 38.5625 32.4375 38.5625Z" fill="#34507B"/>
<path d="M34.8124 26.8913L30.9021 22.981L29.2227 24.6603L34.8124 30.25V26.8913Z" fill="#C7483C"/>
<path d="M34.8125 54H41.9375C42.5674 54 43.1715 54.2502 43.6169 54.6956C44.0623 55.141 44.3125 55.7451 44.3125 56.375C44.3125 57.0049 44.0623 57.609 43.6169 58.0544C43.1715 58.4998 42.5674 58.75 41.9375 58.75H34.8125V54Z" fill="#D5D5D3"/>
</svg>
