<svg width="61" height="55" viewBox="0 0 61 55" fill="none" xmlns="http://www.w3.org/2000/svg">
<path d="M55.8379 9.21906H5.1626V52.5922H55.8379V9.21906Z" fill="#E9EAEB"/>
<path d="M55.8374 9.21906H49.4038V52.5922H55.8374V9.21906Z" fill="#B9BBC1"/>
<path d="M56.0145 9.21882H4.98584V2.09874C4.98584 1.52985 5.44691 1.06877 6.01581 1.06877H54.9845C55.5534 1.06877 56.0145 1.52985 56.0145 2.09874V9.21882Z" fill="#FDC74F"/>
<path d="M54.9842 1.06877H49.5806V6.42879H56.0142V2.09874C56.0142 1.52985 55.553 1.06877 54.9842 1.06877Z" fill="#FCA629"/>
<path d="M5.16239 22.1302C2.8301 22.1302 0.939453 20.2396 0.939453 17.9073V14.4668H9.38521V17.9073C9.38521 20.2396 7.49457 22.1302 5.16239 22.1302Z" fill="#E60D28"/>
<path d="M13.6082 22.1302C11.2759 22.1302 9.38525 20.2396 9.38525 17.9073V14.4668H17.831V17.9073C17.8311 20.2396 15.9405 22.1302 13.6082 22.1302Z" fill="#F2F2F2"/>
<path d="M22.0545 22.1302C19.7222 22.1302 17.8315 20.2396 17.8315 17.9073V14.4668H26.2773V17.9073C26.2773 20.2396 24.3867 22.1302 22.0545 22.1302Z" fill="#E60D28"/>
<path d="M30.4998 22.1302C28.1675 22.1302 26.2769 20.2396 26.2769 17.9073V14.4668H34.7226V17.9073C34.7227 20.2396 32.8321 22.1302 30.4998 22.1302Z" fill="#F2F2F2"/>
<path d="M38.9461 22.1302C36.6138 22.1302 34.7231 20.2396 34.7231 17.9073V14.4668H43.1689V17.9073C43.1689 20.2396 41.2783 22.1302 38.9461 22.1302Z" fill="#E60D28"/>
<path d="M47.3919 22.1302C45.0596 22.1302 43.1689 20.2396 43.1689 17.9073V14.4668H51.6147V17.9073C51.6148 20.2396 49.7242 22.1302 47.3919 22.1302Z" fill="#F2F2F2"/>
<path d="M55.8372 22.1302C53.5049 22.1302 51.6143 20.2396 51.6143 17.9073V14.4668H60.06V17.9073C60.0601 20.2396 58.1695 22.1302 55.8372 22.1302Z" fill="#E60D28"/>
<path d="M9.38521 14.467H0.939453L4.98118 6.42879H12.2722L9.38521 14.467Z" fill="#FC502A"/>
<path d="M17.8311 14.467H9.38525L12.2723 6.42879H19.5633L17.8311 14.467Z" fill="white"/>
<path d="M26.2773 14.467H17.8315L19.5637 6.42879H26.8548L26.2773 14.467Z" fill="#FC502A"/>
<path d="M34.7227 14.467H26.2769L26.8543 6.42879H34.1453L34.7227 14.467Z" fill="white"/>
<path d="M43.1687 14.467H34.723L34.1455 6.42879H41.4366L43.1687 14.467Z" fill="#FC502A"/>
<path d="M51.6146 14.467H43.1687L41.4365 6.42879H48.7276L51.6146 14.467Z" fill="white"/>
<path d="M60.0603 14.467H51.6146L48.7275 6.42879H56.0186L60.0603 14.467Z" fill="#FC502A"/>
<path d="M58.1777 48.6295H2.8222C1.75697 48.6295 0.893555 49.493 0.893555 50.5582V53.3846C0.893555 53.6865 1.13839 53.9313 1.44029 53.9313H59.5597C59.8616 53.9313 60.1064 53.6865 60.1064 53.3846V50.5582C60.1064 49.493 59.2429 48.6295 58.1777 48.6295Z" fill="#8B8996"/>
<path d="M58.178 48.6295H53.6533V53.9312H59.5601C59.862 53.9312 60.1068 53.6865 60.1068 53.3845V50.5581C60.1067 49.493 59.2432 48.6295 58.178 48.6295Z" fill="#706F7F"/>
<path d="M50.8461 42.9609H24.8349C24.4105 42.9609 24.0664 42.6168 24.0664 42.1924V27.8795C24.0664 27.4551 24.4105 27.111 24.8349 27.111H50.8461C51.2705 27.111 51.6146 27.4551 51.6146 27.8795V42.1924C51.6146 42.6169 51.2705 42.9609 50.8461 42.9609Z" fill="#00C6C8"/>
<path d="M50.8462 27.111H45.1611V42.9609H50.8462C51.2705 42.9609 51.6146 42.6168 51.6146 42.1924V27.8795C51.6146 27.455 51.2705 27.111 50.8462 27.111Z" fill="#0FB0C0"/>
<path d="M20.4129 48.6295H8.54541V27.8795C8.54541 27.4551 8.88949 27.111 9.31387 27.111H19.6444C20.0688 27.111 20.4129 27.4551 20.4129 27.8795V48.6295Z" fill="#00C6C8"/>
<path d="M19.6445 27.111H13.9595V48.6296H20.413V27.8795C20.413 27.455 20.0689 27.111 19.6445 27.111Z" fill="#0FB0C0"/>
<path d="M17.0967 39.2657C17.5902 39.2657 17.9902 38.8657 17.9902 38.3722V36.7638C17.9902 36.2703 17.5902 35.8702 17.0967 35.8702C16.6032 35.8702 16.2031 36.2703 16.2031 36.7638V38.3722C16.2031 38.8657 16.6032 39.2657 17.0967 39.2657Z" fill="black"/>
<path d="M58.1778 47.7359H56.7311V22.9441C59.1276 22.5199 60.954 20.4236 60.954 17.9073V14.467C60.954 14.4495 60.9523 14.4323 60.9514 14.415C60.9508 14.4054 60.9508 14.3957 60.95 14.3861C60.9467 14.3508 60.9419 14.3161 60.9347 14.2823C60.9344 14.2803 60.9336 14.2784 60.9332 14.2765C60.9261 14.2439 60.917 14.2122 60.9065 14.1812C60.9039 14.1733 60.9008 14.1654 60.8979 14.1577C60.888 14.131 60.877 14.105 60.8648 14.0796C60.8625 14.075 60.8611 14.0701 60.8588 14.0656L56.9079 6.20838V2.09874C56.9079 1.03815 56.0449 0.175217 54.9844 0.175217H14.3512C13.8577 0.175217 13.4576 0.575291 13.4576 1.06877C13.4576 1.56225 13.8577 1.96233 14.3512 1.96233H54.9844C55.0595 1.96233 55.1208 2.02356 55.1208 2.09874V5.53523H5.87923V2.09874C5.87923 2.02356 5.94047 1.96233 6.01565 1.96233H10.1937C10.6872 1.96233 11.0872 1.56225 11.0872 1.06877C11.0872 0.575291 10.6872 0.175217 10.1937 0.175217H6.01565C4.95506 0.175217 4.09212 1.03815 4.09212 2.09874V6.20838L0.141301 14.0656C0.139037 14.0702 0.137488 14.0751 0.135344 14.0796C0.123072 14.105 0.112111 14.131 0.102223 14.1577C0.0993633 14.1655 0.0962656 14.1733 0.0936445 14.1812C0.0831602 14.2122 0.0739863 14.2439 0.066957 14.2765C0.0664805 14.2784 0.0658848 14.2803 0.0654082 14.2823C0.0582598 14.3163 0.0532559 14.3508 0.0501582 14.3861C0.0493242 14.3957 0.0493242 14.4054 0.0487285 14.415C0.0477754 14.4323 0.0461074 14.4495 0.0461074 14.467V17.9073C0.0461074 20.4235 1.87253 22.5199 4.26905 22.9441V47.7359H2.8222C1.26599 47.7359 0 49.002 0 50.5582V53.3845C0 54.1787 0.6461 54.8248 1.44029 54.8248H59.5597C60.3539 54.8248 61 54.1787 61 53.3845V50.5582C61 49.002 59.734 47.7359 58.1778 47.7359ZM59.1668 17.9074C59.1668 19.7432 57.6732 21.2368 55.8374 21.2368C54.0016 21.2368 52.508 19.7432 52.508 17.9074V15.3606H59.1668V17.9074ZM55.4677 7.32234L58.6109 13.5734H52.243L49.998 7.32234H55.4677ZM48.099 7.32234L50.3441 13.5734H43.8902L42.5431 7.32234H48.099ZM50.721 15.3605V17.9073C50.721 19.7431 49.2275 21.2367 47.3916 21.2367C45.5558 21.2367 44.0623 19.7431 44.0623 17.9073V15.3605H50.721ZM40.715 7.32234L42.0621 13.5734H35.5547L35.1056 7.32234H40.715ZM42.2751 15.3605V17.9073C42.2751 19.7431 40.7816 21.2367 38.9459 21.2367C37.1102 21.2367 35.6165 19.7431 35.6165 17.9073V15.3605H42.2751ZM27.6861 7.32234H33.3137L33.7628 13.5734H27.2371L27.6861 7.32234ZM27.1706 15.3605H33.8294V17.9073C33.8294 19.7431 32.3358 21.2367 30.5 21.2367C28.6642 21.2367 27.1706 19.7431 27.1706 17.9073V15.3605ZM30.5 23.0238C32.2518 23.0238 33.8003 22.1384 34.7229 20.792C35.6456 22.1384 37.194 23.0238 38.9459 23.0238C40.6977 23.0238 42.2462 22.1384 43.1687 20.792C44.0913 22.1384 45.6398 23.0238 47.3916 23.0238C49.1435 23.0238 50.692 22.1384 51.6146 20.792C52.3766 21.9041 53.566 22.7002 54.944 22.9441V47.7359H21.3066V27.8795C21.3066 26.963 20.5611 26.2175 19.6446 26.2175H9.31406C8.39763 26.2175 7.65204 26.963 7.65204 27.8795V47.7359H6.05616V22.9441C7.43414 22.7002 8.62352 21.9041 9.38554 20.792C10.3082 22.1384 11.8566 23.0238 13.6085 23.0238C15.3603 23.0238 16.9088 22.1384 17.8314 20.792C18.754 22.1384 20.3025 23.0238 22.0542 23.0238C23.806 23.0238 25.3546 22.1384 26.2772 20.792C27.1997 22.1384 28.7482 23.0238 30.5 23.0238ZM19.5195 28.0046V47.7359H9.43915V28.0046H19.5195ZM10.279 17.9074V15.3606H16.9377V17.9074C16.9377 19.7432 15.4442 21.2368 13.6084 21.2368C11.7725 21.2368 10.279 19.7431 10.279 17.9074ZM20.285 7.32234H25.8944L25.4453 13.5734H18.9379L20.285 7.32234ZM18.7249 15.3605H25.3835V17.9073C25.3835 19.7431 23.89 21.2367 22.0541 21.2367C20.2183 21.2367 18.7249 19.7431 18.7249 17.9073V15.3605ZM18.4568 7.32234L17.1097 13.5734H10.6558L12.9009 7.32234H18.4568ZM5.5323 7.32234H11.002L8.75696 13.5734H2.38913L5.5323 7.32234ZM1.83322 17.9074V15.3606H8.49199V17.9074C8.49199 19.7432 6.99844 21.2368 5.1626 21.2368C3.32676 21.2368 1.83322 19.7431 1.83322 17.9074ZM59.2129 53.0377H1.78711V50.5581C1.78711 49.9873 2.2514 49.523 2.8222 49.523H58.1777C58.7485 49.523 59.2128 49.9873 59.2128 50.5581V53.0377H59.2129Z" fill="black"/>
<path d="M23.1729 27.8795V42.1925C23.1729 43.109 23.9184 43.8546 24.8349 43.8546H50.846C51.7624 43.8546 52.508 43.109 52.508 42.1925V27.8795C52.508 26.963 51.7624 26.2175 50.846 26.2175H39.9193C39.4258 26.2175 39.0257 26.6175 39.0257 27.111C39.0257 27.6045 39.4258 28.0046 39.9193 28.0046H50.721V42.0673H24.96V28.0046H35.7124C36.2059 28.0046 36.606 27.6045 36.606 27.111C36.606 26.6175 36.2059 26.2175 35.7124 26.2175H24.8349C23.9184 26.2175 23.1729 26.9629 23.1729 27.8795Z" fill="black"/>
</svg>
