<svg width="66" height="66" viewBox="0 0 66 66" fill="none" xmlns="http://www.w3.org/2000/svg">
<path d="M35.1155 29.8849L35.1155 30.8849L36.1155 30.8849L62.5942 30.8853H62.5945C63.7648 30.8851 64.7093 31.8296 64.709 32.9999V33.0001C64.709 33.584 64.4735 34.1121 64.0899 34.4958C63.7063 34.8794 63.1781 35.1149 62.5942 35.1149L36.1151 35.1149L35.1151 35.1149L35.1151 36.1149L35.1155 62.5936C35.1155 63.1774 34.88 63.7056 34.4964 64.0893C34.1126 64.4731 33.5841 64.7086 33.0012 64.7084L33.0005 64.7084C31.8302 64.7086 30.8857 63.7641 30.886 62.5938L30.886 62.5936L30.8856 36.1149L30.8856 35.1149L29.8856 35.1149L3.40685 35.1145H3.4066C2.23631 35.1147 1.2918 34.1702 1.29207 32.9999L1.29207 32.9997C1.29207 31.8298 2.23615 30.8853 3.40682 30.8849C3.4069 30.8849 3.40699 30.8849 3.40707 30.8849L29.8855 30.8853L30.8856 30.8854L30.8856 29.8853L30.8856 3.4062C30.8856 2.23613 31.8303 1.29144 33.0003 1.29144L33.0006 1.29144C34.1709 1.29117 35.1154 2.23568 35.1151 3.40597L35.1151 3.40622L35.1155 29.8849Z" fill="#9D9D9D" stroke="white" stroke-width="2"/>
</svg>
